<svg width="1440" height="723" viewBox="0 0 1440 723" fill="none" xmlns="http://www.w3.org/2000/svg">
<path d="M41.9678 51.2994C-75.8124 26.5047 -136.225 61.6305 -151.708 82.2927L-332 723H2185L2142.49 202.525V0C2049.58 23.6903 1844.1 67.1166 1765.37 51.2994C1666.96 31.5278 1500.05 153.364 1385.89 113.286C1271.73 73.2084 1146.55 51.2994 1048.14 51.2994C949.725 51.2994 870.995 122.37 743.453 113.286C615.91 104.202 566.31 51.2994 419.085 51.2994C271.86 51.2994 189.193 82.2927 41.9678 51.2994Z" fill="url(#paint0_linear_42_775)"/>
<path d="M41.9678 51.2994C-75.8124 26.5047 -136.225 61.6305 -151.708 82.2927L-332 723H2185L2142.49 202.525V0C2049.58 23.6903 1844.1 67.1166 1765.37 51.2994C1666.96 31.5278 1500.05 153.364 1385.89 113.286C1271.73 73.2084 1146.55 51.2994 1048.14 51.2994C949.725 51.2994 870.995 122.37 743.453 113.286C615.91 104.202 566.31 51.2994 419.085 51.2994C271.86 51.2994 189.193 82.2927 41.9678 51.2994Z" fill="url(#paint1_radial_42_775)" fill-opacity="0.3"/>
<defs>
<linearGradient id="paint0_linear_42_775" x1="926.5" y1="0" x2="926.5" y2="723" gradientUnits="userSpaceOnUse">
<stop stop-color="#45608D"/>
<stop offset="1" stop-color="#1A1C2D" stop-opacity="0.5"/>
</linearGradient>
<radialGradient id="paint1_radial_42_775" cx="0" cy="0" r="1" gradientUnits="userSpaceOnUse" gradientTransform="translate(795 105.5) rotate(110.794) scale(503.171 537.936)">
<stop stop-color="#5FB9FE"/>
<stop offset="1" stop-color="#373356" stop-opacity="0"/>
</radialGradient>
</defs>
</svg>
