<svg width="25" height="25" viewBox="0 0 25 25" fill="none" xmlns="http://www.w3.org/2000/svg">
<path d="M12.4293 18.4472L12.5 18.5179L12.5707 18.4472L18.3848 12.6348L18.455 12.5646L18.3853 12.4939L17.2205 11.3126L17.1498 11.2409L17.0786 11.3121L13.4214 14.9693V1V0.9H13.3214H11.6786H11.5786V1V14.9693L7.91978 11.3105L7.84847 11.2392L7.77777 11.3111L6.61463 12.494L6.54509 12.5647L6.61523 12.6348L12.4293 18.4472ZM0.9 21.3451L0.9 21.3453C0.901131 22.1279 1.16402 22.7858 1.68993 23.3117C2.21585 23.8376 2.87322 24.1 3.65486 24.1H21.3451H21.3453C22.1279 24.0989 22.7858 23.836 23.3117 23.3101C23.8376 22.7841 24.1 22.1268 24.1 21.3451V17.3645V17.2645H24H22.3571H22.2571V17.3645V21.3451L22.2571 21.3456C22.2581 21.5683 22.1672 21.7759 21.9712 21.9708C21.7749 22.1661 21.5675 22.2571 21.3468 22.2571H3.65321L3.65278 22.2571C3.43129 22.2581 3.22423 22.1673 3.02918 21.9712C2.83396 21.775 2.74286 21.567 2.74286 21.3451V17.3645V17.2645H2.64286H1H0.9V17.3645L0.9 21.3451Z" fill="white" stroke="white" stroke-width="0.2"/>
</svg>
