<svg width="61" height="49" viewBox="0 0 61 49" fill="none" xmlns="http://www.w3.org/2000/svg">
<g clip-path="url(#clip0_42_784)">
<mask id="mask0_42_784" style="mask-type:luminance" maskUnits="userSpaceOnUse" x="-1" y="0" width="62" height="49">
<path d="M60.8656 0.242188H-0.00146484V48.9792H60.8656V0.242188Z" fill="white"/>
</mask>
<g mask="url(#mask0_42_784)">
<path d="M24.3328 48.9775C15.4731 48.9775 8.26658 45.0234 4.04275 37.8434C0.303216 31.5499 -0.00146484 24.7331 -0.00146484 17.1162C-0.00146484 12.6004 1.35997 8.6688 3.93371 5.74524C6.29899 3.06012 9.65044 1.32071 13.3724 0.847059C17.7902 0.288592 23.2825 0.242188 28.9927 0.242188C38.2855 0.242188 40.9105 0.355801 44.5667 0.720644C49.4303 1.2023 53.5226 3.01372 56.3994 5.95966C59.3214 8.95202 60.8656 12.9477 60.8656 17.5194V18.438C60.8656 26.239 55.6394 32.7676 48.3561 34.5422C47.8124 35.8222 47.1388 37.0962 46.342 38.3505L46.321 38.3826C43.7552 42.34 37.7243 48.9792 26.1721 48.9792H24.3312L24.3328 48.9775Z" fill="white"/>
<path d="M44.1851 4.54056C40.7324 4.19652 38.316 4.0813 28.9944 4.0813C23.0098 4.0813 17.9457 4.13891 13.8614 4.65579C8.45251 5.34547 3.84863 9.47878 3.84863 17.1164C3.84863 24.7542 4.25113 30.6684 7.35887 35.8929C10.8691 41.8649 16.7382 45.1373 24.3344 45.1373H26.1752C35.4968 45.1373 40.5611 40.1991 43.0929 36.2948C44.1866 34.5712 44.9915 32.8496 45.5097 31.126C52.1275 30.5517 57.0184 25.0966 57.0184 18.4366V17.5181C57.0184 10.3413 52.3007 5.34547 44.1866 4.54056H44.1851Z" fill="white"/>
<path d="M3.84681 17.1164C3.84681 9.47878 8.45069 5.34547 13.8595 4.65579C17.9455 4.13891 23.0095 4.0813 28.9926 4.0813C38.3142 4.0813 40.7307 4.19652 44.1831 4.54056C52.2974 5.34386 57.0149 10.3397 57.0149 17.5181V18.4366C57.0149 25.0982 52.124 30.5532 45.5061 31.126C44.9883 32.8496 44.1831 34.5712 43.0894 36.2948C40.5576 40.1991 35.4935 45.1373 26.1719 45.1373H24.3309C16.7348 45.1373 10.8657 41.8649 7.35545 35.8929C4.24771 30.6684 3.84521 24.8678 3.84521 17.1164" fill="#202020"/>
<path d="M8.16221 17.1727C8.16221 24.58 8.6225 29.3454 11.039 33.7668C13.8004 38.8777 18.8068 40.8299 24.5043 40.8299H26.2876C33.7681 40.8299 37.3939 37.212 39.4079 34.0548C40.3862 32.4466 41.2488 30.6672 41.709 28.4268L42.0539 26.9914H44.1257C48.7295 26.9914 52.7001 23.2599 52.7001 18.4929V17.632C52.7001 12.2922 49.3631 9.47741 43.5501 8.78937C40.2708 8.50292 38.3142 8.3877 28.9911 8.3877C22.7195 8.3877 18.2311 8.44528 14.8363 8.96216C10.0609 9.65184 8.16064 12.3498 8.16064 17.1727" fill="white"/>
<path d="M42.0566 21.1356C42.0566 21.8252 42.5745 22.3421 43.4951 22.3421C46.4297 22.3421 48.0412 20.6763 48.0412 17.9208C48.0412 15.1653 46.4297 13.4419 43.4951 13.4419C42.5745 13.4419 42.0566 13.9587 42.0566 14.6484V21.1372V21.1356Z" fill="#202020"/>
<path d="M13.8029 20.792C13.8029 24.1796 15.7015 27.108 18.1181 29.4059C19.7297 30.9562 22.2618 32.5646 23.9872 33.5982C24.5052 33.8849 25.0231 34.0576 25.5989 34.0576C26.2899 34.0576 26.864 33.8849 27.3259 33.5982C29.0529 32.5646 31.5833 30.9562 33.1374 29.4059C35.6115 27.1095 37.5101 24.1812 37.5101 20.792C37.5101 17.1163 34.7489 13.844 30.7784 13.844C28.4196 13.844 26.8078 15.0505 25.5989 16.7147C24.5052 15.0489 22.8374 13.844 20.477 13.844C16.4488 13.844 13.8013 17.1163 13.8013 20.792" fill="#FF5A16"/>
</g>
</g>
<defs>
<clipPath id="clip0_42_784">
<rect width="61" height="49" fill="white"/>
</clipPath>
</defs>
</svg>
