<?xml version="1.0" encoding="utf-8"?>
<!-- Generator: Adobe Illustrator 26.4.1, SVG Export Plug-In . SVG Version: 6.00 Build 0)  -->
<svg version="1.1" id="Layer_1" xmlns="http://www.w3.org/2000/svg" xmlns:xlink="http://www.w3.org/1999/xlink" x="0px" y="0px"
	 viewBox="0 0 30.7 30.7" style="enable-background:new 0 0 30.7 30.7;" xml:space="preserve">
<style type="text/css">
	.st0{fill:#EDEDED;}
</style>
<path class="st0" d="M22.8,30.3H8c-4.1,0-7.5-3.4-7.5-7.5V8c0-4.1,3.4-7.5,7.5-7.5h14.8c4.1,0,7.5,3.4,7.5,7.5v14.8
	C30.3,26.9,26.9,30.3,22.8,30.3z"/>
<g>
	<g>
		<path d="M11.1,21.9c0.4-0.6,0.7-1.3,1-2c0.3-0.7,0.5-1.5,0.8-2.3c0.3-0.8,0.6-1.6,0.9-2.3c0.3-0.8,0.8-1.5,1.3-2.3
			c0.5-0.7,1.1-1.4,1.8-2.1c0.7-0.7,1.6-1.2,2.6-1.8l0,0c-1,0.4-2,0.9-2.8,1.5c-0.8,0.6-1.6,1.3-2.2,2c-0.7,0.7-1.2,1.4-1.7,2
			c-0.5,0.7-0.9,1.2-1.2,1.7c-0.6,0.9-1.2,1.6-1.7,2.3c-0.5,0.7-1.1,1.3-1.6,1.8c-0.6,0.5-1.1,0.9-1.8,1.2S5.1,22,4.4,22
			c-0.4,0-0.7,0-1-0.1c-0.3-0.1-0.6-0.2-0.8-0.4S2.1,21,2,20.8c-0.1-0.3-0.2-0.6-0.2-1c0-0.4,0.1-0.7,0.4-1c0.2-0.3,0.5-0.4,0.9-0.4
			c0.3,0,0.6,0.1,0.8,0.3c0.2,0.2,0.3,0.5,0.3,0.8c0,0.3-0.1,0.5-0.2,0.7c-0.1,0.2-0.4,0.3-0.6,0.3c0.1,0.4,0.2,0.7,0.4,0.9
			c0.2,0.2,0.5,0.3,0.9,0.3c0.7,0,1.4-0.2,2-0.5c0.6-0.4,1.2-0.8,1.8-1.4c0.6-0.6,1.2-1.3,1.8-2.2c0.6-0.8,1.3-1.7,2-2.6
			c0.5-0.8,1.1-1.5,1.7-2.1c0.6-0.7,1.2-1.3,1.9-1.8c0.7-0.5,1.4-1,2.2-1.4c0.8-0.4,1.6-0.8,2.6-1l0.1,0.2C20.2,9,19.6,9.5,19.1,10
			c-0.5,0.5-0.9,1.1-1.2,1.8c-0.3,0.6-0.7,1.3-0.9,2c-0.3,0.7-0.6,1.5-0.9,2.2c-0.3,0.8-0.7,1.5-1.1,2.3c-0.4,0.8-1,1.5-1.7,2.2l0,0
			c0.5-0.4,0.9-0.8,1.3-1.2c0.4-0.4,0.8-0.9,1.3-1.4c0.5-0.5,1-1.1,1.5-1.8c0.6-0.7,1.2-1.5,1.9-2.5c0.5-0.7,1.1-1.4,1.7-2
			c0.6-0.6,1.3-1.1,1.9-1.6c0.7-0.4,1.4-0.8,2.2-1c0.8-0.3,1.6-0.4,2.5-0.4c0.5,0,0.8,0,1,0.1C28.9,8.8,29,8.9,29,9.1
			c0,0.1-0.1,0.1-0.2,0.2c-0.1,0.1-0.2,0.1-0.4,0.1c-0.2,0-0.4,0-0.5,0c-0.1,0-0.3,0-0.4-0.1c-0.1,0-0.2,0-0.4-0.1
			c-0.2,0-0.3,0-0.4,0c-0.2,0-0.5,0.1-0.7,0.3c-0.3,0.2-0.6,0.5-0.8,0.9s-0.6,0.8-0.9,1.4c-0.3,0.5-0.6,1.1-0.8,1.8
			c-0.4,1.1-0.8,2-1.2,2.9c-0.4,0.8-0.8,1.6-1.3,2.3c-0.5,0.7-1.1,1.3-1.8,1.8c-0.7,0.5-1.5,1-2.5,1.3v0h0c0.7,0,1.4-0.1,2.1-0.2
			c0.7-0.1,1.4-0.3,2-0.6c0.7-0.3,1.3-0.7,1.9-1.3c0.6-0.6,1.3-1.5,2-2.6l0.2,0.1c-0.5,0.9-1.1,1.7-1.6,2.3
			c-0.5,0.6-1.1,1.1-1.7,1.4c-0.5,0.3-0.9,0.5-1.4,0.6c-0.5,0.2-1,0.3-1.4,0.3c-0.5,0.1-0.9,0.1-1.3,0.1c-0.4,0-0.7,0-1,0
			c-0.1,0-0.2,0-0.3,0c-0.1,0-0.2,0-0.3,0.1c-0.1,0-0.3,0-0.4,0c-0.1,0-0.3,0-0.6,0c-0.4,0-0.6-0.1-0.6-0.3c0-0.2,0.2-0.3,0.5-0.3
			c0.1,0,0.2,0,0.4,0c0.1,0,0.3,0.1,0.4,0.1c0.1,0,0.3,0.1,0.4,0.1c0.1,0,0.2,0,0.3,0c0.3,0,0.5-0.1,0.8-0.4
			c0.3-0.3,0.5-0.7,0.8-1.1c0.3-0.5,0.5-1,0.8-1.7c0.3-0.6,0.6-1.3,0.9-2c0.3-0.7,0.7-1.4,1.1-2.1c0.4-0.7,0.9-1.4,1.4-2.1
			s1.1-1.3,1.8-1.8c0.6-0.5,1.4-1,2.2-1.3l0,0c-0.6,0.2-1.3,0.4-1.9,0.7c-0.6,0.3-1.2,0.7-1.7,1.2c-0.5,0.4-1.1,1-1.6,1.5
			c-0.5,0.6-1,1.2-1.5,1.8c-0.5,0.6-1,1.3-1.6,2.1c-0.6,0.8-1.3,1.5-1.9,2.3c-0.7,0.7-1.4,1.4-2.1,2s-1.5,1.1-2.2,1.4L11.1,21.9z"/>
		<path d="M24.6,19.3c0.4,0,0.7,0.1,1,0.4c0.3,0.3,0.4,0.6,0.4,1c0,0.4-0.1,0.7-0.4,1s-0.6,0.4-1,0.4c-0.4,0-0.7-0.1-1-0.4
			s-0.4-0.6-0.4-1c0-0.4,0.1-0.7,0.4-1C23.8,19.4,24.2,19.3,24.6,19.3z"/>
	</g>
</g>
</svg>
