<svg width="78" height="78" viewBox="0 0 78 78" fill="none" xmlns="http://www.w3.org/2000/svg">
<g clip-path="url(#clip0_58_1003)">
<path opacity="0.05" d="M60.5549 67.8555H10.7207C6.30251 67.8555 2.729 64.313 2.729 59.9331V10.531C2.729 6.15111 6.30251 2.60858 10.7207 2.60858H60.5549C64.9731 2.60858 68.5466 6.15111 68.5466 10.531V59.9331C68.5466 64.2969 64.9568 67.8555 60.5549 67.8555Z" fill="#757ABF"/>
<path d="M35.4102 60.5611C26.4602 60.5611 21.9121 59.3856 18.6472 58.2263C15.5935 57.1313 14.1641 55.988 14.0504 54.5066C13.9692 53.5405 14.5377 52.7675 14.6351 52.6387C14.7001 52.5421 15.0412 52.1073 15.8371 51.5116C16.1295 51.2861 16.4706 51.0607 16.763 50.8997C16.5356 50.481 16.3894 49.9174 16.3732 49.386C16.3407 48.2267 16.8767 47.2927 16.9742 47.1156C17.0879 46.8902 17.8676 45.4732 19.3619 44.2816C19.833 43.8951 20.5477 43.3959 21.4573 42.8002C21.3923 42.6391 21.3598 42.4459 21.3436 42.2044V42.1883C21.3436 41.6891 21.6035 41.2543 21.6522 41.1738L21.6685 41.1577L21.6847 41.1416C21.7497 41.0611 22.3669 40.3043 23.2603 40.095C23.3253 40.0789 23.9263 39.9339 24.3648 39.9339H24.3811C25.4207 38.694 27.6785 35.8922 28.1333 35.071C28.6368 34.121 29.0429 32.2692 29.1241 31.931V30.4335C28.4419 30.3852 27.2237 30.2081 25.9892 29.725C23.8775 28.8877 23.6664 27.4546 23.6664 26.9554C23.5852 26.3757 23.7476 24.9265 25.4044 24.1858C25.8917 23.9604 26.4277 23.8315 26.8988 23.751C26.6714 23.5578 26.4115 23.3002 26.2003 23.0908L26.0379 22.9298C25.9242 22.8171 23.1628 20.1441 24.3648 15.9092C24.8846 14.0574 26.3465 12.3988 28.4581 11.2073C30.4561 10.0962 32.925 9.4682 35.394 9.4682C35.9138 9.4682 36.4336 9.50041 36.9371 9.54871C42.1187 10.1123 44.3927 13.6226 44.7176 14.154L44.7501 14.2023C45.3673 15.1523 46.6018 17.7448 44.7826 21.2874C44.2141 22.3823 43.4506 23.1713 42.7847 23.7027C43.3369 23.7832 43.9379 23.9121 44.474 24.1214C45.3186 24.4595 45.9683 25.1036 46.3095 25.941C46.3744 26.0698 46.4394 26.3435 46.4231 26.9393C46.3907 28.0343 45.7085 28.9843 44.5227 29.5318C43.4506 30.0149 42.3623 30.2242 41.7289 30.3208L41.6964 31.6412C41.6964 31.6412 41.7613 32.5912 43.272 35.4092C44.474 37.6635 45.4323 39.0483 45.8546 39.5958C45.9196 39.5958 46.0008 39.5958 46.0658 39.5958C46.3095 39.5958 46.5531 39.628 46.7805 39.6763H46.7967C47.3815 39.8373 47.7226 40.1594 47.8363 40.3043C48.3399 40.7552 48.5997 41.5764 48.6485 41.7374C48.7297 41.9789 48.7622 42.2044 48.7784 42.3654C49.3794 42.7841 50.8251 43.8146 51.5235 44.3782C52.4007 45.0867 53.424 46.3105 53.5539 46.4393C53.6676 46.5681 54.5285 47.5826 54.6097 48.9996C54.6585 49.7403 54.4473 50.4327 54.2849 50.8514L56.1204 52.3811L56.1529 52.4294C56.1853 52.4777 56.2178 52.526 56.2503 52.5743C56.5427 53.0252 56.6889 53.5405 56.6401 54.0718C56.5914 54.571 56.4615 56.1007 53.4077 57.7593C50.9875 59.0475 44.8151 60.5611 35.4102 60.5611Z" fill="url(#paint0_linear_58_1003)"/>
<path d="M35.3942 10.0479C35.8815 10.0479 36.385 10.0801 36.8723 10.1284C41.8102 10.6598 43.9868 14.0574 44.2305 14.476C44.2467 14.5082 44.263 14.5243 44.263 14.5243C44.8477 15.4261 45.936 17.7931 44.263 21.0458C43.1097 23.284 41.0306 24.1375 41.0306 24.1375C41.0306 24.1375 42.8823 24.1375 44.2467 24.6689C45.3675 25.1197 45.7249 26.0859 45.7736 26.1986C45.7736 26.1986 45.8548 26.3274 45.8386 26.9393C45.8223 27.6639 45.4162 28.5012 44.263 29.0326C42.7524 29.7089 41.1605 29.8377 41.1605 29.8377L41.1118 31.6412C41.1118 31.6412 41.1118 31.6412 41.1118 31.6573C41.1118 31.7539 41.193 32.7684 42.7524 35.6829C44.2467 38.4686 45.3675 39.95 45.5787 40.1916C45.7411 40.1755 45.8873 40.1594 46.0335 40.1594C46.2284 40.1594 46.4233 40.1755 46.6345 40.2238C47.1868 40.3687 47.4142 40.6907 47.4142 40.6907C47.8527 41.0611 48.0964 41.8984 48.0964 41.8984C48.2588 42.3654 48.1776 42.6391 48.1776 42.6391C48.1776 42.6391 50.2892 44.1205 51.1501 44.813C51.9947 45.4893 53.0343 46.7291 53.0993 46.8097C53.0993 46.8097 53.9439 47.7436 54.0252 49.0318C54.0901 50.0623 53.5866 51.0124 53.5866 51.0124L53.6028 51.0285L55.6982 52.7675C55.6982 52.7675 55.7469 52.8319 55.7632 52.8641C56.0068 53.2184 56.1043 53.621 56.0718 54.0235C56.0231 54.571 55.8119 55.8109 53.1318 57.2601C50.4516 58.6932 43.9706 59.9975 35.4104 59.9975C26.8502 59.9975 22.2534 58.9025 18.8423 57.6949C15.5449 56.5194 14.7003 55.4566 14.6191 54.4583C14.5541 53.6532 15.0901 52.9769 15.0901 52.9769C15.0901 52.9769 15.3825 52.5582 16.1784 51.9624C16.7632 51.5116 17.5266 51.1251 17.6078 51.0768C17.5104 51.0607 16.9581 50.4166 16.9419 49.386C16.9094 48.275 17.4779 47.4054 17.4779 47.4054C17.4779 47.4054 18.2088 45.9401 19.7195 44.7324C20.6128 44.0078 22.1559 43.0256 22.2534 42.9612C22.2047 42.9451 21.9285 42.768 21.9123 42.2044C21.9123 41.8501 22.1397 41.4959 22.1397 41.4959C22.1397 41.4959 22.6757 40.8196 23.4067 40.6424C23.4067 40.6424 23.9914 40.4975 24.3813 40.4975C24.5599 40.4975 24.6574 40.4975 24.6574 40.4975C24.6574 40.4975 28.036 36.4558 28.637 35.3286C29.238 34.2015 29.6928 31.9793 29.6928 31.9793V29.886C29.6928 29.886 27.9548 29.886 26.2005 29.1936C24.1539 28.3885 24.2351 26.9876 24.2351 26.9071C24.2188 26.8266 24.0402 25.4096 25.632 24.7011C26.6391 24.2502 27.8086 24.1858 28.3771 24.1858C28.5883 24.1858 28.702 24.2019 28.702 24.2019C28.702 24.2019 28.1822 24.0087 27.3863 23.4129C27.0289 23.1552 26.4929 22.5755 26.4441 22.5272C26.4279 22.5272 26.4279 22.5272 26.4279 22.5272C26.4279 22.5272 23.7803 20.0314 24.9173 16.0702C25.9406 12.4793 30.6024 10.0479 35.3942 10.0479ZM35.3942 8.92072C32.8277 8.92072 30.2613 9.56481 28.1822 10.7242C25.9406 11.9802 24.3813 13.7675 23.829 15.7642C22.5133 20.3212 25.5183 23.2196 25.6482 23.3485L25.7619 23.4612C25.567 23.5256 25.3721 23.6061 25.1772 23.6866C23.2442 24.54 23.0168 26.2469 23.1143 27.0037C23.1305 27.4546 23.2442 27.9376 23.4879 28.3563C23.9264 29.1936 24.7061 29.8216 25.8107 30.2564C26.834 30.6589 27.8411 30.8522 28.5883 30.9488V31.8827C28.4421 32.5429 28.0685 34.0566 27.6624 34.8295C27.305 35.5219 25.4371 37.8567 24.1376 39.4025C23.699 39.4348 23.2605 39.5475 23.163 39.5636C22.1072 39.8212 21.4087 40.6424 21.2788 40.8196L21.2463 40.8679L21.2138 40.9162C21.1164 41.0611 20.8077 41.5925 20.8077 42.2366V42.2527V42.2688C20.8077 42.3815 20.824 42.4942 20.8402 42.5908C20.0768 43.1061 19.4596 43.5409 19.0372 43.8951C17.5104 45.1189 16.682 46.5842 16.5195 46.8902C16.3571 47.1478 15.8048 48.1623 15.8373 49.4504C15.8373 49.8691 15.9348 50.32 16.0647 50.7225C15.886 50.8353 15.6911 50.9641 15.5125 51.109C14.684 51.7209 14.3105 52.204 14.1968 52.3489C14.0506 52.5421 13.4171 53.4438 13.5145 54.5871C13.6607 56.3262 15.1876 57.6144 18.485 58.7898C20.6128 59.5466 22.692 60.0619 25.0472 60.4484C28.036 60.9314 31.4308 61.1569 35.4429 61.1569C43.2721 61.1569 50.4354 60.0297 53.7003 58.2907C57.0302 56.4872 57.1763 54.732 57.2251 54.1684C57.2738 53.5082 57.1114 52.8803 56.754 52.3328C56.7215 52.2845 56.689 52.2201 56.6241 52.1556L56.5429 52.059L56.4454 51.9785L54.951 50.7386C55.0972 50.2717 55.2109 49.6759 55.1784 49.0318C55.081 47.4698 54.1551 46.3427 53.9764 46.1495C53.7977 45.9401 52.7744 44.7324 51.881 44.0078C51.2476 43.4926 49.9968 42.6069 49.3146 42.1239C49.2984 41.9789 49.2496 41.8018 49.1847 41.6247C49.1197 41.3831 48.8273 40.5297 48.2426 39.9822C47.9827 39.6924 47.5279 39.3542 46.9269 39.1932H46.9106H46.8944C46.6345 39.1288 46.3908 39.1127 46.1309 39.0966C45.6761 38.4686 44.8152 37.1643 43.7757 35.2159C42.4925 32.8167 42.2975 31.8344 42.2651 31.6895L42.2813 30.8844C42.9473 30.7556 43.8569 30.5301 44.734 30.1276C46.1309 29.4835 46.9431 28.3563 46.9594 27.0359C46.9756 26.4723 46.9269 26.0859 46.7969 25.8121C46.3908 24.846 45.6274 24.0892 44.6528 23.7027C44.4254 23.6222 44.1818 23.5417 43.9544 23.4773C44.4254 22.9781 44.8965 22.3823 45.2701 21.6416C47.2192 17.8414 45.8873 15.0235 45.2213 13.993L45.1888 13.9447C44.8152 13.3167 42.395 9.67753 37.0022 9.08174C36.4662 8.95292 35.9302 8.92072 35.3942 8.92072Z" fill="black"/>
<path d="M43.7595 21.1102C42.6712 23.0908 40.4783 23.9926 40.4783 23.9926H40.4946C40.2834 24.0892 37.8469 25.168 34.2247 25.1358C31.5445 25.1036 29.0431 23.912 29.0431 23.912C29.0431 23.912 29.0106 23.912 28.9619 23.912C28.8157 23.8476 28.3934 23.6544 27.7761 23.2357C27.435 22.9942 26.9315 22.4789 26.899 22.4467C25.9894 22.2696 33.4288 23.4129 38.1231 21.6094C43.2559 19.6449 44.2143 15.6998 44.2305 15.3778C44.7828 16.1829 45.3513 18.244 43.7595 21.1102Z" fill="#81027E"/>
<path d="M30.1151 32.1243C32.3242 32.5913 34.1759 32.6879 35.4916 32.6879C38.4316 32.6718 39.8773 32.1082 40.6894 31.7217C40.7057 31.7217 40.7057 31.7056 40.7219 31.7056L40.9168 29.9505C40.9168 29.9505 42.4599 29.8216 43.9218 29.1776C45.0426 28.6784 45.4325 27.8572 45.4487 27.1487C45.4649 26.6978 45.4325 26.5529 45.3675 26.4724C43.3533 27.4063 39.9422 28.6623 35.5403 28.8877C30.6186 29.1292 26.7527 27.9538 24.5924 27.1164L24.5599 27.1326C24.5599 27.1326 24.4137 28.5335 26.4604 29.3386C28.1659 30.0149 30.0988 29.9666 30.0988 29.9666L30.1151 32.1243Z" fill="#880680"/>
<path d="M23.5688 40.9967C24.5921 40.9645 25.6154 40.9484 26.6387 40.9162C26.8824 40.9645 27.1585 41.0128 27.4834 41.0611C29.3838 41.3992 32.4863 41.6891 35.7837 41.6891C39.1785 41.6891 42.1185 41.1738 43.3693 40.884C43.7428 40.8035 44.084 40.7068 44.3926 40.6102L46.8291 40.884C46.8291 40.884 46.959 40.8679 47.1377 40.9323C47.2676 40.9806 47.4301 41.0611 47.5762 41.2221L47.5925 41.2382C47.7062 41.3831 47.8199 41.5925 47.9498 41.9789C48.1123 42.4298 48.0311 42.7035 48.0311 42.7035V42.7518C47.7549 42.9129 44.2301 44.8935 35.7674 44.7969C29.1727 44.7324 22.7079 43.0256 22.7079 43.0256C22.6754 43.0095 22.2368 42.6874 22.2693 42.1722C22.2855 41.8662 22.448 41.673 22.5129 41.6086C22.5942 41.4959 22.7566 41.3348 22.984 41.1899C23.2439 41.0772 23.4388 41.0289 23.5688 40.9967Z" fill="#A1107C"/>
<path d="M17.2826 49.5954C17.2664 48.5487 17.7537 47.7275 17.8186 47.6309C18.0461 47.8402 22.448 51.6243 35.8649 51.7048C49.493 51.8014 53.3426 47.1639 53.4401 47.0351C53.5538 47.1639 54.2685 48.0495 54.3497 49.2411C54.4146 50.2556 53.9111 51.2217 53.9111 51.2217L53.9761 51.2861C53.9274 51.2539 53.9111 51.2378 53.9111 51.2378C53.9111 51.2378 48.0311 55.5372 34.6304 55.4244C21.8795 55.3278 17.9648 51.27 17.9648 51.27C17.9648 51.27 17.9648 51.27 17.9486 51.2861C17.8186 51.2217 17.3151 50.5937 17.2826 49.5954Z" fill="#CF3393"/>
<path d="M55.8118 53.7337C55.7631 54.2973 55.5519 55.5694 52.888 57.0186C50.2242 58.4839 43.7918 59.8043 35.3129 59.8043C26.8339 59.8043 22.2533 58.6932 18.8747 57.4695C15.5936 56.2779 14.8951 55.4083 14.8139 54.3939C14.7489 53.5566 15.5286 52.7192 15.5286 52.7192C15.5286 52.7192 16.958 57.7754 34.3383 57.872C50.9389 57.9847 55.2433 52.7192 55.4382 52.4616C55.4545 52.4777 55.5032 52.526 55.5032 52.5421C55.7468 52.9125 55.8443 53.3311 55.8118 53.7337Z" fill="#E548A8"/>
<path d="M47.804 41.6247C47.674 41.7696 44.8152 43.7824 36.2388 43.6375C27.5487 43.4926 23.2929 41.834 22.8706 41.6569L24.0401 41.4476C23.5528 41.3187 23.3092 41.2221 23.3092 41.2221C23.3092 41.2221 23.8614 40.6263 25.0959 40.6746C25.3721 40.6907 25.6157 40.739 26.769 40.9484C27.0126 40.9967 27.2888 41.045 27.6136 41.0933C29.5141 41.4153 32.5841 41.7213 35.8652 41.7213C39.2438 41.7213 42.1676 41.206 43.4021 40.9162C43.7594 40.8357 44.1005 40.739 44.4254 40.6424C44.8152 40.5297 45.1726 40.4331 45.5299 40.3848C45.5462 40.4009 45.5462 40.417 45.5462 40.417C45.5462 40.417 46.5857 40.3687 46.9918 40.6102C47.0893 40.6746 47.203 40.7713 47.3004 40.884C47.4141 41.0128 47.4953 41.1416 47.5766 41.2704C47.7227 41.4637 47.804 41.6247 47.804 41.6247Z" fill="#A1107C"/>
<path d="M55.6166 52.8642C55.6004 52.8642 55.6004 52.8642 55.6004 52.8642L53.5537 51.1734C53.6999 51.2539 54.0248 51.4632 54.4633 51.8014C55.0643 52.2523 55.6166 52.8642 55.6166 52.8642Z" fill="#5E6367"/>
<path opacity="0.93" d="M32.4214 13.6226C30.6672 14.4922 28.5718 17.0363 28.0033 17.6965C27.4348 18.3406 27.0612 18.4211 26.785 18.2762C26.5089 18.1313 25.6155 17.777 26.4114 15.7159C27.2074 13.6709 29.3352 12.3666 30.3585 11.8997C31.3819 11.4166 32.7463 11.0945 33.7371 11.5293C34.9879 12.0768 34.3056 12.6887 32.4214 13.6226Z" fill="white"/>
<path opacity="0.93" d="M32.4701 26.9876C32.5188 27.9376 30.4072 27.7927 29.0915 27.7444C27.9382 27.6961 25.6804 27.3741 25.047 26.6656C24.9657 26.5689 24.9008 26.4723 24.8845 26.3596C24.7221 25.4418 26.0703 25.0231 26.9474 25.0875C27.8408 25.1519 27.386 25.3291 27.4672 25.6028C27.4997 25.7155 27.6296 25.8604 28.0032 26.0054C29.2539 26.5206 32.4376 26.0376 32.4701 26.9876Z" fill="white"/>
<path opacity="0.93" d="M47.1866 40.7552C47.1541 40.7713 47.1054 40.8035 47.0241 40.8518C46.2445 41.2704 42.7197 42.9773 35.9463 42.768C29.7089 42.5908 25.8917 41.7213 24.3973 41.3026C23.9263 41.1738 23.6826 41.0933 23.6826 41.0933C23.6826 41.0933 24.2186 40.5136 25.4206 40.5619C25.6968 40.578 25.9404 40.6263 27.0612 40.8357C27.2886 40.884 27.5647 40.9323 27.8896 40.9806C29.7413 41.3026 32.7463 41.5925 35.9625 41.5925C39.2599 41.5925 42.1187 41.0933 43.3369 40.8196C43.6943 40.7391 44.0191 40.6424 44.344 40.5619C44.7176 40.4492 45.075 40.3526 45.4161 40.3043C45.7572 40.256 46.0983 40.256 46.4231 40.3365C46.9592 40.4331 47.1866 40.7552 47.1866 40.7552Z" fill="white"/>
<path opacity="0.93" d="M26.363 48.6131C26.363 49.4505 23.553 49.4666 21.7337 48.9674C19.752 48.4199 19.3947 47.8563 19.2647 47.3572C19.0211 46.3749 21.0515 44.813 22.0748 45.0223C23.1469 45.2477 22.8058 45.9401 23.3093 46.6808C23.9266 47.6309 26.363 47.5343 26.363 48.6131Z" fill="white"/>
<path opacity="0.93" d="M24.8684 56.5999C21.4574 56.1168 19.0696 55.0541 17.5915 54.3134C16.2108 53.621 16.1945 52.7837 16.6656 52.3811C17.3478 51.8014 18.0788 52.4616 18.4848 52.687C19.1183 53.0413 20.0929 53.5566 23.2279 54.5066C28.5719 56.133 31.5931 55.4405 31.7393 56.0524C31.9667 56.9381 28.3445 57.0991 24.8684 56.5999Z" fill="white"/>
<path d="M60.5547 69.7395H10.3469C4.98662 69.7395 0.617188 65.4079 0.617188 60.0941V10.3216C0.617188 5.00784 4.98662 0.6763 10.3469 0.6763H60.5547C65.915 0.6763 70.2844 5.00784 70.2844 10.3216V60.0941C70.2844 65.4079 65.915 69.7395 60.5547 69.7395ZM10.3469 3.89678C6.77337 3.89678 3.86583 6.77911 3.86583 10.3216V60.0941C3.86583 63.6367 6.77337 66.519 10.3469 66.519H60.5547C64.1282 66.519 67.0358 63.6367 67.0358 60.0941V10.3216C67.0358 6.77911 64.1282 3.89678 60.5547 3.89678H10.3469Z" fill="url(#paint1_linear_58_1003)" stroke="black" stroke-miterlimit="10"/>
<g opacity="0.08">
<path d="M77.3178 64.2647L76.928 65.4562C76.1483 67.8716 74.8326 70.1259 73.1108 71.9777L72.2662 72.8955C72.12 73.0566 71.8764 73.0727 71.7139 72.9439L70.7393 72.1709C70.0084 71.6074 69.0663 71.3497 68.1404 71.4785C67.2308 71.6074 66.4186 72.0743 65.8664 72.7989C65.3141 73.5235 65.0704 74.4253 65.2004 75.327L65.3791 76.5508C65.4116 76.7601 65.2816 76.9534 65.0704 77.0017L63.8522 77.2754C62.634 77.533 61.367 77.678 60.1325 77.678C58.833 77.678 57.5173 77.533 56.2504 77.2432L55.0321 76.9695C54.821 76.9211 54.691 76.7279 54.7235 76.5186L54.9022 75.2948C55.1133 73.9261 54.4636 72.5896 53.2616 71.9133C52.0434 71.2209 50.549 71.3175 49.4445 72.187L48.4536 72.9439C48.2912 73.0727 48.0475 73.0566 47.9013 72.8955L47.0567 71.9777C45.3512 70.1259 44.0517 67.8716 43.3208 65.4723L42.9634 64.2969C42.8984 64.1036 42.9959 63.8943 43.1908 63.8138L44.3278 63.3468C45.6273 62.8315 46.4719 61.5917 46.4719 60.2069C46.4882 58.8382 45.6598 57.6144 44.3928 57.0991L43.2395 56.616C43.0446 56.5355 42.9472 56.3262 43.0121 56.1168L43.402 54.9414C44.1816 52.5421 45.4974 50.3039 47.2191 48.4682L48.0475 47.5665C48.1937 47.4055 48.4211 47.3894 48.5998 47.5182L49.5744 48.2589C50.2891 48.8064 51.1825 49.0318 52.0759 48.9352C52.9855 48.8225 53.8139 48.3716 54.3662 47.647C54.9347 46.9224 55.1783 46.0368 55.0809 45.1189L54.9184 43.9112C54.8859 43.7019 55.0321 43.5087 55.2433 43.4604L56.4453 43.2027C58.9143 42.6552 61.5457 42.6552 64.0146 43.2027L65.2329 43.4765C65.444 43.5248 65.574 43.718 65.5415 43.9273L65.3791 45.1511C65.1841 46.5037 65.8339 47.8241 67.0359 48.5004C68.2541 49.1928 69.7485 49.0962 70.853 48.2428L71.8276 47.486C71.9901 47.3571 72.2337 47.3732 72.3799 47.5343L73.2245 48.436C74.9463 50.2878 76.2458 52.526 77.0092 54.9253L77.3828 56.1007C77.4478 56.294 77.3503 56.5194 77.1392 56.5999L75.9859 57.0669C74.6702 57.5822 73.8255 58.8221 73.8093 60.2069C73.7931 61.5756 74.6377 62.8315 75.9209 63.3307L77.0904 63.7977C77.2691 63.846 77.3828 64.0553 77.3178 64.2647Z" fill="#2E3192"/>
</g>
<g opacity="0.4">
<path d="M75.6933 63.3629L75.3035 64.5545C74.5238 66.9699 73.2081 69.2242 71.4863 71.076L70.6417 71.9938C70.4955 72.1548 70.2518 72.1709 70.0894 72.0421L69.1148 71.2692C68.3839 70.7056 67.4418 70.448 66.5159 70.5768C65.6063 70.7056 64.7941 71.1726 64.2418 71.8972C63.6896 72.6218 63.4459 73.5235 63.5759 74.4253L63.7546 75.6491C63.787 75.8584 63.6571 76.0516 63.4459 76.0999L62.2277 76.3737C61.0094 76.6313 59.7425 76.7762 58.508 76.7762C57.2085 76.7762 55.8928 76.6313 54.6259 76.3415L53.4076 76.0677C53.1965 76.0194 53.0665 75.8262 53.099 75.6168L53.2777 74.3931C53.4888 73.0244 52.8391 71.6879 51.6371 71.0116C50.4189 70.3192 48.9245 70.4158 47.8199 71.2853L46.8291 72.0421C46.6667 72.1709 46.423 72.1548 46.2768 71.9938L45.4322 71.076C43.7267 69.2242 42.4272 66.9699 41.6962 64.5706L41.3389 63.3951C41.2739 63.2019 41.3714 62.9926 41.5663 62.9121L42.7196 62.4451C44.019 61.9298 44.8637 60.6899 44.8637 59.3051C44.8799 57.9364 44.0515 56.7126 42.7845 56.1974L41.6313 55.7143C41.4364 55.6338 41.3389 55.4244 41.4039 55.2151L41.7937 54.0396C42.5734 51.6404 43.8891 49.4021 45.6109 47.5665L46.4393 46.6647C46.5855 46.5037 46.8129 46.4876 46.9915 46.6164L47.9661 47.3571C48.6808 47.9046 49.5742 48.1301 50.4676 48.0334C51.3772 47.9207 52.2056 47.4699 52.7579 46.7452C53.3264 46.0206 53.57 45.135 53.4726 44.2172L53.3102 43.0095C53.2777 42.8002 53.4239 42.6069 53.635 42.5586L54.837 42.301C57.306 41.7535 59.9374 41.7535 62.4064 42.301L63.6246 42.5747C63.8358 42.623 63.9657 42.8163 63.9332 43.0256L63.7708 44.2494C63.5759 45.602 64.2256 46.9224 65.4276 47.5987C66.6458 48.2911 68.1402 48.1945 69.2448 47.341L70.2194 46.5842C70.3818 46.4554 70.6254 46.4715 70.7716 46.6325L71.6163 47.5343C73.3381 49.386 74.6375 51.6243 75.401 54.0235L75.7745 55.199C75.8395 55.3922 75.7421 55.6177 75.5309 55.6982L74.3776 56.1652C73.0619 56.6804 72.2173 57.9203 72.201 59.3051C72.1848 60.6738 73.0294 61.9298 74.3127 62.429L75.4822 62.896C75.6608 62.9443 75.7583 63.1697 75.6933 63.3629Z" fill="#EDF0F2"/>
</g>
<path d="M64.8105 55.7465C62.8288 52.3167 58.3944 51.1412 54.9346 53.1057C51.4748 55.0702 50.289 59.4661 52.2707 62.896C54.2524 66.3258 58.6706 67.5012 62.1304 65.5367C65.5902 63.5562 66.7922 59.1763 64.8105 55.7465ZM60.636 62.9443C58.6056 64.1036 56.0229 63.4112 54.8534 61.3984C53.6839 59.3856 54.3823 56.8254 56.4127 55.666C58.4431 54.5066 61.0258 55.199 62.1953 57.2118C63.3648 59.1924 62.6826 61.7527 60.6847 62.9121C60.6685 62.9282 60.6522 62.9443 60.636 62.9443Z" fill="url(#paint2_linear_58_1003)" stroke="black" stroke-miterlimit="10"/>
<path d="M71.7788 59.289C71.795 57.7432 72.7533 56.3423 74.199 55.7787L75.3523 55.3117L74.9787 54.1362C74.2315 51.7853 72.9808 49.6115 71.2752 47.7919L70.4306 46.8902L69.456 47.6309C68.2215 48.5809 66.5322 48.6936 65.184 47.9207C63.8521 47.1639 63.1049 45.6664 63.3323 44.1689L63.4947 42.9451L62.2765 42.6874C59.84 42.1561 57.3223 42.1561 54.8858 42.6874L53.6838 42.9451L53.8462 44.1528C54.1061 46.2461 52.5955 48.1623 50.4839 48.4199C49.493 48.5487 48.486 48.275 47.69 47.6631L46.7154 46.9224L45.887 47.8241C44.1977 49.6437 42.9308 51.8014 42.1673 54.1523L41.7775 55.3278L42.9308 55.8109C44.3439 56.3906 45.2698 57.7754 45.2536 59.289C45.2373 60.8348 44.2952 62.2196 42.8496 62.7993L41.6963 63.2663L42.0536 64.4418C42.7846 66.8088 44.0353 68.9666 45.7084 70.8022L46.553 71.7201L47.5439 70.9633C48.7783 70.0132 50.4676 69.8844 51.8158 70.6573C53.164 71.4302 53.895 72.9277 53.6675 74.4575L53.4889 75.6813L54.7071 75.955C55.9578 76.2287 57.2248 76.3737 58.508 76.3737C59.7263 76.3737 60.9445 76.2448 62.1465 75.9872L63.3648 75.7296L63.1861 74.5058C62.8937 72.4125 64.3556 70.4963 66.4672 70.2064C67.5068 70.0615 68.5626 70.3514 69.3748 70.9955L70.3493 71.7684L71.194 70.8505C72.8995 69.0149 74.1665 66.841 74.9299 64.4901L75.3198 63.2985L74.1503 62.8315C72.7046 62.2197 71.7625 60.8187 71.7788 59.289ZM69.9595 68.1453C66.7271 66.5351 62.78 67.8233 61.1557 71.0277C60.7496 71.8167 60.5222 72.6701 60.4735 73.5396C59.1253 73.7168 57.7608 73.7168 56.4127 73.5235C56.299 71.3497 55.0807 69.4013 53.1803 68.3225C51.2798 67.2436 48.9733 67.1631 47.0078 68.1292C46.1794 67.0826 45.5134 65.9071 45.0099 64.6672C46.8291 63.4756 47.9337 61.4628 47.9499 59.289C47.9662 57.1474 46.8941 55.1346 45.1074 53.9269C45.6109 52.6709 46.3094 51.5116 47.1378 50.4488C50.4027 52.0268 54.3335 50.6742 55.9091 47.4538C56.2665 46.713 56.4939 45.9079 56.5588 45.0867C57.907 44.8935 59.2715 44.8935 60.6197 45.0867C60.8633 48.6453 63.9658 51.3344 67.5555 51.0929C68.4164 51.0285 69.2611 50.8031 70.0245 50.4327C70.4468 50.9641 70.8366 51.5277 71.1778 52.1234C71.5026 52.687 71.795 53.2828 72.0386 53.8947C70.2032 55.0863 69.0986 57.0991 69.0824 59.2729C69.0661 61.4467 70.1544 63.4756 71.9899 64.6672C71.4701 65.9071 70.7879 67.0826 69.9595 68.1453Z" fill="url(#paint3_linear_58_1003)" stroke="black" stroke-miterlimit="10"/>
</g>
<defs>
<linearGradient id="paint0_linear_58_1003" x1="35.3459" y1="9.4682" x2="35.3459" y2="60.5611" gradientUnits="userSpaceOnUse">
<stop stop-color="#A92CC7"/>
<stop offset="1" stop-color="#FF77D8"/>
</linearGradient>
<linearGradient id="paint1_linear_58_1003" x1="67.4297" y1="3.5063" x2="4.02888" y2="67.4616" gradientUnits="userSpaceOnUse">
<stop stop-color="#0000E6"/>
<stop offset="1" stop-color="#FF7FFF"/>
</linearGradient>
<linearGradient id="paint2_linear_58_1003" x1="53.4239" y1="54.2494" x2="63.5574" y2="64.4716" gradientUnits="userSpaceOnUse">
<stop stop-color="#7500FF"/>
<stop offset="1" stop-color="#FF84FF"/>
</linearGradient>
<linearGradient id="paint3_linear_58_1003" x1="46.3581" y1="47.2766" x2="70.4947" y2="71.6243" gradientUnits="userSpaceOnUse">
<stop stop-color="#7500FF"/>
<stop offset="1" stop-color="#FF84FF"/>
</linearGradient>
<clipPath id="clip0_58_1003">
<rect width="78" height="78" fill="white"/>
</clipPath>
</defs>
</svg>
