<svg width="71" height="71" viewBox="0 0 71 71" fill="none" xmlns="http://www.w3.org/2000/svg">
<g clip-path="url(#clip0_58_1080)">
<path d="M52.7295 70.0749H18.5015C9.01944 70.0749 1.15625 62.2117 1.15625 52.7297V18.5016C1.15625 9.01956 9.01944 1.15637 18.5015 1.15637H52.7295C62.2116 1.15637 70.0748 9.01956 70.0748 18.5016V52.7297C70.0748 62.2117 62.2116 70.0749 52.7295 70.0749Z" fill="#EDEDED"/>
<path d="M25.6712 50.6482C26.5963 49.2606 27.2901 47.6417 27.9839 46.0228C28.6777 44.4039 29.1403 42.5538 29.8341 40.7036C30.5279 38.8535 31.2217 37.0033 31.9155 35.3844C32.6093 33.5342 33.7657 31.9153 34.922 30.0652C36.0784 28.4463 37.466 26.8274 39.0849 25.2085C40.7038 23.5896 42.7852 22.4333 45.0979 21.0456C42.7852 21.9707 40.4725 23.1271 38.6224 24.5147C36.7722 25.9023 34.922 27.5212 33.5344 29.1401C31.9155 30.759 30.7592 32.3779 29.6028 33.7655C28.4465 35.3844 27.5214 36.5407 26.8276 37.6971C25.44 39.7785 24.0523 41.3974 22.896 43.0163C21.7396 44.6352 20.352 46.0228 19.1957 47.1792C17.808 48.3355 16.6517 49.2606 15.0328 49.9544C13.4139 50.6482 11.795 50.8795 10.1761 50.8795C9.25103 50.8795 8.55722 50.8795 7.86341 50.6482C7.1696 50.417 6.47579 50.1857 6.01325 49.7232C5.55071 49.2606 4.8569 48.5668 4.62563 48.1043C4.39436 47.4104 4.16309 46.7166 4.16309 45.7916C4.16309 44.8665 4.39436 44.1727 5.08817 43.4789C5.55071 42.785 6.24452 42.5538 7.1696 42.5538C7.86341 42.5538 8.55722 42.785 9.01976 43.2476C9.4823 43.7101 9.71357 44.4039 9.71357 45.0977C9.71357 45.7916 9.4823 46.2541 9.25103 46.7166C9.01976 47.1792 8.32595 47.4105 7.86341 47.4105C8.09468 48.3355 8.32595 49.0293 8.78849 49.4919C9.25103 49.9544 9.94484 50.1857 10.8699 50.1857C12.4888 50.1857 14.1077 49.7232 15.4953 49.0293C16.883 48.1043 18.2706 47.1792 19.6582 45.7916C21.0458 44.4039 22.4334 42.785 23.8211 40.7036C25.2087 38.8535 26.8276 36.772 28.4465 34.6906C29.6028 32.8404 30.9904 31.2215 32.3781 29.8339C33.7657 28.215 35.1533 26.8274 36.7722 25.671C38.3911 24.5147 40.01 23.3583 41.8602 22.4333C43.7103 21.5082 45.5605 20.5831 47.8732 20.1206L48.1045 20.5831C46.7168 20.8144 45.3292 21.9707 44.1729 23.1271C43.0165 24.2834 42.0914 25.671 41.3976 27.2899C40.7038 28.6776 39.7787 30.2964 39.3162 31.9153C38.6224 33.5342 37.9286 35.3844 37.2347 37.0033C36.5409 38.8534 35.6159 40.4723 34.6908 42.3225C33.7657 44.1727 32.3781 45.7916 30.7592 47.4105C31.9155 46.4854 32.8406 45.5603 33.7657 44.6352C34.6908 43.7101 35.6159 42.5538 36.7722 41.3974C37.9286 40.2411 39.0849 38.8535 40.2413 37.2346C41.6289 35.6157 43.0165 33.7655 44.6354 31.4528C45.7917 29.8339 47.1794 28.215 48.567 26.8274C49.9546 25.4398 51.5735 24.2834 52.9611 23.1271C54.58 22.202 56.1989 21.2769 58.0491 20.8144C59.8992 20.1206 61.7494 19.8893 63.8308 19.8893C64.9872 19.8893 65.681 19.8893 66.1435 20.1206C66.8373 20.3518 67.0686 20.5831 67.0686 21.0456C67.0686 21.2769 66.8373 21.2769 66.6061 21.5082C66.3748 21.7394 66.1435 21.7394 65.681 21.7394C65.2185 21.7394 64.7559 21.7394 64.5246 21.7394C64.2934 21.7394 63.8308 21.7394 63.5996 21.5082C63.3683 21.5082 63.137 21.5082 62.6745 21.2769C62.2119 21.2769 61.9807 21.2769 61.7494 21.2769C61.2869 21.2769 60.593 21.5082 60.1305 21.9707C59.4367 22.4333 58.7429 23.1271 58.2803 24.0521C57.8178 24.9772 56.8927 25.9023 56.1989 27.2899C55.5051 28.4463 54.8113 29.8339 54.3488 31.4528C53.4237 33.9968 52.4986 36.0782 51.5735 38.1596C50.6484 40.0098 49.7233 41.86 48.567 43.4789C47.4106 45.0977 46.023 46.4854 44.4041 47.6417C42.7852 48.7981 40.9351 49.9544 38.6224 50.6482C40.2413 50.6482 41.8601 50.417 43.479 50.1857C45.0979 49.9544 46.7168 49.4919 48.1045 48.7981C49.7233 48.1043 51.111 47.1792 52.4986 45.7916C53.8862 44.4039 55.5051 42.3225 57.124 39.7785L57.5865 40.0098C56.4302 42.0912 55.0426 43.9414 53.8862 45.329C52.7299 46.7166 51.3422 47.873 49.9546 48.5668C48.7983 49.2606 47.8732 49.7232 46.7168 49.9544C45.5605 50.417 44.4041 50.6482 43.479 50.6482C42.3227 50.8795 41.3976 50.8795 40.4725 50.8795C39.5474 50.8795 38.8536 50.8795 38.1598 50.8795C37.9286 50.8795 37.6973 50.8795 37.466 50.8795C37.2347 50.8795 37.0035 50.8795 36.7722 51.1108C36.5409 51.1108 36.0784 51.1108 35.8471 51.1108C35.6159 51.1108 35.1533 51.1108 34.4595 51.1108C33.5344 51.1108 33.0719 50.8795 33.0719 50.417C33.0719 49.9544 33.5344 49.7232 34.2282 49.7232C34.4595 49.7232 34.6908 49.7232 35.1533 49.7232C35.3846 49.7232 35.8471 49.9544 36.0784 49.9544C36.3097 49.9544 36.7722 50.1857 37.0035 50.1857C37.2347 50.1857 37.466 50.1857 37.6973 50.1857C38.3911 50.1857 38.8536 49.9544 39.5474 49.2606C40.2413 48.5668 40.7038 47.6417 41.3976 46.7166C42.0914 45.5603 42.554 44.4039 43.2478 42.785C43.9416 41.3974 44.6354 39.7785 45.3292 38.1596C46.023 36.5407 46.9481 34.9219 47.8732 33.303C48.7983 31.6841 49.9546 30.0652 51.111 28.4463C52.2673 26.8274 53.6549 25.4398 55.2738 24.2834C56.6615 23.1271 58.5116 21.9707 60.3618 21.2769C58.9742 21.7394 57.3553 22.202 55.9676 22.8958C54.58 23.5896 53.1924 24.5147 52.036 25.671C50.8797 26.5961 49.4921 27.9837 48.3357 29.1401C47.1794 30.5277 46.023 31.9153 44.8667 33.303C43.7103 34.6906 42.554 36.3095 41.1663 38.1596C39.7787 40.0098 38.1598 41.6287 36.7722 43.4789C35.1533 45.0977 33.5344 46.7166 31.9155 48.1043C30.2966 49.4919 28.4465 50.6482 26.8276 51.342L25.6712 50.6482Z" fill="black"/>
<path d="M56.8926 44.6352C57.8177 44.6352 58.5115 44.8665 59.2053 45.5603C59.8991 46.2541 60.1304 46.9479 60.1304 47.873C60.1304 48.7981 59.8991 49.4919 59.2053 50.1857C58.5115 50.8795 57.8177 51.1108 56.8926 51.1108C55.9675 51.1108 55.2737 50.8795 54.5799 50.1857C53.8861 49.4919 53.6548 48.7981 53.6548 47.873C53.6548 46.9479 53.8861 46.2541 54.5799 45.5603C55.0424 44.8665 55.9675 44.6352 56.8926 44.6352Z" fill="black"/>
<g clip-path="url(#clip1_58_1080)">
<path d="M15.7773 0H54.2227C62.9316 0 70 7.06836 70 15.7773V54.2227C70 62.9316 62.9316 70 54.2227 70H15.7773C7.06836 70 0 62.9316 0 54.2227V15.7773C0 7.06836 7.06836 0 15.7773 0Z" fill="url(#paint0_linear_58_1080)"/>
<path d="M17.541 23.2285L11.3477 19.0449C16.666 11.1699 25.5117 6.4668 35.0137 6.4668C37.625 6.4668 40.2227 6.82227 42.7246 7.51953L40.7148 14.7246C38.8691 14.2051 36.9551 13.9453 35.0273 13.9453C28 13.9453 21.4648 17.418 17.541 23.2285Z" fill="white" stroke="#27AAE1" stroke-miterlimit="10" stroke-linecap="round" stroke-linejoin="round"/>
<g opacity="0.7">
<path d="M11.4023 51.0508C8.17578 46.3066 6.4668 40.7559 6.4668 35C6.4668 29.2852 8.14844 23.7617 11.3477 19.0449L17.541 23.2285C15.1895 26.7148 13.9453 30.7754 13.9453 35C13.9453 39.252 15.2031 43.3398 17.582 46.8398L11.4023 51.0508Z" fill="white" stroke="#27AAE1" stroke-miterlimit="10" stroke-linecap="round" stroke-linejoin="round"/>
</g>
<g opacity="0.5">
<path d="M35 63.5332C25.5527 63.5332 16.7344 58.8711 11.4023 51.0508L17.582 46.8398C21.5195 52.6094 28.0273 56.0547 35 56.0547C39.8809 56.0547 44.6387 54.3457 48.3984 51.2422L53.1562 57.0117C48.0566 61.2227 41.6172 63.5332 35 63.5332Z" fill="white" stroke="#27AAE1" stroke-miterlimit="10" stroke-linecap="round" stroke-linejoin="round"/>
</g>
<g opacity="0.3">
<path d="M53.1562 57.0117L48.3984 51.2422C53.2656 47.2363 56.0547 41.3027 56.0547 35C56.0547 31.6777 55.3027 28.4922 53.8125 25.5391L60.498 22.1758C62.5078 26.1816 63.5332 30.4883 63.5332 35C63.5332 43.5449 59.7461 51.5703 53.1562 57.0117Z" fill="white" stroke="#27AAE1" stroke-miterlimit="10" stroke-linecap="round" stroke-linejoin="round"/>
</g>
<g opacity="0.1">
<path d="M53.8125 25.5391C51.1465 20.248 46.3613 16.3105 40.6875 14.7109L42.7109 7.51953C50.4082 9.67969 56.9023 15.0117 60.498 22.1758L53.8125 25.5391Z" fill="white" stroke="#27AAE1" stroke-miterlimit="10" stroke-linecap="round" stroke-linejoin="round"/>
</g>
<path opacity="0.1" d="M35 54.8926C45.9562 54.8926 54.8379 46.0109 54.8379 35.0547C54.8379 24.0985 45.9562 15.2168 35 15.2168C24.0438 15.2168 15.1621 24.0985 15.1621 35.0547C15.1621 46.0109 24.0438 54.8926 35 54.8926Z" fill="white"/>
<path d="M25.7031 26.2773C29.2168 26.2773 31.4316 26.9746 32.9766 28.4375C34.1934 29.627 35.0957 31.377 35.0957 33.7559C35.0957 36.668 33.9063 39.0332 31.9785 40.4687C30.0918 41.8906 27.6719 42.4375 24.6094 42.4375H18.7852V41.7402C20.918 41.5352 21.0273 41.3711 21.0273 39.3203V29.3945C21.0273 27.2617 20.7266 27.1523 18.7852 26.9609V26.2637L25.7031 26.2773ZM23.1875 39.1426C23.1875 41.002 23.9805 41.5352 25.8535 41.5352C30.3379 41.5352 32.6211 38.4727 32.6211 34.125C32.6211 31.418 31.7051 29.3535 29.7363 28.1504C28.5879 27.4258 27.1523 27.1523 25.4844 27.1523C24.3633 27.1523 23.7617 27.3027 23.5156 27.5078C23.2969 27.6582 23.1875 27.9316 23.1875 28.9023V39.1426Z" fill="white"/>
<path d="M42.3555 31.2266C45.4727 31.2266 47.7832 33.5918 47.7832 36.8047C47.7832 40.8379 44.8027 42.752 42.3555 42.752C38.9238 42.752 36.832 39.9902 36.832 37.2012C36.832 33.1406 39.9902 31.2266 42.3555 31.2266ZM42.0547 32.0742C40.5371 32.0742 39.1699 33.5371 39.1699 36.4355C39.1699 39.5938 40.5645 41.8906 42.6016 41.8906C44.1465 41.8906 45.4453 40.7695 45.4453 37.3652C45.4453 34.4395 44.2422 32.0742 42.0547 32.0742Z" fill="white"/>
<path d="M50.4629 42.8066C49.5742 42.8066 48.9453 42.1641 48.9453 41.2207C48.9453 40.332 49.5605 39.6348 50.4629 39.6348C51.3516 39.6348 52.0352 40.332 52.0352 41.2207C52.0352 42.1504 51.3652 42.8066 50.4629 42.8066Z" fill="white"/>
</g>
</g>
<defs>
<linearGradient id="paint0_linear_58_1080" x1="35" y1="0" x2="35" y2="70" gradientUnits="userSpaceOnUse">
<stop stop-color="#39DBFF"/>
<stop offset="0.1678" stop-color="#3ACFF7"/>
<stop offset="1" stop-color="#3C95D0"/>
</linearGradient>
<clipPath id="clip0_58_1080">
<rect width="71" height="71" fill="white"/>
</clipPath>
<clipPath id="clip1_58_1080">
<rect width="70" height="70" fill="white"/>
</clipPath>
</defs>
</svg>
