<svg width="70" height="70" viewBox="0 0 70 70" fill="none" xmlns="http://www.w3.org/2000/svg">
<path d="M64.4582 20.6818H5.5415V62.4793C5.5415 66.2396 8.74984 69.4214 12.8332 69.4214H57.1665C61.2498 69.4214 64.604 66.2396 64.604 62.4793V20.6818H64.4582Z" fill="#636864"/>
<path d="M57.1665 1.01245H12.8332C8.74984 1.01245 5.5415 4.3389 5.5415 8.24386V24.5868H64.604V8.24386C64.4582 4.3389 61.2498 1.01245 57.1665 1.01245Z" fill="#424242"/>
<path d="M58.7708 20.9711H11.2292C10.0625 20.9711 9.1875 20.1033 9.1875 18.657V7.08675C9.1875 5.64047 9.91667 4.77271 11.2292 4.77271H58.7708C59.9375 4.77271 60.8125 5.64047 60.8125 7.08675V18.657C60.8125 20.1033 59.9375 20.9711 58.7708 20.9711Z" fill="#7FCC66"/>
<path d="M58.7708 33.6984H52.7917C51.625 33.6984 50.75 32.9752 50.75 31.9628V28.4918C50.75 27.4794 51.4792 26.7562 52.7917 26.7562H58.7708C59.9375 26.7562 60.8125 27.4794 60.8125 28.4918V31.9628C60.8125 32.9752 59.9375 33.6984 58.7708 33.6984Z" fill="#FFF257"/>
<path d="M17.2083 33.6984H11.2292C10.0625 33.6984 9.1875 32.9752 9.1875 31.9628V28.4918C9.1875 27.4794 9.91667 26.7562 11.2292 26.7562H17.2083C18.375 26.7562 19.25 27.4794 19.25 28.4918V31.9628C19.1042 32.9752 18.375 33.6984 17.2083 33.6984Z" fill="#E0E0E0"/>
<path d="M31.0623 33.6984H25.0832C23.9165 33.6984 23.0415 32.9752 23.0415 31.9628V28.4918C23.0415 27.4794 23.7707 26.7562 25.0832 26.7562H31.0623C32.229 26.7562 33.104 27.4794 33.104 28.4918V31.9628C32.9582 32.9752 32.229 33.6984 31.0623 33.6984Z" fill="#E0E0E0"/>
<path d="M44.9168 33.6984H38.9377C37.771 33.6984 36.896 32.9752 36.896 31.9628V28.4918C36.896 27.4794 37.6252 26.7562 38.9377 26.7562H44.9168C46.0835 26.7562 46.9585 27.4794 46.9585 28.4918V31.9628C46.9585 32.9752 46.0835 33.6984 44.9168 33.6984Z" fill="#E0E0E0"/>
<path d="M17.2083 44.1116H11.2292C10.0625 44.1116 9.1875 43.3884 9.1875 42.376V38.905C9.1875 37.8926 9.91667 37.1694 11.2292 37.1694H17.2083C18.375 37.1694 19.25 37.8926 19.25 38.905V42.376C19.1042 43.5331 18.375 44.1116 17.2083 44.1116Z" fill="#E0E0E0"/>
<path d="M31.0623 44.1116H25.0832C23.9165 44.1116 23.0415 43.3884 23.0415 42.376V38.905C23.0415 37.8926 23.7707 37.1694 25.0832 37.1694H31.0623C32.229 37.1694 33.104 37.8926 33.104 38.905V42.376C32.9582 43.5331 32.229 44.1116 31.0623 44.1116Z" fill="#E0E0E0"/>
<path d="M44.9168 44.1116H38.9377C37.771 44.1116 36.896 43.3884 36.896 42.376V38.905C36.896 37.8926 37.6252 37.1694 38.9377 37.1694H44.9168C46.0835 37.1694 46.9585 37.8926 46.9585 38.905V42.376C46.9585 43.5331 46.0835 44.1116 44.9168 44.1116Z" fill="#E0E0E0"/>
<path d="M17.2083 54.6694H11.2292C10.0625 54.6694 9.1875 53.9463 9.1875 52.9339V49.4628C9.1875 48.4504 9.91667 47.7273 11.2292 47.7273H17.2083C18.375 47.7273 19.25 48.4504 19.25 49.4628V52.9339C19.1042 53.9463 18.375 54.6694 17.2083 54.6694Z" fill="#E0E0E0"/>
<path d="M31.0623 54.6694H25.0832C23.9165 54.6694 23.0415 53.9463 23.0415 52.9339V49.4628C23.0415 48.4504 23.7707 47.7273 25.0832 47.7273H31.0623C32.229 47.7273 33.104 48.4504 33.104 49.4628V52.9339C32.9582 53.9463 32.229 54.6694 31.0623 54.6694Z" fill="#E0E0E0"/>
<path d="M44.9168 54.6694H38.9377C37.771 54.6694 36.896 53.9463 36.896 52.9339V49.4628C36.896 48.4504 37.6252 47.7273 38.9377 47.7273H44.9168C46.0835 47.7273 46.9585 48.4504 46.9585 49.4628V52.9339C46.9585 53.9463 46.0835 54.6694 44.9168 54.6694Z" fill="#E0E0E0"/>
<path d="M17.2083 65.0827H11.2292C10.0625 65.0827 9.1875 64.3595 9.1875 63.3471V59.876C9.1875 58.8636 9.91667 58.1405 11.2292 58.1405H17.2083C18.375 58.1405 19.25 58.8636 19.25 59.876V63.3471C19.1042 64.3595 18.375 65.0827 17.2083 65.0827Z" fill="#E0E0E0"/>
<path d="M31.0623 65.0827H25.0832C23.9165 65.0827 23.0415 64.3595 23.0415 63.3471V59.876C23.0415 58.8636 23.7707 58.1405 25.0832 58.1405H31.0623C32.229 58.1405 33.104 58.8636 33.104 59.876V63.3471C32.9582 64.3595 32.229 65.0827 31.0623 65.0827Z" fill="#E0E0E0"/>
<path d="M44.9168 65.0827H38.9377C37.771 65.0827 36.896 64.3595 36.896 63.3471V59.876C36.896 58.8636 37.6252 58.1405 38.9377 58.1405H44.9168C46.0835 58.1405 46.9585 58.8636 46.9585 59.876V63.3471C46.9585 64.3595 46.0835 65.0827 44.9168 65.0827Z" fill="#E0E0E0"/>
<path d="M58.7708 44.5454H52.7917C51.625 44.5454 50.75 43.8223 50.75 42.8099V39.3388C50.75 38.3264 51.4792 37.6033 52.7917 37.6033H58.7708C59.9375 37.6033 60.8125 38.3264 60.8125 39.3388V42.8099C60.8125 43.8223 59.9375 44.5454 58.7708 44.5454Z" fill="#BDBDBD"/>
<path d="M58.7708 54.9586H52.7917C51.625 54.9586 50.75 54.2355 50.75 53.2231V49.752C50.75 48.7396 51.4792 48.0165 52.7917 48.0165H58.7708C59.9375 48.0165 60.8125 48.7396 60.8125 49.752V53.2231C60.8125 54.2355 59.9375 54.9586 58.7708 54.9586Z" fill="#BDBDBD"/>
<path d="M58.7708 65.3718H52.7917C51.625 65.3718 50.75 64.6487 50.75 63.6363V60.1652C50.75 59.1528 51.4792 58.4297 52.7917 58.4297H58.7708C59.9375 58.4297 60.8125 59.1528 60.8125 60.1652V63.6363C60.8125 64.6487 59.9375 65.3718 58.7708 65.3718Z" fill="#BDBDBD"/>
</svg>
