<svg width="69" height="69" viewBox="0 0 69 69" fill="none" xmlns="http://www.w3.org/2000/svg">
<g clip-path="url(#clip0_58_1191)">
<path d="M28.4568 38.5227H17.3564L22.7727 23.5762H23.0527L28.4568 38.5227Z" fill="url(#paint0_linear_58_1191)"/>
<path d="M47.8825 0H21.1175C9.45722 0 0 9.45722 0 21.1175V47.8825C0 59.5428 9.45722 69 21.1175 69H47.8825C59.5428 69 69 59.5428 69 47.8825V21.1175C69 9.45722 59.5428 0 47.8825 0ZM60.5408 38.0723C60.5408 41.0178 59.8957 43.5617 58.5812 45.7282C57.2667 47.8947 55.4653 49.55 53.1649 50.7306C50.8524 51.8991 48.2355 52.4833 45.2657 52.4833C42.9774 52.4833 40.9083 52.1425 39.0095 51.4488L39.3138 52.2521H33.435L30.0757 42.9896H15.7499L12.3905 52.2521H6.51173L19.7056 17.2226H26.1078L29.7957 26.9841C30.6112 24.7567 31.7432 22.8702 33.2403 21.3122C34.7252 19.7543 36.4535 18.5615 38.4496 17.7338C40.4458 16.9183 42.6366 16.4923 45.0344 16.4923C47.0062 16.4923 48.8562 16.7601 50.5846 17.32C52.3008 17.8799 53.8344 18.671 55.1611 19.7056C56.5121 20.7402 57.6197 21.9451 58.496 23.3692C59.3845 24.7689 59.9931 26.339 60.2852 28.043H54.6133V28.0552C54.2725 27.0206 53.81 26.0834 53.2258 25.2558C52.6537 24.4403 51.96 23.7222 51.1445 23.1379C50.3412 22.5537 49.4405 22.1034 48.4181 21.7991C47.3957 21.4826 46.2759 21.3366 45.0587 21.3366C42.9774 21.3366 41.1274 21.8478 39.4599 22.858C37.8046 23.8682 36.49 25.3531 35.5285 27.3128C34.5548 29.2602 34.0923 31.658 34.0923 34.4817C34.0923 37.3177 34.5669 39.7276 35.5285 41.6751C36.5022 43.6469 37.8289 45.1196 39.5086 46.142C41.2004 47.1522 43.0991 47.6634 45.2535 47.6634C47.2374 47.6634 48.9901 47.2739 50.4872 46.5071C51.9843 45.7282 53.1406 44.6327 53.9561 43.2087C54.735 41.8576 55.1367 40.2632 55.1854 38.4496H46.1177V34.0801H60.553V38.0723H60.5408Z" fill="url(#paint1_linear_58_1191)"/>
</g>
<defs>
<linearGradient id="paint0_linear_58_1191" x1="17.3505" y1="31.0494" x2="28.4571" y2="31.0494" gradientUnits="userSpaceOnUse">
<stop stop-color="#F7941D"/>
<stop offset="0.4918" stop-color="#F8991D"/>
<stop offset="0.9692" stop-color="#FAA81D"/>
</linearGradient>
<linearGradient id="paint1_linear_58_1191" x1="0" y1="34.5" x2="69" y2="34.5" gradientUnits="userSpaceOnUse">
<stop stop-color="#F7941D"/>
<stop offset="0.1633" stop-color="#F8991D"/>
<stop offset="0.4095" stop-color="#FAA81D"/>
<stop offset="0.7063" stop-color="#FEC11B"/>
<stop offset="1" stop-color="#FFDE17"/>
</linearGradient>
<clipPath id="clip0_58_1191">
<rect width="69" height="69" fill="white"/>
</clipPath>
</defs>
</svg>
