<svg width="75" height="75" viewBox="0 0 75 75" fill="none" xmlns="http://www.w3.org/2000/svg">
<g clip-path="url(#clip0_58_963)">
<path d="M37.5 73.5795C57.4261 73.5795 73.5795 57.4262 73.5795 37.5C73.5795 17.5738 57.4261 1.42044 37.5 1.42044C17.5738 1.42044 1.42041 17.5738 1.42041 37.5C1.42041 57.4262 17.5738 73.5795 37.5 73.5795Z" fill="url(#paint0_radial_58_963)" stroke="#162B41" stroke-width="2" stroke-miterlimit="10"/>
<path d="M44.7918 31.5341C41.5532 27.0455 35.1895 26.0796 30.7009 29.375C26.2123 32.6136 25.2464 38.9773 28.5418 43.4659C31.8373 47.9546 38.1441 48.9205 42.6327 45.625C47.1214 42.3864 48.0873 36.0227 44.7918 31.5341ZM40.1895 42.2159C37.6327 44.1477 33.8827 43.6364 31.9509 40.9659C30.0191 38.4091 30.5873 34.7159 33.2577 32.7273C35.8145 30.7955 39.5077 31.3636 41.4395 34.0341C43.3145 36.5909 42.8032 40.2841 40.1895 42.2159C40.2464 42.2159 40.2464 42.2159 40.1895 42.2159Z" fill="white"/>
<path d="M40.1895 42.2159C37.6327 44.1477 33.8827 43.6364 31.9509 40.9659C30.0191 38.4091 30.5873 34.7159 33.2577 32.7273C35.8145 30.7955 39.5077 31.3636 41.4395 34.0341C43.3145 36.5909 42.8032 40.2841 40.1895 42.2159ZM40.1895 42.2159C40.2464 42.2159 40.2464 42.2159 40.1895 42.2159ZM44.7918 31.5341C41.5532 27.0455 35.1895 26.0796 30.7009 29.375C26.2123 32.6136 25.2464 38.9773 28.5418 43.4659C31.8373 47.9546 38.1441 48.9205 42.6327 45.625C47.1214 42.3864 48.0873 36.0227 44.7918 31.5341Z" stroke="#162B41" stroke-width="1.5" stroke-miterlimit="10"/>
<path d="M54.9623 35.3977C54.735 33.2386 55.8145 31.1932 57.7464 30.1136L59.2805 29.2614L58.5418 27.6704C57.1782 24.4886 55.0759 21.7045 52.4623 19.375L51.1555 18.2386L49.9055 19.4318C48.3714 20.9091 45.985 21.3636 44.0532 20.5113C42.1214 19.7159 40.8714 17.6704 40.9282 15.5682L40.985 13.8636L39.2805 13.6363C35.8145 13.2386 32.2918 13.6363 29.0532 14.7727L27.4623 15.3409L27.9168 16.9886C28.6555 19.8295 26.7805 22.7841 23.9395 23.4091C22.6327 23.75 21.1555 23.5227 19.9623 22.8409L18.485 21.9886L17.4623 23.3523C15.36 26.1363 13.9964 29.375 13.3145 32.7841L12.9736 34.4886L14.6214 35C16.7236 35.625 18.1441 37.3295 18.3714 39.4886C18.5986 41.6477 17.5191 43.6932 15.5873 44.7727L14.0532 45.625L14.735 47.2159C16.0986 50.3977 18.1441 53.1818 20.7577 55.5114L22.0645 56.6477L23.3145 55.4545C24.8486 53.9773 27.235 53.5227 29.1668 54.375C31.1555 55.2273 32.3486 57.2159 32.2918 59.375L32.235 61.1364L33.9964 61.3068C35.7577 61.4773 37.5191 61.4773 39.3373 61.3068C41.0418 61.1364 42.6895 60.7386 44.2805 60.1705L45.9282 59.5455L45.4736 57.8977C44.735 55.0568 46.4964 52.1023 49.2805 51.4205C50.6441 51.0795 52.1782 51.3068 53.4282 52.0455L54.9055 52.9545L55.9282 51.5909C58.0305 48.8068 59.3373 45.5114 60.0759 42.1023L60.4168 40.3977L58.7691 39.8864C56.6668 39.3182 55.1895 37.5568 54.9623 35.3977ZM53.8827 48.0682C49.1668 46.25 43.8827 48.6932 42.1214 53.4091C41.6668 54.5455 41.5532 55.7955 41.61 56.9886C39.7918 57.4432 37.86 57.6705 35.985 57.5568C35.5305 54.5455 33.485 52.0455 30.7009 50.7955C27.9168 49.6023 24.735 49.8295 22.1214 51.4773C20.8714 50.1705 19.6782 48.6364 18.8259 46.9318C21.1555 45 22.4055 42.0454 22.0645 39.0341C21.7236 36.0227 19.9623 33.4091 17.235 32.0454C17.7464 30.2273 18.485 28.4659 19.5077 26.875C24.2805 28.5795 29.4509 26.0795 31.2123 21.3636C31.61 20.2841 31.7805 19.0909 31.7236 17.9545C33.5418 17.4432 35.4736 17.2159 37.3486 17.3295C38.2009 22.2727 42.9168 25.5682 47.86 24.6591C48.9964 24.4318 50.1895 23.9773 51.2123 23.3523C51.8941 24.0341 52.5191 24.7727 53.0873 25.5682C53.6555 26.3636 54.11 27.0454 54.5077 27.8409C52.1782 29.7727 50.9282 32.7273 51.2691 35.7386C51.5532 38.75 53.4282 41.4205 56.1555 42.7841C55.5305 44.6591 54.7918 46.4204 53.8827 48.0682Z" fill="white" stroke="#162B41" stroke-width="1.5" stroke-miterlimit="10"/>
</g>
<defs>
<radialGradient id="paint0_radial_58_963" cx="0" cy="0" r="1" gradientUnits="userSpaceOnUse" gradientTransform="translate(-12.2512 71.2672) scale(85.3993)">
<stop stop-color="#FFDD55"/>
<stop offset="0.1" stop-color="#017594"/>
<stop offset="0.5" stop-color="#384A9F"/>
<stop offset="1" stop-color="#CE4EC8"/>
</radialGradient>
<clipPath id="clip0_58_963">
<rect width="75" height="75" fill="white"/>
</clipPath>
</defs>
</svg>
