<svg width="77" height="78" viewBox="0 0 77 78" fill="none" xmlns="http://www.w3.org/2000/svg">
<path d="M70.6662 12.3228V62.0953C70.6662 67.4091 66.3528 71.7406 61.0612 71.7406H11.497C6.2055 71.7406 1.89209 67.4091 1.89209 62.0953V12.3228C1.89209 7.00903 6.2055 2.67749 11.497 2.67749H61.0612C66.3528 2.67749 70.6662 7.00903 70.6662 12.3228Z" fill="url(#paint0_linear_58_1128)" stroke="url(#paint1_linear_58_1128)" stroke-width="2" stroke-miterlimit="10"/>
<path d="M37.7461 18.405C37.8423 18.405 37.9225 18.4211 37.9866 18.4372C37.9064 18.4372 37.8263 18.4211 37.7461 18.405Z" fill="white" stroke="url(#paint2_linear_58_1128)" stroke-width="2" stroke-miterlimit="10"/>
<path d="M38.1891 18.4534C38.1751 18.4534 38.1751 18.4534 38.161 18.4534C38.161 18.4534 38.161 18.4534 38.147 18.4534C38.161 18.4534 38.1751 18.4534 38.1891 18.4534Z" fill="white" stroke="url(#paint3_linear_58_1128)" stroke-width="2" stroke-miterlimit="10"/>
<path d="M38.147 18.4534C38.1607 18.4534 38.1744 18.4534 38.1744 18.4534" stroke="url(#paint4_linear_58_1128)" stroke-width="2" stroke-miterlimit="10"/>
<path d="M55.8818 35.4414C55.1121 33.6862 54.2783 32.5268 52.9955 30.7717C52.771 30.4657 53.0275 30.5784 50.045 27.0198C49.2914 26.1342 48.5538 25.1519 47.8482 24.1214C47.0305 22.9298 46.4692 22.0764 46.0683 21.4001C45.8599 21.0458 45.6995 20.756 45.6033 20.595C45.908 19.6288 46.1646 18.6305 46.4051 17.6643C46.6777 16.6338 46.9503 15.571 47.271 14.5566C47.3512 14.315 47.271 14.0413 47.0786 13.8803C46.9663 13.7836 46.806 13.7192 46.6616 13.7192C46.5654 13.7192 46.4692 13.7353 46.389 13.7836L45.2185 14.3311C43.9678 14.9269 42.7331 15.5227 41.5465 16.1024C40.408 16.6499 39.2374 17.2296 38.0348 17.7931C37.7302 17.7609 37.0727 17.6965 36.1748 17.6965C35.6456 17.6965 35.1165 17.7126 34.5873 17.7609C33.3045 17.8576 29.408 18.1635 26.185 19.9187L26.1529 19.9348C26.0727 19.9831 25.9605 20.0314 25.8322 20.1119C22.6573 21.7704 19.9634 24.2663 18.0713 27.3419C15.3293 31.77 15.1529 36.0533 15.0888 37.8728C15.0246 40.0467 15.2972 41.6891 15.3934 42.2205C15.6821 43.7663 16.3235 46.2139 17.8147 48.6775C20.7651 53.5566 25.271 55.6177 27.099 56.4067C31.2841 58.2424 34.8278 58.2585 35.7899 58.2424C35.7899 58.2424 40.392 58.1618 44.7856 55.1346C45.0261 54.9736 45.0902 54.7642 45.0902 54.7642C45.1063 54.6998 45.1223 54.6354 45.1223 54.571C45.1223 54.2168 44.8497 53.943 44.4969 53.9269H44.4488C44.4328 53.9269 44.4167 53.9269 44.4167 53.9269L43.8716 53.9752C43.7914 53.9752 43.7112 54.0074 43.631 54.0396C42.5407 54.5871 41.4182 55.0219 40.2477 55.3278C38.8847 55.6821 37.634 55.9075 35.822 55.8914C32.0858 55.8753 23.6194 53.2989 20.3643 45.7308C20.3643 45.7308 18.5042 41.3993 19.3861 35.6346C19.8672 32.4302 21.0217 30.2403 21.2783 29.7733C21.631 29.1131 22.0319 28.469 22.4809 27.8571C24.4853 25.0875 27.0028 23.4934 28.7666 22.6239C29.8891 22.0764 32.4547 21.3679 35.7258 21.0136C36.8482 20.8848 37.7622 20.8687 38.3555 20.8687C38.6442 20.8687 38.8205 20.8687 38.8686 20.8687H38.9007C39.013 20.8687 39.1412 20.8365 39.2374 20.7721L40.7768 19.822L43.9036 17.9059L43.1179 20.4017L42.9255 21.0136C42.9095 21.0941 42.8934 21.223 42.9095 21.3679C42.9415 21.6094 43.0698 21.6899 43.3264 22.0764C43.4386 22.2535 43.3905 22.2052 43.7112 22.7044C43.7914 22.8332 43.8876 22.9781 43.9838 23.1391C45.2185 25.0553 46.4211 26.6817 47.6558 28.0826C50.1412 30.9005 50.6544 31.6573 51.857 33.3481C52.6267 34.443 52.9794 35.0066 53.2841 35.6829C53.9576 37.0999 54.7112 38.7263 54.2302 40.4814C53.717 42.3332 52.1135 43.3154 51.5042 43.6536C51.3599 43.1061 51.0873 42.3654 50.5742 41.6086C49.8526 40.5136 48.9707 39.8373 48.2491 39.3542C45.0421 37.277 42.5086 37.8728 38.6602 35.5702C37.2491 34.7168 36.4153 33.9277 35.9663 32.8489C35.838 32.5268 35.3249 31.0132 35.9663 29.564C36.5115 28.3241 37.5377 27.9377 37.3453 27.2291C37.2331 26.7944 36.72 26.5045 36.287 26.4401C36.1748 26.424 35.6937 26.3757 34.9882 26.9232C33.7695 27.8732 33.4649 29.403 33.3686 29.9182C32.9998 31.9149 33.6733 33.5574 33.8657 33.9761C34.8278 36.1177 36.6398 37.1965 37.9065 37.9211C41.5946 40.0306 44.1762 39.3704 46.9823 41.6247C47.8322 42.301 48.3453 42.9451 48.7462 43.8307C49.2914 45.0706 49.2433 46.23 49.2112 46.552C49.1952 46.7775 49.2914 47.0029 49.4678 47.1317C49.58 47.2122 49.7083 47.2605 49.8366 47.2605C49.9649 47.2605 50.0611 47.2283 50.0931 47.2122C52.3541 46.2622 53.7812 44.9257 53.7812 44.9257C54.8555 43.9273 55.5931 43.2188 56.1704 41.9789C56.3307 41.6408 56.6675 40.9001 56.7958 39.8856C56.908 39.4187 57.0202 38.0339 55.8818 35.4414Z" fill="white" stroke="url(#paint5_linear_58_1128)" stroke-width="2" stroke-miterlimit="10"/>
<path d="M75.0439 63.6367L74.6751 64.7639C73.9535 67.0343 72.7349 69.1598 71.1314 70.8989L70.3456 71.7684C70.2174 71.9133 69.9768 71.9294 69.8325 71.8167L68.9346 71.0921C68.2611 70.5607 67.3792 70.3192 66.5293 70.448C65.6795 70.5768 64.9258 71.0116 64.4127 71.6879C63.8996 72.3642 63.6751 73.2176 63.7873 74.0711L63.9477 75.2143C63.9798 75.4076 63.8515 75.5847 63.6591 75.633L62.5366 75.8906C61.4142 76.1322 60.2276 76.261 59.0891 76.261C57.8865 76.261 56.6678 76.1322 55.4812 75.8584L54.3588 75.6008C54.1663 75.5525 54.0381 75.3754 54.0701 75.1821L54.2305 74.0389C54.4229 72.7507 53.8296 71.4947 52.7072 70.8667C51.5847 70.2226 50.1897 70.3031 49.1634 71.1243L48.2494 71.8328C48.1051 71.9616 47.8806 71.9455 47.7363 71.7845L46.9506 70.915C45.3631 69.1759 44.1605 67.0504 43.487 64.7961L43.1503 63.685C43.0862 63.5079 43.1824 63.3147 43.3588 63.2341L44.4171 62.7994C45.6197 62.3163 46.4054 61.1569 46.4054 59.8526C46.4214 58.5645 45.6518 57.4212 44.4812 56.9381L43.4069 56.4872C43.2305 56.4067 43.1343 56.2135 43.1984 56.0203L43.5672 54.9092C44.2888 52.6549 45.5074 50.5455 47.1109 48.8225L47.8806 47.9691C48.0089 47.8241 48.2334 47.808 48.3937 47.9208L49.2917 48.6132C49.9491 49.1284 50.783 49.3378 51.6168 49.2412C52.4666 49.1284 53.2363 48.7098 53.7494 48.0335C54.2786 47.3572 54.5031 46.5199 54.4069 45.6503L54.2626 44.5232C54.2305 44.3299 54.3748 44.1528 54.5672 44.1045L55.6897 43.863C57.9827 43.3477 60.42 43.3477 62.713 43.863L63.8354 44.1206C64.0279 44.1689 64.1561 44.346 64.1241 44.5393L63.9798 45.6825C63.8034 46.9546 64.3967 48.1945 65.5191 48.8225C66.6416 49.4666 68.0366 49.3861 69.0628 48.581L69.9608 47.8725C70.1051 47.7436 70.3296 47.7597 70.4739 47.9208L71.2596 48.7742C72.8631 50.5132 74.0658 52.6227 74.7713 54.877L75.1241 55.9881C75.1882 56.1652 75.092 56.3745 74.8996 56.455L73.8252 56.8898C72.6066 57.3729 71.8209 58.5322 71.8048 59.8365C71.7888 61.1247 72.5745 62.3002 73.7611 62.7672L74.8515 63.2019C74.9958 63.2502 75.092 63.4435 75.0439 63.6367Z" fill="url(#paint6_radial_58_1128)"/>
<path d="M65.086 56.5838C63.2419 53.3634 59.137 52.2523 55.93 54.1041C52.723 55.9558 51.6166 60.0781 53.4606 63.2985C55.3046 66.519 59.3935 67.6301 62.6005 65.7783C65.8075 63.9265 66.93 59.8043 65.086 56.5838ZM61.2215 63.3468C59.3454 64.4418 56.9402 63.7816 55.8498 61.8976C54.7594 60.0136 55.4169 57.5983 57.293 56.5033C59.1691 55.4084 61.5743 56.0686 62.6647 57.9525C63.7551 59.8204 63.1137 62.2197 61.2696 63.3146C61.2536 63.3307 61.2376 63.3468 61.2215 63.3468Z" fill="white" stroke="url(#paint7_linear_58_1128)" stroke-width="1.5" stroke-miterlimit="10"/>
<path d="M71.5643 59.917C71.5803 58.4678 72.4622 57.1474 73.8092 56.616L74.8835 56.1812L74.5308 55.0702C73.8413 52.8641 72.6707 50.8191 71.0993 49.1123L70.3136 48.2589L69.4156 48.9513C68.2771 49.8369 66.7057 49.9496 65.455 49.225C64.2203 48.5165 63.5308 47.0995 63.7392 45.6986L63.8835 44.5553L62.7611 44.3138C60.5001 43.8146 58.159 43.8146 55.8981 44.3138L54.7757 44.5553L54.92 45.6825C55.1605 47.647 53.7655 49.4504 51.7932 49.692C50.8792 49.8208 49.9331 49.5632 49.1955 48.9835L48.2975 48.2911L47.5278 49.1445C45.9564 50.8513 44.7859 52.8802 44.0803 55.0863L43.7115 56.1973L44.7859 56.6482C46.1007 57.1957 46.9506 58.5 46.9346 59.917C46.9185 61.3662 46.0526 62.6705 44.7057 63.218L43.6313 63.6528L43.9681 64.7638C44.6416 66.986 45.8121 69.0148 47.3515 70.7378L48.1372 71.6073L49.0512 70.8988C50.1897 70.0132 51.7611 69.8844 53.0118 70.609C54.2625 71.3336 54.936 72.7506 54.7276 74.1837L54.5672 75.327L55.6897 75.5846C56.8442 75.8423 58.0308 75.9711 59.2174 75.9711C60.3398 75.9711 61.4783 75.8423 62.6007 75.6007L63.7232 75.3592L63.5628 74.2159C63.2902 72.2514 64.6532 70.448 66.6095 70.1742C67.5716 70.0454 68.5497 70.303 69.3034 70.9149L70.2013 71.6395L70.987 70.77C72.5745 69.0471 73.745 67.0021 74.4506 64.796L74.8194 63.6689L73.729 63.2341C72.4141 62.6705 71.5483 61.3501 71.5643 59.917ZM69.8646 68.2419C66.866 66.7283 63.2101 67.936 61.7028 70.9471C61.334 71.6878 61.1095 72.493 61.0774 73.3142C59.8267 73.4752 58.5599 73.4752 57.3092 73.2981C57.1969 71.2531 56.0745 69.4174 54.3106 68.403C52.5468 67.3885 50.4141 67.308 48.5862 68.2258C47.8165 67.2436 47.2071 66.1325 46.7261 64.9731C48.4098 63.846 49.436 61.962 49.452 59.917C49.4681 57.9042 48.4739 56.0202 46.8223 54.8769C47.2873 53.7015 47.9448 52.6065 48.6984 51.6082C51.729 53.0896 55.369 51.8175 56.8281 48.7902C57.1649 48.0978 57.3733 47.341 57.4375 46.5681C58.6882 46.391 59.955 46.391 61.2057 46.5681C61.4302 49.9174 64.3165 52.4455 67.6357 52.22C68.4375 52.1556 69.2232 51.9463 69.9287 51.5921C70.3136 52.0912 70.6824 52.6226 71.0031 53.1862C71.3077 53.7176 71.5803 54.2812 71.8048 54.8447C70.1051 55.9719 69.0789 57.8559 69.0628 59.9009C69.0468 61.9459 70.057 63.846 71.7567 64.9731C71.2757 66.1325 70.6343 67.2436 69.8646 68.2419Z" fill="white" stroke="url(#paint8_linear_58_1128)" stroke-width="1.5" stroke-miterlimit="10"/>
<defs>
<linearGradient id="paint0_linear_58_1128" x1="1.88451" y1="37.2104" x2="70.6586" y2="37.2104" gradientUnits="userSpaceOnUse">
<stop stop-color="#045B83"/>
<stop offset="1" stop-color="#08406E"/>
</linearGradient>
<linearGradient id="paint1_linear_58_1128" x1="1.24311" y1="37.2104" x2="71.3" y2="37.2104" gradientUnits="userSpaceOnUse">
<stop stop-color="#00385D"/>
<stop offset="1" stop-color="#020833"/>
</linearGradient>
<linearGradient id="paint2_linear_58_1128" x1="37.8576" y1="19.0774" x2="37.8576" y2="17.7707" gradientUnits="userSpaceOnUse">
<stop stop-color="#006E76"/>
<stop offset="1" stop-color="#002C3F"/>
</linearGradient>
<linearGradient id="paint3_linear_58_1128" x1="-nan" y1="-nan" x2="-nan" y2="-nan" gradientUnits="userSpaceOnUse">
<stop stop-color="#006E76"/>
<stop offset="1" stop-color="#002C3F"/>
</linearGradient>
<linearGradient id="paint4_linear_58_1128" x1="-nan" y1="-nan" x2="-nan" y2="-nan" gradientUnits="userSpaceOnUse">
<stop stop-color="#006E76"/>
<stop offset="1" stop-color="#002C3F"/>
</linearGradient>
<linearGradient id="paint5_linear_58_1128" x1="35.9911" y1="58.8884" x2="35.9911" y2="13.0889" gradientUnits="userSpaceOnUse">
<stop stop-color="#00385D"/>
<stop offset="1" stop-color="#020833"/>
</linearGradient>
<radialGradient id="paint6_radial_58_1128" cx="0" cy="0" r="1" gradientUnits="userSpaceOnUse" gradientTransform="translate(59.1312 59.8511) scale(16.155 16.2229)">
<stop stop-color="#045B83"/>
<stop offset="1" stop-color="#0C355E"/>
</radialGradient>
<linearGradient id="paint7_linear_58_1128" x1="59.2731" y1="67.2448" x2="59.2731" y2="52.6481" gradientUnits="userSpaceOnUse">
<stop stop-color="#00385D"/>
<stop offset="1" stop-color="#020833"/>
</linearGradient>
<linearGradient id="paint8_linear_58_1128" x1="59.2631" y1="76.5354" x2="59.2631" y2="43.3763" gradientUnits="userSpaceOnUse">
<stop stop-color="#00385D"/>
<stop offset="1" stop-color="#020833"/>
</linearGradient>
</defs>
</svg>
