<?xml version="1.0" encoding="utf-8"?>
<!-- Generator: Adobe Illustrator 26.4.1, SVG Export Plug-In . SVG Version: 6.00 Build 0)  -->
<svg version="1.1" id="Layer_1" xmlns="http://www.w3.org/2000/svg" xmlns:xlink="http://www.w3.org/1999/xlink" x="0px" y="0px"
	 viewBox="0 0 480.2 484.4" style="enable-background:new 0 0 480.2 484.4;" xml:space="preserve">
<style type="text/css">
	.st0{display:none;fill:#FFFFFF;stroke:url(#SVGID_1_);stroke-width:18;stroke-miterlimit:10;}
	
		.st1{fill:url(#SVGID_00000036952773100432484750000006372445065511623310_);stroke:url(#SVGID_00000053524644452547468780000011326579257806268034_);stroke-width:8;stroke-miterlimit:10;}
	.st2{fill:#FFFFFF;stroke:url(#SVGID_00000028302218022927238300000000311931684226651300_);stroke-width:8;stroke-miterlimit:10;}
	.st3{fill:#FFFFFF;stroke:url(#SVGID_00000125593346388592479490000014280937325461309340_);stroke-width:8;stroke-miterlimit:10;}
	.st4{fill:#FFFFFF;stroke:url(#SVGID_00000117644838294329957350000001473670643052917435_);stroke-width:8;stroke-miterlimit:10;}
	.st5{fill:#FFFFFF;stroke:url(#SVGID_00000130621242721998159550000000482522853487166902_);stroke-width:8;stroke-miterlimit:10;}
	.st6{fill:url(#SVGID_00000139295601862007621210000010203663555622939814_);}
	.st7{fill:#FFFFFF;stroke:url(#SVGID_00000010277747048128443350000018234683716809241509_);stroke-width:7;stroke-miterlimit:10;}
	.st8{fill:#FFFFFF;stroke:url(#SVGID_00000035517019336360592750000012869294962384705929_);stroke-width:7;stroke-miterlimit:10;}
</style>
<linearGradient id="SVGID_1_" gradientUnits="userSpaceOnUse" x1="136.4" y1="704.7256" x2="322.975" y2="704.7256" gradientTransform="matrix(1 0 0 1 0 -467.2756)">
	<stop  offset="0" style="stop-color:#9A1F24"/>
	<stop  offset="0.3248" style="stop-color:#C92222"/>
	<stop  offset="1" style="stop-color:#C42B27"/>
</linearGradient>
<path class="st0" d="M145.4,141.1v192.7c0,9.9,11,15.8,19.2,10.3l143.9-96.4c7.3-4.9,7.3-15.6,0-20.5l-143.9-96.4
	C156.4,125.3,145.4,131.2,145.4,141.1z"/>
<linearGradient id="SVGID_00000005970994450466343350000010035681152378075296_" gradientUnits="userSpaceOnUse" x1="11.7527" y1="222.3584" x2="440.6526" y2="222.3584">
	<stop  offset="0" style="stop-color:#045B83"/>
	<stop  offset="1" style="stop-color:#08406E"/>
</linearGradient>
<linearGradient id="SVGID_00000026125082564369835840000013815178834711029945_" gradientUnits="userSpaceOnUse" x1="7.7527" y1="222.3584" x2="444.6526" y2="222.3584">
	<stop  offset="0" style="stop-color:#00385D"/>
	<stop  offset="1" style="stop-color:#020833"/>
</linearGradient>
<path style="fill:url(#SVGID_00000005970994450466343350000010035681152378075296_);stroke:url(#SVGID_00000026125082564369835840000013815178834711029945_);stroke-width:8;stroke-miterlimit:10;" d="
	M440.7,67.8v309.1c0,33-26.9,59.9-59.9,59.9H71.7c-33,0-59.9-26.9-59.9-59.9V67.8c0-33,26.9-59.9,59.9-59.9h309.1
	C413.8,7.9,440.7,34.8,440.7,67.8z"/>
<g>
	
		<linearGradient id="SVGID_00000103979744370777078650000000797257982272432018_" gradientUnits="userSpaceOnUse" x1="236.0957" y1="118.4757" x2="236.0957" y2="110.3603">
		<stop  offset="0" style="stop-color:#006E76"/>
		<stop  offset="1" style="stop-color:#002C3F"/>
	</linearGradient>
	
		<path style="fill:#FFFFFF;stroke:url(#SVGID_00000103979744370777078650000000797257982272432018_);stroke-width:8;stroke-miterlimit:10;" d="
		M235.4,114.3c0.6,0,1.1,0.1,1.5,0.2C236.4,114.5,235.9,114.4,235.4,114.3z"/>
	
		<linearGradient id="SVGID_00000046301116264933331670000016452297908149969799_" gradientUnits="userSpaceOnUse" x1="237.9888" y1="118.6455" x2="237.9888" y2="110.6355">
		<stop  offset="0" style="stop-color:#006E76"/>
		<stop  offset="1" style="stop-color:#002C3F"/>
	</linearGradient>
	
		<path style="fill:#FFFFFF;stroke:url(#SVGID_00000046301116264933331670000016452297908149969799_);stroke-width:8;stroke-miterlimit:10;" d="
		M238.2,114.6c-0.1,0-0.1,0-0.2,0c0,0,0,0-0.1,0C238,114.6,238.1,114.6,238.2,114.6z"/>
	
		<linearGradient id="SVGID_00000058563970368062318300000005563460535105763501_" gradientUnits="userSpaceOnUse" x1="255.7688" y1="342.9456" x2="255.7688" y2="110.6355">
		<stop  offset="0" style="stop-color:#006E76"/>
		<stop  offset="1" style="stop-color:#002C3F"/>
	</linearGradient>
	
		<path style="fill:#FFFFFF;stroke:url(#SVGID_00000058563970368062318300000005563460535105763501_);stroke-width:8;stroke-miterlimit:10;" d="
		M277.5,338.9L277.5,338.9 M237.9,114.6C237.9,114.6,238,114.6,237.9,114.6c0.1,0,0.2,0,0.2,0C238.1,114.6,238,114.6,237.9,114.6z"
		/>
	
		<linearGradient id="SVGID_00000111151586015332937610000011791985129018382483_" gradientUnits="userSpaceOnUse" x1="224.4548" y1="365.7118" x2="224.4548" y2="81.2856">
		<stop  offset="0" style="stop-color:#00385D"/>
		<stop  offset="1" style="stop-color:#020833"/>
	</linearGradient>
	
		<path style="fill:#FFFFFF;stroke:url(#SVGID_00000111151586015332937610000011791985129018382483_);stroke-width:8;stroke-miterlimit:10;" d="
		M348.5,220.1c-4.8-10.9-10-18.1-18-29c-1.4-1.9,0.2-1.2-18.4-23.3c-4.7-5.5-9.3-11.6-13.7-18c-5.1-7.4-8.6-12.7-11.1-16.9
		c-1.3-2.2-2.3-4-2.9-5c1.9-6,3.5-12.2,5-18.2c1.7-6.4,3.4-13,5.4-19.3c0.5-1.5,0-3.2-1.2-4.2c-0.7-0.6-1.7-1-2.6-1
		c-0.6,0-1.2,0.1-1.7,0.4l-7.3,3.4c-7.8,3.7-15.5,7.4-22.9,11c-7.1,3.4-14.4,7-21.9,10.5c-1.9-0.2-6-0.6-11.6-0.6
		c-3.3,0-6.6,0.1-9.9,0.4c-8,0.6-32.3,2.5-52.4,13.4l-0.2,0.1c-0.5,0.3-1.2,0.6-2,1.1c-19.8,10.3-36.6,25.8-48.4,44.9
		c-17.1,27.5-18.2,54.1-18.6,65.4c-0.4,13.5,1.3,23.7,1.9,27c1.8,9.6,5.8,24.8,15.1,40.1c18.4,30.3,46.5,43.1,57.9,48
		c26.1,11.4,48.2,11.5,54.2,11.4c0,0,28.7-0.5,56.1-19.3c1.5-1,1.9-2.3,1.9-2.3c0.1-0.4,0.2-0.8,0.2-1.2c0-2.2-1.7-3.9-3.9-4h-0.3
		c-0.1,0-0.2,0-0.2,0l-3.4,0.3c-0.5,0-1,0.2-1.5,0.4c-6.8,3.4-13.8,6.1-21.1,8c-8.5,2.2-16.3,3.6-27.6,3.5
		c-23.3-0.1-76.1-16.1-96.4-63.1c0,0-11.6-26.9-6.1-62.7c3-19.9,10.2-33.5,11.8-36.4c2.2-4.1,4.7-8.1,7.5-11.9
		c12.5-17.2,28.2-27.1,39.2-32.5c7-3.4,23-7.8,43.4-10c7-0.8,12.7-0.9,16.4-0.9c1.8,0,2.9,0,3.2,0h0.2c0.7,0,1.5-0.2,2.1-0.6
		l9.6-5.9l19.5-11.9l-4.9,15.5l-1.2,3.8c-0.1,0.5-0.2,1.3-0.1,2.2c0.2,1.5,1,2,2.6,4.4c0.7,1.1,0.4,0.8,2.4,3.9
		c0.5,0.8,1.1,1.7,1.7,2.7c7.7,11.9,15.2,22,22.9,30.7c15.5,17.5,18.7,22.2,26.2,32.7c4.8,6.8,7,10.3,8.9,14.5
		c4.2,8.8,8.9,18.9,5.9,29.8c-3.2,11.5-13.2,17.6-17,19.7c-0.9-3.4-2.6-8-5.8-12.7c-4.5-6.8-10-11-14.5-14
		c-20-12.9-35.8-9.2-59.8-23.5c-8.8-5.3-14-10.2-16.8-16.9c-0.8-2-4-11.4,0-20.4c3.4-7.7,9.8-10.1,8.6-14.5
		c-0.7-2.7-3.9-4.5-6.6-4.9c-0.7-0.1-3.7-0.4-8.1,3c-7.6,5.9-9.5,15.4-10.1,18.6c-2.3,12.4,1.9,22.6,3.1,25.2
		c6,13.3,17.3,20,25.2,24.5c23,13.1,39.1,9,56.6,23c5.3,4.2,8.5,8.2,11,13.7c3.4,7.7,3.1,14.9,2.9,16.9c-0.1,1.4,0.5,2.8,1.6,3.6
		c0.7,0.5,1.5,0.8,2.3,0.8c0.8,0,1.4-0.2,1.6-0.3c14.1-5.9,23-14.2,23-14.2c6.7-6.2,11.3-10.6,14.9-18.3c1-2.1,3.1-6.7,3.9-13
		C354.9,244.8,355.6,236.2,348.5,220.1z"/>
</g>
<radialGradient id="SVGID_00000001653256343340788480000003144970068769521305_" cx="368.7627" cy="371.6905" r="100.7484" gradientUnits="userSpaceOnUse">
	<stop  offset="0" style="stop-color:#045B83"/>
	<stop  offset="1" style="stop-color:#0C355E"/>
</radialGradient>
<path style="fill:url(#SVGID_00000001653256343340788480000003144970068769521305_);" d="M468,395.2l-2.3,7
	c-4.5,14.1-12.1,27.3-22.1,38.1l-4.9,5.4c-0.8,0.9-2.3,1-3.2,0.3l-5.6-4.5c-4.2-3.3-9.7-4.8-15-4c-5.3,0.8-10,3.5-13.2,7.7
	s-4.6,9.5-3.9,14.8l1,7.1c0.2,1.2-0.6,2.3-1.8,2.6l-7,1.6c-7,1.5-14.4,2.3-21.5,2.3c-7.5,0-15.1-0.8-22.5-2.5l-7-1.6
	c-1.2-0.3-2-1.4-1.8-2.6l1-7.1c1.2-8-2.5-15.8-9.5-19.7c-7-4-15.7-3.5-22.1,1.6l-5.7,4.4c-0.9,0.8-2.3,0.7-3.2-0.3l-4.9-5.4
	c-9.9-10.8-17.4-24-21.6-38l-2.1-6.9c-0.4-1.1,0.2-2.3,1.3-2.8l6.6-2.7c7.5-3,12.4-10.2,12.4-18.3c0.1-8-4.7-15.1-12-18.1l-6.7-2.8
	c-1.1-0.5-1.7-1.7-1.3-2.9l2.3-6.9c4.5-14,12.1-27.1,22.1-37.8l4.8-5.3c0.8-0.9,2.2-1,3.2-0.3l5.6,4.3c4.1,3.2,9.3,4.5,14.5,3.9
	c5.3-0.7,10.1-3.3,13.3-7.5c3.3-4.2,4.7-9.4,4.1-14.8l-0.9-7c-0.2-1.2,0.7-2.3,1.9-2.6l7-1.5c14.3-3.2,29.5-3.2,43.8,0l7,1.6
	c1.2,0.3,2,1.4,1.8,2.6l-0.9,7.1c-1.1,7.9,2.6,15.6,9.6,19.5c7,4,15.7,3.5,22.1-1.5l5.6-4.4c0.9-0.8,2.3-0.7,3.2,0.3l4.9,5.3
	c10,10.8,17.5,23.9,21.9,37.9l2.2,6.9c0.4,1.1-0.2,2.4-1.4,2.9l-6.7,2.7c-7.6,3-12.5,10.2-12.6,18.3c-0.1,8,4.8,15.3,12.2,18.2l0,0
	l6.8,2.7C467.7,392.8,468.3,394,468,395.2z"/>
<g>
	
		<linearGradient id="SVGID_00000047035166551396457210000013241034826102645909_" gradientUnits="userSpaceOnUse" x1="369.6486" y1="417.6075" x2="369.6486" y2="326.9578">
		<stop  offset="0" style="stop-color:#00385D"/>
		<stop  offset="1" style="stop-color:#020833"/>
	</linearGradient>
	
		<path style="fill:#FFFFFF;stroke:url(#SVGID_00000047035166551396457210000013241034826102645909_);stroke-width:7;stroke-miterlimit:10;" d="
		M405.9,351.4c-11.5-20-37.1-26.9-57.1-15.4c-20,11.5-26.9,37.1-15.4,57.1c11.5,20,37,26.9,57,15.4
		C410.4,397,417.4,371.4,405.9,351.4z M381.8,393.4c-11.7,6.8-26.7,2.7-33.5-9c-6.8-11.7-2.7-26.7,9-33.5c11.7-6.8,26.7-2.7,33.5,9
		c6.8,11.6,2.8,26.5-8.7,33.3C382,393.3,381.9,393.4,381.8,393.4z"/>
	
		<linearGradient id="SVGID_00000100381473759725244300000004372905381480161946_" gradientUnits="userSpaceOnUse" x1="369.5851" y1="475.3047" x2="369.5851" y2="269.3781">
		<stop  offset="0" style="stop-color:#00385D"/>
		<stop  offset="1" style="stop-color:#020833"/>
	</linearGradient>
	
		<path style="fill:#FFFFFF;stroke:url(#SVGID_00000100381473759725244300000004372905381480161946_);stroke-width:7;stroke-miterlimit:10;" d="
		M446.3,372.1c0.1-9,5.6-17.2,14-20.5l6.7-2.7l-2.2-6.9c-4.3-13.7-11.6-26.4-21.4-37l-4.9-5.3l-5.6,4.3c-7.1,5.5-16.9,6.2-24.7,1.7
		c-7.7-4.4-12-13.2-10.7-21.9l0.9-7.1l-7-1.5c-14.1-3.1-28.7-3.1-42.8,0l-7,1.5l0.9,7c1.5,12.2-7.2,23.4-19.5,24.9
		c-5.7,0.8-11.6-0.8-16.2-4.4l-5.6-4.3l-4.8,5.3c-9.8,10.6-17.1,23.2-21.5,36.9l-2.3,6.9l6.7,2.8c8.2,3.4,13.5,11.5,13.4,20.3
		c-0.1,9-5.5,17.1-13.9,20.5l-6.7,2.7l2.1,6.9c4.2,13.8,11.5,26.4,21.1,37.1l4.9,5.4l5.7-4.4c7.1-5.5,16.9-6.3,24.7-1.8
		s12,13.3,10.7,22.2l-1,7.1l7,1.6c7.2,1.6,14.6,2.4,22,2.4c7,0,14.1-0.8,21.1-2.3l7-1.5l-1-7.1c-1.7-12.2,6.8-23.4,19-25.1
		c6-0.8,12.1,0.8,16.8,4.6l5.6,4.5l4.9-5.4c9.9-10.7,17.2-23.4,21.6-37.1l2.3-7l-6.8-2.7C451.6,389.2,446.2,381,446.3,372.1z
		 M435.7,423.8c-18.7-9.4-41.5-1.9-50.9,16.8c-2.3,4.6-3.7,9.6-3.9,14.7c-7.8,1-15.7,1-23.5-0.1c-0.7-12.7-7.7-24.1-18.7-30.4
		c-11-6.3-24.3-6.8-35.7-1.1c-4.8-6.1-8.6-13-11.6-20.2c10.5-7,16.9-18.7,17-31.4c0.1-12.5-6.1-24.2-16.4-31.3
		c2.9-7.3,7-14.1,11.7-20.3c18.9,9.2,41.6,1.3,50.7-17.5c2.1-4.3,3.4-9,3.8-13.8c7.8-1.1,15.7-1.1,23.5,0
		c1.4,20.8,19.4,36.5,40.1,35.1c5-0.4,9.9-1.7,14.3-3.9c2.4,3.1,4.7,6.4,6.7,9.9c1.9,3.3,3.6,6.8,5,10.3c-10.6,7-17,18.7-17.1,31.4
		c-0.1,12.7,6.2,24.5,16.8,31.5C444.5,410.7,440.5,417.6,435.7,423.8L435.7,423.8z"/>
</g>
</svg>
