<svg width="71" height="71" viewBox="0 0 71 71" fill="none" xmlns="http://www.w3.org/2000/svg">
<path d="M52.7295 70.0749H18.5015C9.01944 70.0749 1.15625 62.2117 1.15625 52.7296V18.5016C1.15625 9.01953 9.01944 1.15634 18.5015 1.15634H52.7295C62.2116 1.15634 70.0748 9.01953 70.0748 18.5016V52.7296C70.0748 62.2117 62.2116 70.0749 52.7295 70.0749Z" fill="#EDEDED"/>
<path d="M25.6712 50.6482C26.5963 49.2606 27.2901 47.6417 27.9839 46.0228C28.6777 44.4039 29.1403 42.5537 29.8341 40.7036C30.5279 38.8534 31.2217 37.0033 31.9155 35.3844C32.6093 33.5342 33.7657 31.9153 34.922 30.0651C36.0784 28.4463 37.466 26.8274 39.0849 25.2085C40.7038 23.5896 42.7852 22.4332 45.0979 21.0456C42.7852 21.9707 40.4725 23.127 38.6224 24.5147C36.7722 25.9023 34.922 27.5212 33.5344 29.1401C31.9155 30.759 30.7592 32.3778 29.6028 33.7655C28.4465 35.3844 27.5214 36.5407 26.8276 37.6971C25.44 39.7785 24.0523 41.3974 22.896 43.0163C21.7396 44.6352 20.352 46.0228 19.1957 47.1791C17.808 48.3355 16.6517 49.2606 15.0328 49.9544C13.4139 50.6482 11.795 50.8795 10.1761 50.8795C9.25103 50.8795 8.55722 50.8795 7.86341 50.6482C7.1696 50.4169 6.47579 50.1857 6.01325 49.7231C5.55071 49.2606 4.8569 48.5668 4.62563 48.1042C4.39436 47.4104 4.16309 46.7166 4.16309 45.7915C4.16309 44.8664 4.39436 44.1726 5.08817 43.4788C5.55071 42.785 6.24452 42.5537 7.1696 42.5537C7.86341 42.5537 8.55722 42.785 9.01976 43.2476C9.4823 43.7101 9.71357 44.4039 9.71357 45.0977C9.71357 45.7915 9.4823 46.2541 9.25103 46.7166C9.01976 47.1792 8.32595 47.4104 7.86341 47.4104C8.09468 48.3355 8.32595 49.0293 8.78849 49.4919C9.25103 49.9544 9.94484 50.1857 10.8699 50.1857C12.4888 50.1857 14.1077 49.7231 15.4953 49.0293C16.883 48.1042 18.2706 47.1791 19.6582 45.7915C21.0458 44.4039 22.4334 42.785 23.8211 40.7036C25.2087 38.8534 26.8276 36.772 28.4465 34.6906C29.6028 32.8404 30.9904 31.2215 32.3781 29.8339C33.7657 28.215 35.1533 26.8274 36.7722 25.671C38.3911 24.5147 40.01 23.3583 41.8602 22.4332C43.7103 21.5081 45.5605 20.5831 47.8732 20.1205L48.1045 20.5831C46.7168 20.8143 45.3292 21.9707 44.1729 23.127C43.0165 24.2834 42.0914 25.671 41.3976 27.2899C40.7038 28.6775 39.7787 30.2964 39.3162 31.9153C38.6224 33.5342 37.9286 35.3844 37.2347 37.0033C36.5409 38.8534 35.6159 40.4723 34.6908 42.3225C33.7657 44.1726 32.3781 45.7915 30.7592 47.4104C31.9155 46.4853 32.8406 45.5603 33.7657 44.6352C34.6908 43.7101 35.6159 42.5537 36.7722 41.3974C37.9286 40.241 39.0849 38.8534 40.2413 37.2345C41.6289 35.6156 43.0165 33.7655 44.6354 31.4528C45.7917 29.8339 47.1794 28.215 48.567 26.8274C49.9546 25.4397 51.5735 24.2834 52.9611 23.127C54.58 22.202 56.1989 21.2769 58.0491 20.8143C59.8992 20.1205 61.7494 19.8893 63.8308 19.8893C64.9872 19.8893 65.681 19.8893 66.1435 20.1205C66.8373 20.3518 67.0686 20.5831 67.0686 21.0456C67.0686 21.2769 66.8373 21.2769 66.6061 21.5081C66.3748 21.7394 66.1435 21.7394 65.681 21.7394C65.2185 21.7394 64.7559 21.7394 64.5246 21.7394C64.2934 21.7394 63.8308 21.7394 63.5996 21.5081C63.3683 21.5081 63.137 21.5081 62.6745 21.2769C62.2119 21.2769 61.9807 21.2769 61.7494 21.2769C61.2869 21.2769 60.593 21.5081 60.1305 21.9707C59.4367 22.4332 58.7429 23.127 58.2803 24.0521C57.8178 24.9772 56.8927 25.9023 56.1989 27.2899C55.5051 28.4463 54.8113 29.8339 54.3488 31.4528C53.4237 33.9967 52.4986 36.0782 51.5735 38.1596C50.6484 40.0098 49.7233 41.8599 48.567 43.4788C47.4106 45.0977 46.023 46.4853 44.4041 47.6417C42.7852 48.798 40.9351 49.9544 38.6224 50.6482C40.2413 50.6482 41.8601 50.4169 43.479 50.1857C45.0979 49.9544 46.7168 49.4919 48.1045 48.798C49.7233 48.1042 51.111 47.1791 52.4986 45.7915C53.8862 44.4039 55.5051 42.3225 57.124 39.7785L57.5865 40.0098C56.4302 42.0912 55.0426 43.9414 53.8862 45.329C52.7299 46.7166 51.3422 47.873 49.9546 48.5668C48.7983 49.2606 47.8732 49.7231 46.7168 49.9544C45.5605 50.4169 44.4041 50.6482 43.479 50.6482C42.3227 50.8795 41.3976 50.8795 40.4725 50.8795C39.5474 50.8795 38.8536 50.8795 38.1598 50.8795C37.9286 50.8795 37.6973 50.8795 37.466 50.8795C37.2347 50.8795 37.0035 50.8795 36.7722 51.1107C36.5409 51.1107 36.0784 51.1107 35.8471 51.1107C35.6159 51.1107 35.1533 51.1107 34.4595 51.1107C33.5344 51.1107 33.0719 50.8795 33.0719 50.4169C33.0719 49.9544 33.5344 49.7231 34.2282 49.7231C34.4595 49.7231 34.6908 49.7231 35.1533 49.7231C35.3846 49.7231 35.8471 49.9544 36.0784 49.9544C36.3097 49.9544 36.7722 50.1857 37.0035 50.1857C37.2347 50.1857 37.466 50.1857 37.6973 50.1857C38.3911 50.1857 38.8536 49.9544 39.5474 49.2606C40.2413 48.5668 40.7038 47.6417 41.3976 46.7166C42.0914 45.5603 42.554 44.4039 43.2478 42.785C43.9416 41.3974 44.6354 39.7785 45.3292 38.1596C46.023 36.5407 46.9481 34.9218 47.8732 33.3029C48.7983 31.684 49.9546 30.0651 51.111 28.4463C52.2673 26.8274 53.6549 25.4397 55.2738 24.2834C56.6615 23.127 58.5116 21.9707 60.3618 21.2769C58.9742 21.7394 57.3553 22.202 55.9676 22.8958C54.58 23.5896 53.1924 24.5147 52.036 25.671C50.8797 26.5961 49.4921 27.9837 48.3357 29.1401C47.1794 30.5277 46.023 31.9153 44.8667 33.3029C43.7103 34.6906 42.554 36.3094 41.1663 38.1596C39.7787 40.0098 38.1598 41.6287 36.7722 43.4788C35.1533 45.0977 33.5344 46.7166 31.9155 48.1042C30.2966 49.4919 28.4465 50.6482 26.8276 51.342L25.6712 50.6482Z" fill="black"/>
<path d="M56.8926 44.6352C57.8177 44.6352 58.5115 44.8664 59.2053 45.5602C59.8991 46.2541 60.1304 46.9479 60.1304 47.873C60.1304 48.798 59.8991 49.4918 59.2053 50.1857C58.5115 50.8795 57.8177 51.1107 56.8926 51.1107C55.9675 51.1107 55.2737 50.8795 54.5799 50.1857C53.8861 49.4918 53.6548 48.798 53.6548 47.873C53.6548 46.9479 53.8861 46.2541 54.5799 45.5602C55.0424 44.8664 55.9675 44.6352 56.8926 44.6352Z" fill="black"/>
</svg>
