<?xml version="1.0" encoding="utf-8"?>
<!-- Generator: Adobe Illustrator 26.4.1, SVG Export Plug-In . SVG Version: 6.00 Build 0)  -->
<svg version="1.1" id="Layer_1" xmlns="http://www.w3.org/2000/svg" xmlns:xlink="http://www.w3.org/1999/xlink" x="0px" y="0px"
	 viewBox="0 0 71 71" style="enable-background:new 0 0 71 71;" xml:space="preserve">
<style type="text/css">
	.st0{fill:#EDEDED;}
</style>
<path class="st0" d="M52.3,69.4H18.3c-9.4,0-17.2-7.8-17.2-17.2V18.3c0-9.4,7.8-17.2,17.2-17.2h33.9c9.4,0,17.2,7.8,17.2,17.2v33.9
	C69.4,61.6,61.6,69.4,52.3,69.4z"/>
<path d="M25.4,50.2c0.9-1.4,1.6-3,2.3-4.6c0.7-1.6,1.1-3.4,1.8-5.3c0.7-1.8,1.4-3.7,2.1-5.3c0.7-1.8,1.8-3.4,3-5.3
	c1.1-1.6,2.5-3.2,4.1-4.8c1.6-1.6,3.7-2.7,6-4.1c-2.3,0.9-4.6,2.1-6.4,3.4c-1.8,1.4-3.7,3-5,4.6c-1.6,1.6-2.7,3.2-3.9,4.6
	c-1.1,1.6-2.1,2.7-2.7,3.9c-1.4,2.1-2.7,3.7-3.9,5.3c-1.1,1.6-2.5,3-3.7,4.1c-1.4,1.1-2.5,2.1-4.1,2.7c-1.6,0.7-3.2,0.9-4.8,0.9
	c-0.9,0-1.6,0-2.3-0.2S6.4,49.7,6,49.3c-0.5-0.5-1.1-1.1-1.4-1.6c-0.2-0.7-0.5-1.4-0.5-2.3s0.2-1.6,0.9-2.3c0.5-0.7,1.1-0.9,2.1-0.9
	c0.7,0,1.4,0.2,1.8,0.7c0.5,0.5,0.7,1.1,0.7,1.8c0,0.7-0.2,1.1-0.5,1.6C8.9,46.8,8.3,47,7.8,47C8,47.9,8.3,48.6,8.7,49
	c0.5,0.5,1.1,0.7,2.1,0.7c1.6,0,3.2-0.5,4.6-1.1c1.4-0.9,2.7-1.8,4.1-3.2s2.7-3,4.1-5c1.4-1.8,3-3.9,4.6-6c1.1-1.8,2.5-3.4,3.9-4.8
	c1.4-1.6,2.7-3,4.4-4.1c1.6-1.1,3.2-2.3,5-3.2c1.8-0.9,3.7-1.8,6-2.3l0.2,0.5c-1.4,0.2-2.7,1.4-3.9,2.5c-1.1,1.1-2.1,2.5-2.7,4.1
	c-0.7,1.4-1.6,3-2.1,4.6c-0.7,1.6-1.4,3.4-2.1,5c-0.7,1.8-1.6,3.4-2.5,5.3c-0.9,1.8-2.3,3.4-3.9,5c1.1-0.9,2.1-1.8,3-2.7
	c0.9-0.9,1.8-2.1,3-3.2c1.1-1.1,2.3-2.5,3.4-4.1c1.4-1.6,2.7-3.4,4.4-5.7c1.1-1.6,2.5-3.2,3.9-4.6c1.4-1.4,3-2.5,4.4-3.7
	c1.6-0.9,3.2-1.8,5-2.3c1.8-0.7,3.7-0.9,5.7-0.9c1.1,0,1.8,0,2.3,0.2c0.7,0.2,0.9,0.5,0.9,0.9c0,0.2-0.2,0.2-0.5,0.5
	c-0.2,0.2-0.5,0.2-0.9,0.2s-0.9,0-1.1,0c-0.2,0-0.7,0-0.9-0.2c-0.2,0-0.5,0-0.9-0.2c-0.5,0-0.7,0-0.9,0c-0.5,0-1.1,0.2-1.6,0.7
	c-0.7,0.5-1.4,1.1-1.8,2.1c-0.5,0.9-1.4,1.8-2.1,3.2c-0.7,1.1-1.4,2.5-1.8,4.1c-0.9,2.5-1.8,4.6-2.7,6.6c-0.9,1.8-1.8,3.7-3,5.3
	c-1.1,1.6-2.5,3-4.1,4.1c-1.6,1.1-3.4,2.3-5.7,3c1.6,0,3.2-0.2,4.8-0.5c1.6-0.2,3.2-0.7,4.6-1.4c1.6-0.7,3-1.6,4.4-3
	c1.4-1.4,3-3.4,4.6-6l0.5,0.2c-1.1,2.1-2.5,3.9-3.7,5.3c-1.1,1.4-2.5,2.5-3.9,3.2c-1.1,0.7-2.1,1.1-3.2,1.4
	c-1.1,0.5-2.3,0.7-3.2,0.7c-1.1,0.2-2.1,0.2-3,0.2s-1.6,0-2.3,0c-0.2,0-0.5,0-0.7,0c-0.2,0-0.5,0-0.7,0.2c-0.2,0-0.7,0-0.9,0
	c-0.2,0-0.7,0-1.4,0c-0.9,0-1.4-0.2-1.4-0.7c0-0.5,0.5-0.7,1.1-0.7c0.2,0,0.5,0,0.9,0c0.2,0,0.7,0.2,0.9,0.2s0.7,0.2,0.9,0.2
	c0.2,0,0.5,0,0.7,0c0.7,0,1.1-0.2,1.8-0.9c0.7-0.7,1.1-1.6,1.8-2.5c0.7-1.1,1.1-2.3,1.8-3.9c0.7-1.4,1.4-3,2.1-4.6
	c0.7-1.6,1.6-3.2,2.5-4.8c0.9-1.6,2.1-3.2,3.2-4.8c1.1-1.6,2.5-3,4.1-4.1c1.4-1.1,3.2-2.3,5-3c-1.4,0.5-3,0.9-4.4,1.6
	c-1.4,0.7-2.7,1.6-3.9,2.7c-1.1,0.9-2.5,2.3-3.7,3.4c-1.1,1.4-2.3,2.7-3.4,4.1c-1.1,1.4-2.3,3-3.7,4.8c-1.4,1.8-3,3.4-4.4,5.3
	c-1.6,1.6-3.2,3.2-4.8,4.6c-1.6,1.4-3.4,2.5-5,3.2L25.4,50.2z"/>
<path d="M56.4,44.2c0.9,0,1.6,0.2,2.3,0.9c0.7,0.7,0.9,1.4,0.9,2.3c0,0.9-0.2,1.6-0.9,2.3c-0.7,0.7-1.4,0.9-2.3,0.9
	c-0.9,0-1.6-0.2-2.3-0.9c-0.7-0.7-0.9-1.4-0.9-2.3c0-0.9,0.2-1.6,0.9-2.3C54.5,44.5,55.5,44.2,56.4,44.2z"/>
</svg>
