<svg width="67" height="70" viewBox="0 0 67 70" fill="none" xmlns="http://www.w3.org/2000/svg">
<g clip-path="url(#clip0_58_1050)">
<path d="M13.8532 68.2925C6.54513 68.2925 0.611816 62.335 0.611816 54.997V14.0568C0.611816 6.71886 6.54513 0.761292 13.8532 0.761292H52.7092C60.0173 0.761292 65.9506 6.71886 65.9506 14.0568V54.997C65.9506 62.335 60.0173 68.2925 52.7092 68.2925H13.8532Z" fill="url(#paint0_linear_58_1050)"/>
<path d="M52.7094 1.30617C59.7281 1.30617 65.4081 7.04578 65.4081 14.0568V54.997C65.4081 62.0443 59.6919 67.7476 52.7094 67.7476H13.8534C6.83476 67.7476 1.1547 62.008 1.1547 54.997V14.0568C1.1547 7.04578 6.87094 1.30617 13.8534 1.30617H52.7094ZM52.7094 0.21637H13.8534C6.2559 0.21637 0.0693359 6.42823 0.0693359 14.0568V54.997C0.0693359 62.6619 6.2559 68.8374 13.8534 68.8374H52.7094C60.3431 68.8374 66.4935 62.6255 66.4935 54.997V14.0568C66.4935 6.42823 60.3431 0.21637 52.7094 0.21637Z" fill="#0C8C44"/>
<path d="M53.2522 51.8004C52.6371 52.9992 51.1538 53.4715 49.9599 52.8539C40.4811 47.7682 28.9401 47.2233 15.5901 51.2555C14.3239 51.6551 12.9491 50.8923 12.5873 49.5845C12.2255 48.2768 12.9491 46.8963 14.2153 46.4968C28.7953 42.0649 41.5664 42.7551 52.203 48.4584C53.3969 49.1123 53.8672 50.6017 53.2522 51.8004Z" fill="white" stroke="#006838" stroke-width="1.5" stroke-miterlimit="10"/>
<path d="M57.3042 39.6309C56.5444 41.193 54.6631 41.8469 53.1075 41.0477C41.7835 35.2354 25.2498 34.7268 12.8767 39.8126C11.2848 40.4665 9.43973 39.6673 8.82469 38.0326C8.20966 36.3979 8.96941 34.5452 10.5613 33.8913C24.671 28.1154 42.9051 28.6966 55.8932 35.3807C57.4489 36.1436 58.064 38.0689 57.3042 39.6309Z" fill="white" stroke="#006838" stroke-width="1.5" stroke-miterlimit="10"/>
<path d="M56.3274 28.188C42.9051 21.2496 21.5596 22.0125 9.47593 26.6986C7.52228 27.4615 5.35156 26.4443 4.62798 24.4827C3.90441 22.521 4.88123 20.3051 6.79871 19.5422C20.6552 14.1659 44.2075 13.3667 59.692 21.3586C61.5371 22.3031 62.2969 24.628 61.3562 26.517C60.4156 28.3696 58.1725 29.1325 56.3274 28.188Z" fill="white" stroke="#006838" stroke-width="1.5" stroke-miterlimit="10"/>
<path d="M57.3098 59.9951C56.3948 61.0159 54.9715 61.22 54.0566 60.8117C53.5483 60.6076 53.04 60.1992 53.04 59.2805C52.8366 55.6057 50.3967 53.258 47.8552 52.5434C47.9568 52.033 47.9568 51.6247 47.9568 51.1143C47.8552 48.5624 46.8386 45.8063 45.1103 43.4585C41.4505 38.4567 30.4709 28.6572 19.8981 19.0619C18.3731 17.7348 16.8482 16.3058 15.4249 14.9787C14.205 13.8559 12.8834 13.958 12.1717 14.5704C11.3584 15.1829 10.9518 16.4078 11.7651 17.8369C17.7632 30.3925 26.7094 47.2354 31.8942 53.7683C33.5208 55.8099 35.5541 57.4431 37.7906 58.1577C37.384 63.5678 41.2471 68.0592 47.0419 68.7738C53.2433 69.5904 58.4281 66.0177 59.038 60.6076L59.343 57.9535L57.3098 59.9951ZM13.0867 17.1224C12.7817 16.612 12.8834 16.2037 12.985 15.9995C13.0867 15.8974 13.1884 15.8974 13.29 15.8974C13.4934 15.8974 13.6967 15.9995 14.0017 16.3058C15.5266 17.6328 16.9499 18.9598 18.4748 20.3889C29.1493 29.8821 40.0272 39.6816 43.5854 44.4793C45.212 46.5208 46.0253 48.8686 46.1269 51.1143C46.1269 53.2579 45.4153 54.9933 44.0937 56.1161C42.7721 57.1369 40.8405 57.4431 38.8072 56.8307C36.6723 56.2182 34.6391 54.7891 33.0125 52.7476C28.2344 46.725 19.5931 30.5967 13.0867 17.1224ZM47.0419 67.1405C42.3654 66.5281 39.2139 63.0574 39.3156 58.7702C39.5189 58.7702 39.7222 58.8722 39.8239 58.8722C41.8571 59.1785 43.7887 58.6681 45.212 57.5452C46.2286 56.7286 47.0419 55.6057 47.4485 54.2787C49.1768 54.7891 51.1084 56.5244 51.3117 59.3826C51.3117 60.8117 52.125 62.0367 53.4466 62.547C54.4632 62.9554 55.4799 62.8533 56.4965 62.547C54.9715 66.1198 50.8034 67.6509 47.0419 67.1405Z" fill="url(#paint1_linear_58_1050)"/>
<path d="M48.465 69.4883C47.855 69.4883 47.3467 69.4883 46.7367 69.3862C40.8403 68.6717 36.8755 64.1803 37.0788 58.6681C34.9439 57.7494 32.9106 56.2182 31.284 54.1766C25.9976 47.6437 17.153 30.6987 11.1549 18.1431C10.24 16.5099 10.7483 14.9787 11.6632 14.2642C12.5782 13.5496 14.2048 13.4476 15.6281 14.7746L16.7463 15.7954C17.8646 16.8161 18.9829 17.8369 20.1012 18.8577L20.2029 18.9598C30.7757 28.453 41.6536 38.2525 45.3134 43.2543C47.1434 45.6021 48.2616 48.4603 48.2616 51.2164C48.2616 51.6247 48.2616 51.9309 48.2616 52.3392C50.7015 53.2579 53.2431 55.7078 53.4464 59.4847C53.4464 60.0972 53.6497 60.4034 54.1581 60.6075C54.8697 60.9138 56.0896 60.7096 56.9029 59.893L59.7495 56.7286L59.2412 60.9138C58.9362 63.6699 57.4112 66.1197 55.073 67.6509C53.2431 68.7738 50.9049 69.4883 48.465 69.4883ZM13.2898 14.6725C12.8832 14.6725 12.5782 14.7746 12.2732 14.9787C11.6632 15.4891 11.3583 16.4078 11.9682 17.6328C18.068 30.0863 26.9126 47.0312 32.0973 53.4621C33.6223 55.5036 35.6555 56.9327 37.7904 57.7494L38.0954 57.8514V58.2598C37.7904 63.3636 41.4503 67.6509 46.8384 68.3655C49.6849 68.6717 52.4298 68.1613 54.5647 66.7322C56.6996 65.3031 58.0212 63.1595 58.3262 60.6075L58.4279 59.4847L57.6146 60.3013C56.4963 61.5262 54.8697 61.7304 53.8531 61.3221C53.0398 61.0159 52.5315 60.3013 52.5315 59.2805C52.3281 55.8099 49.9899 53.6662 47.6517 52.9517L47.3467 52.8496V52.4413C47.4483 52.033 47.4483 51.5226 47.4483 51.1143C47.3467 48.6644 46.4317 46.0104 44.7035 43.7647C41.0436 38.865 30.1658 29.0655 19.6946 19.6743L19.5929 19.5722C18.4746 18.5515 17.3563 17.5307 16.238 16.5099L15.1198 15.4891C14.4081 14.8767 13.7981 14.6725 13.2898 14.6725ZM48.3633 67.753C47.855 67.753 47.4483 67.753 46.94 67.6509C42.0602 67.0384 38.7054 63.2616 38.8071 58.7701V58.1577L39.417 58.2598C39.6204 58.2598 39.8237 58.3618 39.9253 58.3618C41.8569 58.566 43.5852 58.1577 44.9068 57.1369C45.9234 56.4224 46.5334 55.4016 47.0417 54.0746L47.245 53.5642L47.7533 53.6662C49.6849 54.2787 51.7182 56.3203 51.9215 59.2805C51.9215 60.5055 52.6331 61.5262 53.7514 61.9346C54.5647 62.2408 55.5813 62.2408 56.4963 61.9346L57.5129 61.6283L57.1063 62.6491C55.4797 66.2218 51.7182 67.753 48.3633 67.753ZM39.722 59.2805C39.9253 63.0574 42.8735 66.1197 47.0417 66.6301C49.9899 67.0384 53.8531 66.0177 55.5813 63.1595C54.768 63.2616 53.9547 63.1595 53.2431 62.8533C51.7182 62.2408 50.8032 60.9138 50.7015 59.2805C50.5999 57.0348 49.1766 55.5036 47.6517 54.7891C47.1434 56.014 46.4317 57.0348 45.4151 57.8514C43.8902 59.0764 41.9586 59.5868 39.722 59.2805ZM40.8403 57.6473C40.1287 57.6473 39.417 57.5452 38.7054 57.341C36.4688 56.7286 34.3339 55.1974 32.7073 53.0538C27.9292 47.0312 19.2879 30.8008 12.7815 17.3265C12.3749 16.5099 12.4765 15.8974 12.8832 15.5912C12.9848 15.4891 13.2898 15.387 13.5948 15.387C13.8998 15.387 14.3065 15.5912 14.6114 15.8974L15.0181 16.3057C16.3397 17.5307 17.763 18.7556 19.0846 19.9805C29.4541 29.5759 40.4336 39.3753 43.9918 44.173C45.6184 46.3166 46.5334 48.7665 46.635 51.1143C46.7367 53.4621 45.9234 55.2995 44.3985 56.5244C43.4835 57.239 42.1619 57.6473 40.8403 57.6473ZM13.3915 16.4078C13.3915 16.5099 13.3915 16.612 13.4932 16.8161C19.9995 30.1883 28.6408 46.4187 33.3173 52.3392C34.8422 54.2787 36.7738 55.7078 38.8071 56.3203C40.7386 56.8307 42.4669 56.6265 43.6868 55.6057C44.9068 54.687 45.6184 53.0538 45.5168 51.0122C45.4151 48.8686 44.6018 46.6229 43.0769 44.6834C39.722 39.9878 28.8442 30.1883 18.2713 20.7972C16.9497 19.5722 15.5264 18.3473 14.2048 17.1224L13.7981 16.7141C13.5948 16.612 13.4932 16.5099 13.3915 16.4078Z" fill="#046938"/>
<path d="M56.598 62.4449C55.073 66.0176 50.8032 67.5488 47.0417 67.1405C42.3652 66.528 39.2137 63.0574 39.3154 58.7701C39.5187 58.7701 39.722 58.8722 39.8237 58.8722C41.8569 59.1784 43.7885 58.668 45.2118 57.5452C46.2284 56.7286 47.0417 55.6057 47.4484 54.2787C49.1766 54.7891 51.1082 56.5244 51.3115 59.3826C51.3115 60.8117 52.1248 62.0366 53.4464 62.547C54.4631 62.8532 55.5813 62.8532 56.598 62.4449Z" fill="white"/>
<path d="M48.3632 67.753C47.8549 67.753 47.4482 67.753 46.9399 67.6509C42.0601 67.0384 38.7053 63.2615 38.8069 58.7701V58.1577L39.4169 58.2597C39.6202 58.2597 39.7219 58.3618 39.9252 58.3618C41.8568 58.566 43.5851 58.1577 44.9067 57.1369C45.9233 56.4223 46.5333 55.4015 47.0416 54.0745L47.2449 53.5641L47.7532 53.6662C49.6848 54.2787 51.718 56.2182 51.9214 59.2805C51.9214 60.5054 52.633 61.5262 53.7513 61.9345C54.5646 62.2408 55.5812 62.2408 56.4962 61.9345L57.5128 61.6283L57.1061 62.6491C55.4795 66.2218 51.718 67.753 48.3632 67.753ZM39.7219 59.2805C39.9252 63.0574 42.8734 66.1197 47.0416 66.6301C49.9898 67.0384 53.8529 66.0176 55.5812 63.1595C54.7679 63.2615 53.9546 63.1595 53.243 62.8532C51.718 62.2408 50.8031 60.9138 50.8031 59.2805C50.7014 57.0348 49.2781 55.4015 47.7532 54.7891C47.2449 56.014 46.5333 57.0348 45.5166 57.8514C43.89 59.0764 41.9585 59.5867 39.7219 59.2805Z" fill="#046938"/>
<path d="M44.0931 56.1161C42.6698 57.1369 40.8399 57.4432 38.8067 56.8307C36.6718 56.2182 34.6385 54.7891 33.0119 52.7476C28.2338 46.725 19.5925 30.4946 13.0861 17.1224C12.7812 16.612 12.8828 16.2037 12.9845 15.9995C13.0861 15.8975 13.1878 15.8975 13.2895 15.8975C13.4928 15.8975 13.6961 15.9995 14.0011 16.3058C15.526 17.6328 16.9493 18.9598 18.4742 20.3889C29.1488 29.8821 40.0266 39.6816 43.5848 44.4793C45.2114 46.5208 46.0247 48.8686 46.1264 51.1143C46.228 53.258 45.5164 54.9933 44.0931 56.1161Z" fill="white"/>
<path d="M40.8401 57.6473C40.1285 57.6473 39.4168 57.5452 38.7052 57.3411C36.4686 56.7286 34.3337 55.1974 32.7071 53.0538C27.929 47.0312 19.1861 30.8008 12.7813 17.3265C12.3747 16.612 12.4763 15.8974 12.883 15.6933C13.0863 15.5912 13.2896 15.4891 13.5946 15.4891C13.8996 15.4891 14.3063 15.6933 14.6113 15.9995C15.4246 16.7141 16.2379 17.5307 17.0511 18.2452C17.7628 18.8577 18.3728 19.4702 19.0844 20.0826C29.4539 29.5759 40.4335 39.3754 43.9916 44.173C45.6182 46.3167 46.5332 48.7665 46.6349 51.1143C46.7365 53.36 45.9232 55.2995 44.3983 56.5244C43.4833 57.239 42.2634 57.6473 40.8401 57.6473ZM13.3913 16.5099C13.3913 16.612 13.3913 16.7141 13.493 16.9182C19.9994 30.3925 28.6406 46.5208 33.3171 52.5434C34.842 54.4829 36.7736 55.912 38.8069 56.5244C40.7384 57.0348 42.4667 56.8307 43.6867 55.8099C44.9066 54.7891 45.6182 53.1559 45.5166 51.2164C45.4149 49.0728 44.6016 46.827 43.0767 44.8876C39.7218 39.9878 28.844 30.1883 18.2711 20.7972C17.5595 20.1847 16.9495 19.5723 16.2378 18.9598C15.4246 18.2452 14.6113 17.4286 13.798 16.7141C13.5946 16.612 13.493 16.5099 13.3913 16.5099Z" fill="#046938"/>
</g>
<defs>
<linearGradient id="paint0_linear_58_1050" x1="33.2896" y1="0.765869" x2="33.2896" y2="68.2953" gradientUnits="userSpaceOnUse">
<stop stop-color="#55BA5C"/>
<stop offset="0.2021" stop-color="#50B058"/>
<stop offset="0.4603" stop-color="#409D51"/>
<stop offset="0.7477" stop-color="#248245"/>
<stop offset="1" stop-color="#015129"/>
</linearGradient>
<linearGradient id="paint1_linear_58_1050" x1="8.35426" y1="38.7998" x2="3275.01" y2="447.659" gradientUnits="userSpaceOnUse">
<stop stop-color="#56BA5C"/>
<stop offset="0.106" stop-color="#57B760"/>
<stop offset="0.2415" stop-color="#54B16A"/>
<stop offset="0.3931" stop-color="#54AA7A"/>
<stop offset="0.5565" stop-color="#519D8A"/>
<stop offset="0.7292" stop-color="#508E9B"/>
<stop offset="0.9071" stop-color="#4D7BAD"/>
<stop offset="1" stop-color="#4D70B6"/>
</linearGradient>
<clipPath id="clip0_58_1050">
<rect width="67" height="70" fill="white"/>
</clipPath>
</defs>
</svg>
