<svg width="100" height="100" viewBox="0 0 100 100" fill="none" xmlns="http://www.w3.org/2000/svg">
<rect opacity="0.3" x="0.5" y="0.5" width="99" height="99" rx="49.5" fill="#1A1C2D" stroke="#576486"/>
<rect x="10.5" y="10.5" width="79" height="79" rx="39.5" fill="url(#paint0_linear_85_4)" stroke="#576486"/>
<path d="M72.3687 53.3292C72.2041 53.4544 72.0169 53.5454 71.8176 53.5972C71.6183 53.649 71.4109 53.6604 71.2073 53.6309C71.0036 53.6014 70.8077 53.5315 70.6307 53.4253C70.4537 53.319 70.299 53.1784 70.1756 53.0115C69.2314 51.7247 68.0025 50.6806 66.5876 49.9633C65.1728 49.246 63.6117 48.8756 62.0299 48.8818C61.7218 48.8818 61.4206 48.7897 61.1639 48.617C60.9073 48.4443 60.7065 48.1987 60.5867 47.9109C60.5054 47.7155 60.4635 47.5056 60.4635 47.2935C60.4635 47.0814 60.5054 46.8714 60.5867 46.676C60.7065 46.3882 60.9073 46.1426 61.1639 45.9699C61.4206 45.7973 61.7218 45.7051 62.0299 45.7051C62.9088 45.705 63.7701 45.455 64.5159 44.9835C65.2618 44.5119 65.8622 43.8378 66.2491 43.0376C66.636 42.2373 66.7939 41.3431 66.7047 40.4565C66.6155 39.5699 66.2829 38.7264 65.7446 38.0219C65.2063 37.3174 64.484 36.78 63.6596 36.4709C62.8352 36.1617 61.9419 36.0932 61.081 36.273C60.2202 36.4529 59.4263 36.8739 58.7896 37.4883C58.1529 38.1027 57.6989 38.8859 57.4792 39.7488C57.4278 39.9509 57.3376 40.1407 57.2138 40.3074C57.09 40.4741 56.9351 40.6145 56.7578 40.7205C56.5805 40.8265 56.3844 40.8961 56.1806 40.9252C55.9768 40.9544 55.7693 40.9426 55.57 40.8904C55.3708 40.8383 55.1836 40.7468 55.0191 40.6213C54.8547 40.4958 54.7162 40.3387 54.6117 40.159C54.5071 39.9792 54.4385 39.7803 54.4098 39.5737C54.381 39.367 54.3927 39.1567 54.4441 38.9546C54.7491 37.758 55.3253 36.6501 56.1269 35.719C56.9285 34.788 57.9333 34.0595 59.0615 33.5914C60.1896 33.1234 61.4099 32.9288 62.6252 33.0232C63.8406 33.1175 65.0174 33.4981 66.0622 34.1348C67.1069 34.7714 67.9907 35.6465 68.6432 36.6905C69.2956 37.7344 69.6988 38.9183 69.8207 40.148C69.9425 41.3777 69.7796 42.6193 69.3449 43.774C68.9102 44.9286 68.2157 45.9645 67.3168 46.7991C69.4468 47.7342 71.2985 49.2182 72.6879 51.1035C72.8113 51.2708 72.901 51.4612 72.9517 51.6636C73.0025 51.8661 73.0133 52.0768 72.9837 52.2835C72.954 52.4903 72.8845 52.689 72.7789 52.8685C72.6734 53.0479 72.534 53.2045 72.3687 53.3292ZM61.8184 65.5595C61.9317 65.7403 62.0078 65.9425 62.0421 66.1539C62.0764 66.3652 62.0682 66.5815 62.0179 66.7895C61.9676 66.9976 61.8764 67.1932 61.7496 67.3646C61.6229 67.536 61.4633 67.6796 61.2803 67.7868C61.0974 67.894 60.895 67.9626 60.6853 67.9884C60.4756 68.0142 60.2628 67.9968 60.0599 67.9371C59.857 67.8774 59.6681 67.7767 59.5046 67.6411C59.3411 67.5055 59.2063 67.3377 59.1084 67.1479C58.1216 65.4537 56.7162 64.0496 55.0308 63.0742C53.3455 62.0988 51.4385 61.5857 49.4979 61.5857C47.5574 61.5857 45.6504 62.0988 43.965 63.0742C42.2797 64.0496 40.8743 65.4537 39.8875 67.1479C39.7896 67.3377 39.6548 67.5055 39.4913 67.6411C39.3277 67.7767 39.1388 67.8774 38.9359 67.9371C38.733 67.9968 38.5203 68.0142 38.3106 67.9884C38.1009 67.9626 37.8985 67.894 37.7155 67.7868C37.5326 67.6796 37.373 67.536 37.2462 67.3646C37.1195 67.1932 37.0282 66.9976 36.978 66.7895C36.9277 66.5815 36.9195 66.3652 36.9538 66.1539C36.988 65.9425 37.0642 65.7403 37.1775 65.5595C38.6962 62.9137 41.0119 60.8316 43.7842 59.6191C42.2242 58.408 41.0777 56.7318 40.5059 54.8259C39.9341 52.92 39.9656 50.8804 40.5962 48.9936C41.2267 47.1069 42.4245 45.4679 44.0212 44.3071C45.6179 43.1463 47.5332 42.522 49.4979 42.522C51.4626 42.522 53.378 43.1463 54.9746 44.3071C56.5713 45.4679 57.7691 47.1069 58.3997 48.9936C59.0302 50.8804 59.0618 52.92 58.49 54.8259C57.9182 56.7318 56.7717 58.408 55.2117 59.6191C57.984 60.8316 60.2997 62.9137 61.8184 65.5595ZM49.4979 58.4119C50.7372 58.4119 51.9487 58.0393 52.9791 57.3412C54.0096 56.6431 54.8127 55.6508 55.2869 54.4899C55.7612 53.3289 55.8853 52.0515 55.6435 50.819C55.4017 49.5866 54.805 48.4545 53.9286 47.566C53.0523 46.6774 51.9358 46.0723 50.7204 45.8272C49.5049 45.582 48.245 45.7079 47.1001 46.1887C45.9551 46.6696 44.9765 47.4839 44.288 48.5288C43.5995 49.5736 43.232 50.8019 43.232 52.0585C43.232 53.7436 43.8921 55.3596 45.0672 56.5511C46.2423 57.7426 47.8361 58.4119 49.4979 58.4119ZM38.5325 47.2935C38.5325 46.8722 38.3675 46.4682 38.0737 46.1703C37.7799 45.8725 37.3815 45.7051 36.966 45.7051C36.0871 45.705 35.2258 45.455 34.4799 44.9835C33.7341 44.5119 33.1336 43.8378 32.7467 43.0376C32.3598 42.2373 32.202 41.3431 32.2912 40.4565C32.3804 39.5699 32.713 38.7264 33.2513 38.0219C33.7896 37.3174 34.5119 36.78 35.3363 36.4709C36.1606 36.1617 37.054 36.0932 37.9149 36.273C38.7757 36.4529 39.5696 36.8739 40.2063 37.4883C40.8429 38.1027 41.2969 38.8859 41.5167 39.7488C41.6205 40.1569 41.88 40.5064 42.2381 40.7205C42.5961 40.9346 43.0234 40.9957 43.4258 40.8904C43.8283 40.7851 44.173 40.522 44.3842 40.159C44.5953 39.7959 44.6556 39.3627 44.5517 38.9546C44.2468 37.758 43.6705 36.6501 42.869 35.719C42.0674 34.788 41.0626 34.0595 39.9344 33.5914C38.8063 33.1234 37.586 32.9288 36.3707 33.0232C35.1553 33.1175 33.9785 33.4981 32.9337 34.1348C31.889 34.7714 31.0052 35.6465 30.3527 36.6905C29.7002 37.7344 29.297 38.9183 29.1752 40.148C29.0534 41.3777 29.2163 42.6193 29.651 43.774C30.0857 44.9286 30.7801 45.9645 31.6791 46.7991C29.5512 47.7351 27.7016 49.219 26.3139 51.1035C26.1903 51.2704 26.1004 51.4603 26.0492 51.6624C25.998 51.8645 25.9866 52.0749 26.0156 52.2815C26.0446 52.488 26.1135 52.6868 26.2182 52.8664C26.323 53.046 26.4616 53.2029 26.6262 53.3282C26.7908 53.4535 26.9781 53.5447 27.1774 53.5966C27.3767 53.6485 27.5842 53.66 27.7879 53.6306C27.9917 53.6012 28.1877 53.5314 28.3648 53.4252C28.542 53.319 28.6967 53.1784 28.8203 53.0115C29.7644 51.7247 30.9934 50.6806 32.4082 49.9633C33.8231 49.246 35.3842 48.8756 36.966 48.8818C37.3815 48.8818 37.7799 48.7145 38.0737 48.4166C38.3675 48.1187 38.5325 47.7147 38.5325 47.2935Z" fill="white"/>
<defs>
<linearGradient id="paint0_linear_85_4" x1="50" y1="10" x2="50" y2="90" gradientUnits="userSpaceOnUse">
<stop stop-color="#1A232D"/>
<stop offset="1" stop-color="#262A4B"/>
</linearGradient>
</defs>
</svg>
