<svg width="100" height="100" viewBox="0 0 100 100" fill="none" xmlns="http://www.w3.org/2000/svg">
<rect opacity="0.3" x="0.5" y="0.5" width="99" height="99" rx="49.5" fill="#1A1C2D" stroke="#576486"/>
<rect x="10.5" y="10.5" width="79" height="79" rx="39.5" fill="url(#paint0_linear_85_6)" stroke="#576486"/>
<path d="M56.2522 36.0164L54.63 37.6386L39.7188 52.5481C38.7091 53.5595 38.2033 54.0653 37.7693 54.6217C37.2573 55.2788 36.8178 55.9893 36.4586 56.7409C36.1559 57.3779 35.9302 58.0569 35.4787 59.4113L33.5642 65.1529L33.0953 66.5563C32.9856 66.8835 32.9693 67.2347 33.0483 67.5706C33.1272 67.9065 33.2983 68.2137 33.5423 68.4577C33.7863 68.7017 34.0935 68.8728 34.4294 68.9517C34.7653 69.0307 35.1165 69.0144 35.4437 68.9047L36.8471 68.4358L42.5887 66.5213C43.9449 66.0698 44.6221 65.8441 45.2591 65.5414C46.0139 65.182 46.7203 64.7451 47.3782 64.2307C47.9347 63.7967 48.4405 63.2909 49.4502 62.2812L64.3614 47.37L65.9836 45.7478C67.274 44.4574 67.999 42.7071 67.999 40.8821C67.999 39.0571 67.274 37.3069 65.9836 36.0164C64.6931 34.726 62.9429 34.001 61.1179 34.001C59.2929 34.001 57.5426 34.726 56.2522 36.0164Z" stroke="white" stroke-width="4.5"/>
<path d="M54.5867 37.8899C54.5867 37.8899 54.7853 41.2634 57.7617 44.2396C60.7381 47.2158 64.1101 47.4128 64.1101 47.4128M37.1839 68.0288L33.9712 64.8163" stroke="white" stroke-width="4.5"/>
<defs>
<linearGradient id="paint0_linear_85_6" x1="50" y1="10" x2="50" y2="90" gradientUnits="userSpaceOnUse">
<stop stop-color="#1A232D"/>
<stop offset="1" stop-color="#262A4B"/>
</linearGradient>
</defs>
</svg>
