<svg width="100" height="100" viewBox="0 0 100 100" fill="none" xmlns="http://www.w3.org/2000/svg">
<rect opacity="0.3" x="0.5" y="0.5" width="99" height="99" rx="49.5" fill="#1A1C2D" stroke="#576486"/>
<rect x="10.5" y="10.5" width="79" height="79" rx="39.5" fill="url(#paint0_linear_85_7)" stroke="#576486"/>
<path d="M56.3138 54.0108C54.6624 54.0108 53.3238 55.8669 53.3238 58.1485C53.3238 60.4347 54.6624 62.2908 56.3138 62.2908C57.9652 62.2908 59.3038 60.4347 59.3038 58.1485C59.3015 55.8669 57.9652 54.0108 56.3138 54.0108ZM66.7236 43.2399C67.0663 42.4004 67.0801 37.6302 65.2631 33.0601C65.2631 33.0601 61.0978 33.5178 54.7958 37.8441C53.4733 37.4761 51.2354 37.2967 49.0021 37.2967C46.7642 37.2967 44.5286 37.4761 43.2061 37.8441C36.9018 33.5178 32.7365 33.0601 32.7365 33.0601C30.9218 37.6302 30.9402 42.4004 31.2783 43.2399C29.1439 45.5583 27.8398 48.3436 27.8398 52.1432C27.8398 68.671 41.5547 68.9355 45.0139 68.9355L49.0021 68.9401L52.9857 68.9355C56.4495 68.9355 70.1598 68.671 70.1598 52.1432C70.1598 48.3436 68.858 45.5583 66.7236 43.2399ZM49.0642 66.9046H48.9354C40.2621 66.9046 33.5047 65.8719 33.5047 57.4401C33.5047 55.4184 34.2177 53.5462 35.9128 51.9914C38.7349 49.3993 43.5143 50.7701 48.9354 50.7701H49.0642C54.4853 50.7701 59.267 49.3993 62.0914 51.9914C63.7819 53.5462 64.4949 55.4184 64.4949 57.4401C64.4949 65.8719 57.7398 66.9046 49.0642 66.9046ZM41.6881 54.0108C40.0367 54.0108 38.6981 55.8669 38.6981 58.1485C38.6981 60.4347 40.0367 62.2908 41.6881 62.2908C43.3395 62.2908 44.6804 60.4347 44.6804 58.1485C44.6804 55.8669 43.3418 54.0108 41.6881 54.0108Z" fill="white"/>
<defs>
<linearGradient id="paint0_linear_85_7" x1="50" y1="10" x2="50" y2="90" gradientUnits="userSpaceOnUse">
<stop stop-color="#1A232D"/>
<stop offset="1" stop-color="#262A4B"/>
</linearGradient>
</defs>
</svg>
