<?xml version="1.0" encoding="utf-8"?>
<!-- Generator: Adobe Illustrator 26.4.1, SVG Export Plug-In . SVG Version: 6.00 Build 0)  -->
<svg version="1.1" id="Layer_1" xmlns="http://www.w3.org/2000/svg" xmlns:xlink="http://www.w3.org/1999/xlink" x="0px" y="0px"
	 viewBox="0 0 512 512" style="enable-background:new 0 0 512 512;" xml:space="preserve">
<g id="_x38_fZYmM_00000142161442149506876180000014841362492327292550_">
	
		<image style="overflow:visible;enable-background:new    ;" width="1024" height="1024" id="_x38_fZYmM" xlink:href="AEFD016679A0AF4E.jpeg"  transform="matrix(0.5 0 0 0.5 0 0)">
	</image>
</g>
<linearGradient id="SVGID_1_" gradientUnits="userSpaceOnUse" x1="256" y1="510.6772" x2="256" y2="-1.3228" gradientTransform="matrix(1 0 0 -1 0 510.6772)">
	<stop  offset="0" style="stop-color:#39DBFF"/>
	<stop  offset="0.1678" style="stop-color:#3ACFF7"/>
	<stop  offset="1" style="stop-color:#3C95D0"/>
</linearGradient>
<path style="fill:url(#SVGID_1_);" d="M115.4,0h281.2C460.3,0,512,51.7,512,115.4v281.2c0,63.7-51.7,115.4-115.4,115.4H115.4
	C51.7,512,0,460.3,0,396.6V115.4C0,51.7,51.7,0,115.4,0z"/>
<g style="display:none;">
	<path style="display:inline;fill:none;stroke:#FFFFFF;stroke-width:50;stroke-miterlimit:10;" d="M118.6,163.3
		c29.8-44.1,80.2-73.1,137.4-73.1c15.5,0,30.5,2.1,44.8,6.1"/>
	
		<path style="display:inline;opacity:0.7;fill:none;stroke:#FFFFFF;stroke-width:50;stroke-miterlimit:10;enable-background:new    ;" d="
		M118.9,349.2c-18.1-26.6-28.7-58.7-28.7-93.2c0-34.3,10.4-66.2,28.3-92.7"/>
	
		<path style="display:inline;opacity:0.5;fill:none;stroke:#FFFFFF;stroke-width:50;stroke-miterlimit:10;enable-background:new    ;" d="
		M361.4,383.9c-28.6,23.6-65.4,37.9-105.4,37.9c-57,0-107.2-28.7-137.1-72.5"/>
	
		<path style="display:inline;opacity:0.3;fill:none;stroke:#FFFFFF;stroke-width:50;stroke-miterlimit:10;enable-background:new    ;" d="
		M404.1,181.5c11.3,22.4,17.6,47.7,17.6,74.5c0,51.5-23.5,97.5-60.3,127.9"/>
	
		<path style="display:inline;opacity:0.1;fill:none;stroke:#FFFFFF;stroke-width:50;stroke-miterlimit:10;enable-background:new    ;" d="
		M300.8,96.4c45.2,12.7,82.6,44,103.4,85.2"/>
</g>
<g>
	<g>
		<path style="fill:#FFFFFF;stroke:#27AAE1;stroke-linecap:round;stroke-linejoin:round;stroke-miterlimit:10;" d="M128.3,169.9
			l-45.3-30.6c38.9-57.6,103.6-92,173.1-92c19.1,0,38.1,2.6,56.4,7.7l-14.7,52.7c-13.5-3.8-27.5-5.7-41.6-5.7
			C204.8,102,157,127.4,128.3,169.9z"/>
	</g>
	<g style="opacity:0.7;">
		<path style="fill:#FFFFFF;stroke:#27AAE1;stroke-linecap:round;stroke-linejoin:round;stroke-miterlimit:10;" d="M83.4,373.4
			C59.8,338.7,47.3,298.1,47.3,256c0-41.8,12.3-82.2,35.7-116.7l45.3,30.6C111.1,195.4,102,225.1,102,256c0,31.1,9.2,61,26.6,86.6
			L83.4,373.4z"/>
	</g>
	<g style="opacity:0.5;">
		<path style="fill:#FFFFFF;stroke:#27AAE1;stroke-linecap:round;stroke-linejoin:round;stroke-miterlimit:10;" d="M256,464.7
			c-69.1,0-133.6-34.1-172.6-91.3l45.2-30.8C157.4,384.8,205,410,256,410c35.7,0,70.5-12.5,98-35.2l34.8,42.2
			C351.5,447.8,304.4,464.7,256,464.7z"/>
	</g>
	<g style="opacity:0.3;">
		<path style="fill:#FFFFFF;stroke:#27AAE1;stroke-linecap:round;stroke-linejoin:round;stroke-miterlimit:10;" d="M388.8,417
			l-34.8-42.2C389.6,345.5,410,302.1,410,256c0-24.3-5.5-47.6-16.4-69.2l48.9-24.6c14.7,29.3,22.2,60.8,22.2,93.8
			C464.7,318.5,437,377.2,388.8,417z"/>
	</g>
	<g style="opacity:0.1;">
		<path style="fill:#FFFFFF;stroke:#27AAE1;stroke-linecap:round;stroke-linejoin:round;stroke-miterlimit:10;" d="M393.6,186.8
			c-19.5-38.7-54.5-67.5-96-79.2L312.4,55c56.3,15.8,103.8,54.8,130.1,107.2L393.6,186.8z"/>
	</g>
</g>
<circle style="opacity:0.1;fill:#FFFFFF;enable-background:new    ;" cx="256" cy="256.4" r="145.1"/>
<g>
	<g>
		<path style="fill:#FFFFFF;" d="M188,192.2c25.7,0,41.9,5.1,53.2,15.8c8.9,8.7,15.5,21.5,15.5,38.9c0,21.3-8.7,38.6-22.8,49.1
			c-13.8,10.4-31.5,14.4-53.9,14.4h-42.6v-5.1c15.6-1.5,16.4-2.7,16.4-17.7v-72.6c0-15.6-2.2-16.4-16.4-17.8v-5.1L188,192.2
			L188,192.2z M169.6,286.3c0,13.6,5.8,17.5,19.5,17.5c32.8,0,49.5-22.4,49.5-54.2c0-19.8-6.7-34.9-21.1-43.7
			c-8.4-5.3-18.9-7.3-31.1-7.3c-8.2,0-12.6,1.1-14.4,2.6c-1.6,1.1-2.4,3.1-2.4,10.2L169.6,286.3L169.6,286.3z"/>
		<path style="fill:#FFFFFF;" d="M309.8,228.4c22.8,0,39.7,17.3,39.7,40.8c0,29.5-21.8,43.5-39.7,43.5c-25.1,0-40.4-20.2-40.4-40.6
			C269.4,242.4,292.5,228.4,309.8,228.4z M307.6,234.6c-11.1,0-21.1,10.7-21.1,31.9c0,23.1,10.2,39.9,25.1,39.9
			c11.3,0,20.8-8.2,20.8-33.1C332.4,251.9,323.6,234.6,307.6,234.6z"/>
		<path style="fill:#FFFFFF;" d="M369.1,313.1c-6.5,0-11.1-4.7-11.1-11.6c0-6.5,4.5-11.6,11.1-11.6c6.5,0,11.5,5.1,11.5,11.6
			C380.6,308.3,375.7,313.1,369.1,313.1z"/>
	</g>
</g>
</svg>
