<svg width="632" height="171" viewBox="0 0 632 171" fill="none" xmlns="http://www.w3.org/2000/svg">
<g opacity="0.19" filter="url(#filter0_f_51_225)">
<path d="M107.686 103.221C106.777 104.985 104.585 105.68 102.821 104.771C88.8153 97.2875 71.7621 96.4857 52.0361 102.419C50.165 103.007 48.1336 101.884 47.599 99.9601C47.0645 98.0359 48.1336 96.0047 50.0047 95.4167C71.5483 88.8955 90.419 89.9111 106.136 98.3031C107.9 99.2652 108.595 101.457 107.686 103.221Z" fill="white" stroke="#006838" stroke-width="1.5" stroke-miterlimit="10"/>
<path d="M113.673 85.3141C112.551 87.6125 109.771 88.5746 107.472 87.3987C90.7398 78.8464 66.3094 78.098 48.0267 85.5813C45.6746 86.5435 42.9482 85.3675 42.0394 82.9622C41.1306 80.5568 42.2532 77.8308 44.6054 76.8686C65.4541 68.3698 92.397 69.225 111.588 79.0602C113.887 80.1827 114.796 83.0156 113.673 85.3141Z" fill="white" stroke="#006838" stroke-width="1.5" stroke-miterlimit="10"/>
<path d="M112.23 68.4766C92.3969 58.2673 60.8566 59.3898 43.0016 66.2851C40.1149 67.4076 36.9074 65.9109 35.8382 63.0245C34.7691 60.1381 36.2124 56.8775 39.0457 55.755C59.5202 47.8441 94.3214 46.6682 117.202 58.4276C119.928 59.8174 121.051 63.2383 119.661 66.0178C118.271 68.7439 114.956 69.8664 112.23 68.4766Z" fill="white" stroke="#006838" stroke-width="1.5" stroke-miterlimit="10"/>
<path d="M113.681 115.278C112.329 116.78 110.226 117.081 108.874 116.48C108.123 116.18 107.372 115.579 107.372 114.227C107.071 108.82 103.466 105.365 99.7107 104.314C99.8609 103.563 99.8609 102.962 99.8609 102.211C99.7107 98.456 98.2085 94.4006 95.6548 90.946C90.247 83.5861 74.0236 69.1669 58.401 55.0481C56.1477 53.0955 53.8944 50.9927 51.7914 49.0401C49.9888 47.3879 48.036 47.5381 46.9844 48.4393C45.7827 49.3405 45.1818 51.1429 46.3836 53.2457C55.2464 71.7203 68.4655 96.5034 76.1266 106.116C78.5301 109.12 81.5344 111.523 84.8392 112.575C84.2383 120.535 89.9466 127.144 98.509 128.196C107.672 129.397 115.333 124.14 116.235 116.18L116.685 112.274L113.681 115.278ZM48.3364 52.1943C47.8857 51.4433 48.036 50.8425 48.1862 50.5421C48.3364 50.3919 48.4866 50.3919 48.6368 50.3919C48.9373 50.3919 49.2377 50.5421 49.6883 50.9927C51.9416 52.9453 54.0446 54.8979 56.2979 57.0007C72.0707 70.9693 88.144 85.3885 93.4016 92.448C95.8051 95.452 97.0068 98.9066 97.157 102.211C97.157 105.365 96.1055 107.919 94.1527 109.571C92.1998 111.073 89.3457 111.523 86.3414 110.622C83.1868 109.721 80.1825 107.618 77.779 104.614C70.7188 95.7524 57.9503 72.0207 48.3364 52.1943ZM98.509 125.792C91.599 124.891 86.9422 119.784 87.0925 113.476C87.3929 113.476 87.6933 113.626 87.8435 113.626C90.8479 114.077 93.702 113.326 95.8051 111.674C97.3072 110.472 98.509 108.82 99.1098 106.867C101.664 107.618 104.518 110.172 104.818 114.377C104.818 116.48 106.02 118.282 107.973 119.033C109.475 119.634 110.977 119.484 112.479 119.033C110.226 124.29 104.067 126.543 98.509 125.792Z" fill="url(#paint0_linear_51_225)"/>
<path d="M100.612 129.247C99.7108 129.247 98.9597 129.247 98.0584 129.097C89.3458 128.045 83.4873 121.437 83.7878 113.326C80.6332 111.974 77.6288 109.721 75.2254 106.717C67.4141 97.1042 54.3452 72.1709 45.4823 53.6963C44.1304 51.2931 44.8815 49.0401 46.2334 47.9887C47.5854 46.9373 49.9889 46.7871 52.0919 48.7397L53.7443 50.2417C55.3967 51.7437 57.0491 53.2457 58.7015 54.7477L58.8517 54.8979C74.4743 68.8665 90.5475 83.2857 95.9554 90.6456C98.6593 94.1002 100.312 98.3058 100.312 102.361C100.312 102.962 100.312 103.413 100.312 104.013C103.917 105.365 107.672 108.97 107.973 114.527C107.973 115.429 108.273 115.879 109.024 116.18C110.076 116.63 111.878 116.33 113.08 115.128L117.286 110.472L116.535 116.63C116.084 120.686 113.831 124.29 110.376 126.543C107.672 128.196 104.217 129.247 100.612 129.247ZM48.6369 48.5895C48.036 48.5895 47.5854 48.7397 47.1347 49.0401C46.2334 49.7911 45.7828 51.1429 46.6841 52.9453C55.6971 71.2697 68.766 96.203 76.4271 105.666C78.6804 108.67 81.6847 110.772 84.8393 111.974L85.2899 112.124V112.725C84.8393 120.235 90.2471 126.543 98.2086 127.595C102.415 128.045 106.471 127.294 109.625 125.192C112.78 123.089 114.733 119.935 115.183 116.18L115.333 114.527L114.132 115.729C112.479 117.531 110.076 117.832 108.574 117.231C107.372 116.78 106.621 115.729 106.621 114.227C106.32 109.12 102.865 105.966 99.4104 104.915L98.9597 104.764V104.164C99.1099 103.563 99.1099 102.812 99.1099 102.211C98.9597 98.6062 97.6077 94.701 95.0541 91.3966C89.6462 84.1869 73.573 69.7677 58.1006 55.9493L57.9504 55.7991C56.298 54.2971 54.6456 52.7951 52.9932 51.2931L51.3408 49.7911C50.2893 48.8899 49.388 48.5895 48.6369 48.5895ZM100.462 126.694C99.7108 126.694 99.1099 126.694 98.3588 126.543C91.1484 125.642 86.1912 120.085 86.3414 113.476V112.575L87.2428 112.725C87.5432 112.725 87.8436 112.875 87.9938 112.875C90.848 113.176 93.4017 112.575 95.3545 111.073C96.8567 110.021 97.758 108.519 98.5091 106.567L98.8095 105.816L99.5606 105.966C102.415 106.867 105.419 109.871 105.719 114.227C105.719 116.029 106.771 117.531 108.423 118.132C109.625 118.583 111.127 118.583 112.479 118.132L113.981 117.682L113.381 119.184C110.977 124.441 105.419 126.694 100.462 126.694ZM87.6934 114.227C87.9938 119.784 92.3501 124.29 98.5091 125.041C102.865 125.642 108.574 124.14 111.127 119.935C109.926 120.085 108.724 119.935 107.672 119.484C105.419 118.583 104.067 116.63 103.917 114.227C103.767 110.923 101.664 108.67 99.4104 107.618C98.6593 109.421 97.6077 110.923 96.1056 112.124C93.8523 113.927 90.9982 114.678 87.6934 114.227ZM89.3458 111.824C88.2943 111.824 87.2428 111.674 86.1912 111.373C82.8864 110.472 79.7319 108.219 77.3284 105.065C70.2682 96.203 57.4997 72.3211 47.8858 52.4947C47.2849 51.2931 47.4352 50.3919 48.036 49.9413C48.1862 49.7911 48.6369 49.6409 49.0875 49.6409C49.5382 49.6409 50.1391 49.9413 50.5897 50.3919L51.1906 50.9927C53.1434 52.7951 55.2465 54.5975 57.1993 56.3999C72.5215 70.5187 88.7449 84.938 94.0025 91.9974C96.406 95.1516 97.758 98.7564 97.9082 102.211C98.0584 105.666 96.8567 108.369 94.6034 110.172C93.2514 111.223 91.2986 111.824 89.3458 111.824ZM48.7871 51.1429C48.7871 51.2931 48.7871 51.4433 48.9373 51.7437C58.5512 71.4199 71.3197 95.3018 78.2297 104.013C80.483 106.867 83.3371 108.97 86.3414 109.871C89.1956 110.622 91.7493 110.322 93.5519 108.82C95.3545 107.468 96.406 105.065 96.2558 102.061C96.1056 98.9066 94.9038 95.6022 92.6506 92.7484C87.6934 85.8392 71.6201 71.4199 55.9975 57.6015C54.0447 55.7991 51.9417 53.9967 49.9888 52.1943L49.388 51.5935C49.0875 51.4433 48.9373 51.2931 48.7871 51.1429Z" fill="#046938"/>
<path d="M112.63 118.883C110.376 124.14 104.067 126.393 98.5092 125.792C91.5992 124.891 86.9424 119.784 87.0926 113.476C87.3931 113.476 87.6935 113.626 87.8437 113.626C90.8481 114.077 93.7022 113.326 95.8053 111.674C97.3074 110.472 98.5092 108.82 99.11 106.867C101.664 107.618 104.518 110.172 104.818 114.377C104.818 116.48 106.02 118.282 107.973 119.033C109.475 119.484 111.127 119.484 112.63 118.883Z" fill="white"/>
<path d="M100.462 126.694C99.7108 126.694 99.1099 126.694 98.3588 126.543C91.1484 125.642 86.1912 120.085 86.3415 113.476V112.575L87.2428 112.725C87.5432 112.725 87.6934 112.875 87.9939 112.875C90.848 113.176 93.4017 112.575 95.3545 111.073C96.8567 110.021 97.758 108.519 98.5091 106.567L98.8095 105.816L99.5606 105.966C102.415 106.867 105.419 109.721 105.72 114.227C105.72 116.029 106.771 117.531 108.423 118.132C109.625 118.583 111.127 118.583 112.479 118.132L113.981 117.682L113.381 119.184C110.977 124.441 105.419 126.694 100.462 126.694ZM87.6934 114.227C87.9939 119.784 92.3502 124.29 98.5091 125.041C102.865 125.642 108.574 124.14 111.127 119.935C109.926 120.085 108.724 119.935 107.672 119.484C105.419 118.583 104.067 116.63 104.067 114.227C103.917 110.923 101.814 108.519 99.5606 107.618C98.8095 109.421 97.758 110.923 96.2558 112.124C93.8523 113.927 90.9982 114.678 87.6934 114.227Z" fill="#046938"/>
<path d="M94.1526 109.571C92.0496 111.073 89.3457 111.523 86.3413 110.622C83.1867 109.721 80.1824 107.618 77.7789 104.614C70.7187 95.7524 57.9502 71.8706 48.3363 52.1943C47.8857 51.4433 48.0359 50.8425 48.1861 50.5421C48.3363 50.3919 48.4865 50.3919 48.6368 50.3919C48.9372 50.3919 49.2376 50.5421 49.6883 50.9927C51.9415 52.9453 54.0446 54.8979 56.2978 57.0007C72.0707 70.9693 88.1439 85.3886 93.4015 92.448C95.805 95.452 97.0067 98.9066 97.157 102.211C97.3072 105.365 96.2556 107.919 94.1526 109.571Z" fill="white"/>
<path d="M89.3457 111.824C88.2941 111.824 87.2426 111.674 86.1911 111.373C82.8863 110.472 79.7318 108.219 77.3283 105.065C70.2681 96.203 57.3494 72.3211 47.8857 52.4947C47.2848 51.4433 47.435 50.3919 48.0359 50.0915C48.3363 49.9413 48.6368 49.7911 49.0874 49.7911C49.5381 49.7911 50.1389 50.0915 50.5896 50.5421C51.7913 51.5935 52.9931 52.7951 54.1948 53.8465C55.2463 54.7477 56.1476 55.6489 57.1992 56.5501C72.5213 70.5187 88.7448 84.938 94.0024 91.9974C96.4059 95.1516 97.7578 98.7564 97.9081 102.211C98.0583 105.515 96.8565 108.369 94.6033 110.172C93.2513 111.223 91.4487 111.824 89.3457 111.824ZM48.787 51.2931C48.787 51.4433 48.787 51.5935 48.9372 51.8939C58.5511 71.7203 71.3196 95.452 78.2296 104.314C80.4828 107.168 83.337 109.27 86.3413 110.172C89.1954 110.923 91.7491 110.622 93.5518 109.12C95.3544 107.618 96.4059 105.215 96.2557 102.361C96.1054 99.207 94.9037 95.9026 92.6504 93.0488C87.6933 85.8392 71.62 71.4199 55.9974 57.6015C54.9459 56.7003 54.0446 55.7991 52.9931 54.8979C51.7913 53.8465 50.5896 52.6449 49.3879 51.5935C49.0874 51.4433 48.9372 51.2931 48.787 51.2931Z" fill="#046938"/>
</g>
<g opacity="0.19" filter="url(#filter1_f_51_225)">
<path d="M534.411 99.6156C535.831 97.5439 536.896 95.127 537.961 92.7101C539.026 90.2931 539.736 87.5309 540.802 84.7687C541.867 82.0065 542.932 79.2443 543.997 76.8273C545.062 74.0651 546.837 71.6482 548.613 68.886C550.388 66.469 552.518 64.0521 555.003 61.6352C557.489 59.2182 560.684 57.4918 564.235 55.4202C560.684 56.8013 557.134 58.5277 554.293 60.5993C551.453 62.671 548.613 65.0879 546.482 67.5049C543.997 69.9218 542.222 72.3387 540.446 74.4104C538.671 76.8273 537.251 78.5537 536.186 80.2801C534.056 83.3876 531.925 85.8045 530.15 88.2215C528.375 90.6384 526.245 92.7101 524.469 94.4365C522.339 96.1628 520.564 97.5439 518.078 98.5798C515.593 99.6156 513.108 99.9609 510.622 99.9609C509.202 99.9609 508.137 99.9609 507.072 99.6156C506.007 99.2703 504.942 98.9251 504.232 98.2345C503.521 97.5439 502.456 96.5081 502.101 95.8176C501.746 94.7817 501.391 93.7459 501.391 92.3648C501.391 90.9837 501.746 89.9479 502.811 88.912C503.521 87.8762 504.587 87.5309 506.007 87.5309C507.072 87.5309 508.137 87.8762 508.847 88.5668C509.557 89.2573 509.912 90.2931 509.912 91.329C509.912 92.3648 509.557 93.0554 509.202 93.7459C508.847 94.4365 507.782 94.7817 507.072 94.7817C507.427 96.1628 507.782 97.1987 508.492 97.8892C509.202 98.5798 510.267 98.9251 511.688 98.9251C514.173 98.9251 516.658 98.2345 518.789 97.1987C520.919 95.8176 523.049 94.4365 525.179 92.3648C527.31 90.2931 529.44 87.8762 531.57 84.7687C533.701 82.0065 536.186 78.899 538.671 75.7915C540.446 73.0293 542.577 70.6124 544.707 68.5407C546.837 66.1238 548.968 64.0521 551.453 62.3257C553.938 60.5993 556.424 58.8729 559.264 57.4918C562.104 56.1107 564.945 54.7296 568.495 54.0391L568.85 54.7296C566.72 55.0749 564.59 56.8013 562.815 58.5277C561.039 60.254 559.619 62.3257 558.554 64.7426C557.489 66.8143 556.069 69.2312 555.359 71.6482C554.293 74.0651 553.228 76.8273 552.163 79.2443C551.098 82.0065 549.678 84.4234 548.258 87.1856C546.837 89.9479 544.707 92.3648 542.222 94.7817C543.997 93.4006 545.417 92.0195 546.837 90.6384C548.258 89.2573 549.678 87.5309 551.453 85.8045C553.228 84.0781 555.003 82.0065 556.779 79.5896C558.909 77.1726 561.039 74.4104 563.525 70.9576C565.3 68.5407 567.43 66.1238 569.56 64.0521C571.691 61.9804 574.176 60.254 576.306 58.5277C578.792 57.1466 581.277 55.7654 584.118 55.0749C586.958 54.0391 589.798 53.6938 592.994 53.6938C594.769 53.6938 595.834 53.6938 596.544 54.0391C597.609 54.3843 597.964 54.7296 597.964 55.4202C597.964 55.7654 597.609 55.7654 597.254 56.1107C596.899 56.456 596.544 56.456 595.834 56.456C595.124 56.456 594.414 56.456 594.059 56.456C593.704 56.456 592.994 56.456 592.639 56.1107C592.284 56.1107 591.929 56.1107 591.218 55.7654C590.508 55.7654 590.153 55.7654 589.798 55.7654C589.088 55.7654 588.023 56.1107 587.313 56.8013C586.248 57.4918 585.183 58.5277 584.473 59.9088C583.762 61.2899 582.342 62.671 581.277 64.7426C580.212 66.469 579.147 68.5407 578.437 70.9576C577.017 74.7557 575.596 77.8632 574.176 80.9707C572.756 83.7329 571.336 86.4951 569.56 88.912C567.785 91.329 565.655 93.4006 563.17 95.127C560.684 96.8534 557.844 98.5798 554.293 99.6156C556.779 99.6156 559.264 99.2703 561.749 98.9251C564.235 98.5798 566.72 97.8892 568.85 96.8534C571.336 95.8176 573.466 94.4365 575.596 92.3648C577.727 90.2931 580.212 87.1856 582.697 83.3876L583.407 83.7329C581.632 86.8404 579.502 89.6026 577.727 91.6742C575.951 93.7459 573.821 95.4723 571.691 96.5081C569.916 97.5439 568.495 98.2345 566.72 98.5798C564.945 99.2703 563.17 99.6156 561.749 99.6156C559.974 99.9609 558.554 99.9609 557.134 99.9609C555.714 99.9609 554.648 99.9609 553.583 99.9609C553.228 99.9609 552.873 99.9609 552.518 99.9609C552.163 99.9609 551.808 99.9609 551.453 100.306C551.098 100.306 550.388 100.306 550.033 100.306C549.678 100.306 548.968 100.306 547.903 100.306C546.482 100.306 545.772 99.9609 545.772 99.2703C545.772 98.5798 546.482 98.2345 547.547 98.2345C547.903 98.2345 548.258 98.2345 548.968 98.2345C549.323 98.2345 550.033 98.5798 550.388 98.5798C550.743 98.5798 551.453 98.9251 551.808 98.9251C552.163 98.9251 552.518 98.9251 552.873 98.9251C553.938 98.9251 554.648 98.5798 555.714 97.5439C556.779 96.5081 557.489 95.127 558.554 93.7459C559.619 92.0195 560.329 90.2931 561.394 87.8762C562.46 85.8045 563.525 83.3876 564.59 80.9707C565.655 78.5537 567.075 76.1368 568.495 73.7198C569.916 71.3029 571.691 68.886 573.466 66.469C575.241 64.0521 577.372 61.9804 579.857 60.254C581.987 58.5277 584.828 56.8013 587.668 55.7654C585.538 56.456 583.052 57.1466 580.922 58.1824C578.792 59.2182 576.661 60.5993 574.886 62.3257C573.111 63.7068 570.981 65.7785 569.205 67.5049C567.43 69.5765 565.655 71.6482 563.88 73.7198C562.104 75.7915 560.329 78.2084 558.199 80.9707C556.069 83.7329 553.583 86.1498 551.453 88.912C548.968 91.329 546.482 93.7459 543.997 95.8176C541.512 97.8892 538.671 99.6156 536.186 100.651L534.411 99.6156Z" fill="black"/>
<path d="M582.342 90.6384C583.762 90.6384 584.828 90.9837 585.893 92.0195C586.958 93.0554 587.313 94.0912 587.313 95.4723C587.313 96.8534 586.958 97.8892 585.893 98.9251C584.828 99.9609 583.762 100.306 582.342 100.306C580.922 100.306 579.857 99.9609 578.792 98.9251C577.727 97.8892 577.372 96.8534 577.372 95.4723C577.372 94.0912 577.727 93.0554 578.792 92.0195C579.502 90.9837 580.922 90.6384 582.342 90.6384Z" fill="black"/>
</g>
<g opacity="0.19" filter="url(#filter2_f_51_225)">
<path d="M201.903 69.9886C197.282 63.5848 188.203 62.2068 181.8 66.9083C175.396 71.5288 174.018 80.6076 178.719 87.0114C183.421 93.4151 192.419 94.7932 198.822 90.0917C205.226 85.4712 206.604 76.3924 201.903 69.9886ZM195.337 85.228C191.689 87.9841 186.339 87.2545 183.583 83.4447C180.827 79.797 181.637 74.528 185.447 71.6909C189.095 68.9348 194.364 69.7455 197.12 73.5553C199.795 77.203 199.066 82.472 195.337 85.228C195.418 85.228 195.418 85.228 195.337 85.228Z" fill="white"/>
<path d="M195.337 85.228C191.689 87.9841 186.339 87.2545 183.583 83.4447C180.827 79.797 181.637 74.528 185.447 71.6909C189.095 68.9348 194.364 69.7455 197.12 73.5553C199.795 77.203 199.066 82.472 195.337 85.228ZM195.337 85.228C195.418 85.228 195.418 85.228 195.337 85.228ZM201.903 69.9886C197.282 63.5848 188.203 62.2068 181.8 66.9083C175.396 71.5288 174.018 80.6076 178.719 87.0114C183.421 93.4152 192.419 94.7932 198.822 90.0917C205.226 85.4712 206.604 76.3924 201.903 69.9886Z" stroke="#162B41" stroke-width="1.5" stroke-miterlimit="10"/>
<path d="M216.413 75.5008C216.088 72.4205 217.628 69.5023 220.385 67.9621L222.573 66.7462L221.519 64.4765C219.574 59.9371 216.575 55.9652 212.846 52.6417L210.982 51.0205L209.198 52.7227C207.01 54.8303 203.605 55.4788 200.849 54.2629C198.093 53.128 196.31 50.2099 196.391 47.2106L196.472 44.7788L194.04 44.4545C189.095 43.8871 184.069 44.4545 179.449 46.0758L177.179 46.8864L177.828 49.2371C178.882 53.2902 176.207 57.5053 172.153 58.397C170.289 58.8833 168.182 58.5591 166.479 57.5864L164.372 56.3705L162.913 58.3159C159.913 62.2879 157.968 66.9083 156.995 71.772L156.509 74.2038L158.86 74.9333C161.859 75.825 163.885 78.2568 164.21 81.3371C164.534 84.4174 162.994 87.3356 160.238 88.8758L158.049 90.0917L159.022 92.3614C160.967 96.9008 163.885 100.873 167.614 104.196L169.478 105.817L171.262 104.115C173.45 102.008 176.855 101.359 179.611 102.575C182.448 103.791 184.15 106.628 184.069 109.708L183.988 112.221L186.501 112.464C189.014 112.708 191.527 112.708 194.121 112.464C196.553 112.221 198.903 111.654 201.173 110.843L203.524 109.952L202.875 107.601C201.822 103.548 204.335 99.3326 208.307 98.3599C210.252 97.8735 212.441 98.1977 214.224 99.2515L216.332 100.548L217.791 98.603C220.79 94.6311 222.654 89.9296 223.708 85.0659L224.194 82.6341L221.844 81.9046C218.844 81.0939 216.737 78.5811 216.413 75.5008ZM214.872 93.5773C208.144 90.9833 200.606 94.469 198.093 101.197C197.444 102.818 197.282 104.602 197.363 106.304C194.769 106.952 192.013 107.277 189.338 107.114C188.69 102.818 185.772 99.2515 181.8 97.4682C177.828 95.7659 173.288 96.0902 169.56 98.4409C167.776 96.5765 166.074 94.3879 164.858 91.9561C168.182 89.2 169.965 84.9849 169.478 80.6886C168.992 76.3924 166.479 72.6636 162.588 70.7182C163.318 68.1243 164.372 65.6114 165.831 63.3417C172.64 65.7735 180.016 62.2068 182.529 55.4788C183.097 53.9386 183.34 52.2364 183.259 50.6152C185.853 49.8856 188.609 49.5614 191.284 49.7235C192.5 56.7758 199.228 61.4773 206.28 60.1803C207.901 59.8561 209.603 59.2076 211.063 58.3159C212.035 59.2886 212.927 60.3424 213.738 61.4773C214.548 62.6121 215.197 63.5849 215.764 64.7197C212.441 67.4758 210.657 71.6909 211.144 75.9871C211.549 80.2833 214.224 84.0932 218.115 86.0387C217.223 88.7136 216.169 91.2265 214.872 93.5773Z" fill="white" stroke="#162B41" stroke-width="1.5" stroke-miterlimit="10"/>
</g>
<g opacity="0.19" filter="url(#filter3_f_51_225)">
<path d="M281.312 59.8428L272.021 53.5674C279.999 41.7549 293.268 34.7002 307.521 34.7002C311.438 34.7002 315.334 35.2334 319.087 36.2793L316.072 47.0869C313.304 46.3076 310.433 45.918 307.541 45.918C297 45.918 287.197 51.1269 281.312 59.8428Z" fill="white" stroke="#27AAE1" stroke-miterlimit="10" stroke-linecap="round" stroke-linejoin="round"/>
<g opacity="0.7">
<path d="M272.104 101.576C267.264 94.46 264.7 86.1338 264.7 77.5C264.7 68.9277 267.223 60.6426 272.021 53.5674L281.312 59.8428C277.784 65.0723 275.918 71.1631 275.918 77.5C275.918 83.8779 277.805 90.0098 281.373 95.2598L272.104 101.576Z" fill="white" stroke="#27AAE1" stroke-miterlimit="10" stroke-linecap="round" stroke-linejoin="round"/>
</g>
<g opacity="0.5">
<path d="M307.5 120.3C293.329 120.3 280.102 113.307 272.104 101.576L281.373 95.2598C287.279 103.914 297.041 109.082 307.5 109.082C314.821 109.082 321.958 106.519 327.598 101.863L334.734 110.518C327.085 116.834 317.426 120.3 307.5 120.3Z" fill="white" stroke="#27AAE1" stroke-miterlimit="10" stroke-linecap="round" stroke-linejoin="round"/>
</g>
<g opacity="0.3">
<path d="M334.734 110.518L327.598 101.863C334.898 95.8545 339.082 86.9541 339.082 77.5C339.082 72.5166 337.954 67.7383 335.719 63.3086L345.747 58.2637C348.762 64.2725 350.3 70.7324 350.3 77.5C350.3 90.3174 344.619 102.355 334.734 110.518Z" fill="white" stroke="#27AAE1" stroke-miterlimit="10" stroke-linecap="round" stroke-linejoin="round"/>
</g>
<g opacity="0.1">
<path d="M335.719 63.3086C331.72 55.3721 324.542 49.4658 316.031 47.0664L319.066 36.2793C330.612 39.5195 340.354 47.5176 345.747 58.2637L335.719 63.3086Z" fill="white" stroke="#27AAE1" stroke-miterlimit="10" stroke-linecap="round" stroke-linejoin="round"/>
</g>
<path opacity="0.1" d="M307.5 107.339C323.934 107.339 337.257 94.0163 337.257 77.582C337.257 61.1478 323.934 47.8252 307.5 47.8252C291.066 47.8252 277.743 61.1478 277.743 77.582C277.743 94.0163 291.066 107.339 307.5 107.339Z" fill="white"/>
<path d="M293.555 64.416C298.825 64.416 302.147 65.4619 304.465 67.6562C306.29 69.4404 307.644 72.0654 307.644 75.6338C307.644 80.0019 305.859 83.5498 302.968 85.7031C300.138 87.8359 296.508 88.6562 291.914 88.6562H283.178V87.6103C286.377 87.3027 286.541 87.0566 286.541 83.9805V69.0918C286.541 65.8926 286.09 65.7285 283.178 65.4414V64.3955L293.555 64.416ZM289.781 83.7139C289.781 86.5029 290.971 87.3027 293.78 87.3027C300.507 87.3027 303.932 82.709 303.932 76.1875C303.932 72.127 302.558 69.0303 299.604 67.2256C297.882 66.1387 295.729 65.7285 293.227 65.7285C291.545 65.7285 290.643 65.9541 290.273 66.2617C289.945 66.4873 289.781 66.8975 289.781 68.3535V83.7139Z" fill="white"/>
<path d="M318.533 71.8398C323.209 71.8398 326.675 75.3877 326.675 80.207C326.675 86.2568 322.204 89.1279 318.533 89.1279C313.386 89.1279 310.248 84.9854 310.248 80.8018C310.248 74.7109 314.985 71.8398 318.533 71.8398ZM318.082 73.1113C315.806 73.1113 313.755 75.3057 313.755 79.6533C313.755 84.3906 315.847 87.8359 318.902 87.8359C321.22 87.8359 323.168 86.1543 323.168 81.0478C323.168 76.6592 321.363 73.1113 318.082 73.1113Z" fill="white"/>
<path d="M330.694 89.21C329.361 89.21 328.418 88.2461 328.418 86.8311C328.418 85.498 329.341 84.4521 330.694 84.4521C332.027 84.4521 333.053 85.498 333.053 86.8311C333.053 88.2256 332.048 89.21 330.694 89.21Z" fill="white"/>
</g>
<g opacity="0.19" filter="url(#filter4_f_51_225)">
<path d="M426.375 50.3716C426.518 50.3716 426.638 50.3953 426.734 50.4189C426.614 50.4189 426.494 50.3953 426.375 50.3716Z" fill="white" stroke="url(#paint1_linear_51_225)" stroke-width="2" stroke-miterlimit="10"/>
<path d="M427.032 50.4434C427.012 50.4434 427.012 50.4434 426.993 50.4434C426.993 50.4434 426.993 50.4434 426.973 50.4434C426.993 50.4434 427.012 50.4434 427.032 50.4434Z" fill="white" stroke="url(#paint2_linear_51_225)" stroke-width="2" stroke-miterlimit="10"/>
<path d="M426.973 50.4434C426.992 50.4434 427.01 50.4434 427.01 50.4434" stroke="url(#paint3_linear_51_225)" stroke-width="2" stroke-miterlimit="10"/>
<path d="M453.46 75.7077C452.311 73.0974 451.065 71.3732 449.149 68.763C448.814 68.308 449.197 68.4756 444.743 63.1833C443.617 61.8662 442.516 60.4054 441.462 58.8728C440.241 57.1007 439.402 55.8315 438.804 54.8257C438.492 54.2989 438.253 53.8679 438.109 53.6284C438.564 52.1916 438.947 50.7068 439.307 49.27C439.714 47.7374 440.121 46.1569 440.6 44.6482C440.72 44.289 440.6 43.8819 440.312 43.6424C440.145 43.4987 439.905 43.403 439.69 43.403C439.546 43.403 439.402 43.4269 439.283 43.4987L437.534 44.3129C435.666 45.199 433.822 46.085 432.05 46.9471C430.35 47.7613 428.602 48.6234 426.806 49.4616C426.351 49.4137 425.369 49.3179 424.028 49.3179C423.237 49.3179 422.447 49.3418 421.657 49.4137C419.741 49.5574 413.921 50.0124 409.108 52.6226L409.06 52.6466C408.94 52.7184 408.772 52.7902 408.581 52.91C403.839 55.3765 399.816 59.0883 396.99 63.6622C392.895 70.2477 392.631 76.6176 392.535 79.3237C392.44 82.5565 392.847 84.9992 392.99 85.7894C393.422 88.0883 394.379 91.7283 396.607 95.3922C401.013 102.648 407.743 105.713 410.473 106.887C416.723 109.617 422.016 109.641 423.453 109.617C423.453 109.617 430.326 109.497 436.888 104.995C437.247 104.756 437.343 104.444 437.343 104.444C437.367 104.348 437.391 104.253 437.391 104.157C437.391 103.63 436.984 103.223 436.457 103.199H436.385C436.361 103.199 436.337 103.199 436.337 103.199L435.523 103.271C435.403 103.271 435.283 103.319 435.163 103.367C433.535 104.181 431.859 104.827 430.11 105.282C428.075 105.809 426.207 106.144 423.501 106.121C417.921 106.097 405.276 102.265 400.414 91.0099C400.414 91.0099 397.636 84.5681 398.954 75.995C399.672 71.2295 401.396 67.9727 401.779 67.2783C402.306 66.2964 402.905 65.3385 403.576 64.4286C406.569 60.3096 410.329 57.9389 412.963 56.6457C414.64 55.8315 418.471 54.7779 423.357 54.251C425.033 54.0594 426.398 54.0355 427.284 54.0355C427.716 54.0355 427.979 54.0355 428.051 54.0355H428.099C428.266 54.0355 428.458 53.9876 428.602 53.8918L430.901 52.4789L435.571 49.6292L434.397 53.341L434.11 54.251C434.086 54.3707 434.062 54.5623 434.086 54.7779C434.134 55.1371 434.325 55.2568 434.708 55.8315C434.876 56.0949 434.804 56.0231 435.283 56.7655C435.403 56.957 435.547 57.1726 435.69 57.412C437.534 60.2617 439.331 62.6804 441.175 64.7638C444.887 68.9546 445.653 70.0801 447.449 72.5945C448.599 74.2229 449.125 75.0611 449.58 76.0669C450.586 78.1742 451.712 80.5929 450.993 83.2031C450.227 85.957 447.832 87.4178 446.922 87.9207C446.707 87.1065 446.299 86.0049 445.533 84.8794C444.455 83.251 443.138 82.2452 442.061 81.5268C437.271 78.4376 433.487 79.3237 427.74 75.8992C425.632 74.63 424.387 73.4566 423.716 71.8522C423.525 71.3732 422.758 69.1222 423.716 66.967C424.53 65.123 426.063 64.5483 425.776 63.4946C425.608 62.848 424.842 62.417 424.195 62.3212C424.028 62.2973 423.309 62.2254 422.255 63.0396C420.435 64.4525 419.98 66.7275 419.837 67.4938C419.286 70.4632 420.292 72.9058 420.579 73.5285C422.016 76.7134 424.722 78.3179 426.614 79.3955C432.122 82.5326 435.978 81.5508 440.169 84.9034C441.438 85.9091 442.204 86.867 442.803 88.1841C443.617 90.0281 443.545 91.7523 443.498 92.2312C443.474 92.5665 443.617 92.9017 443.881 93.0933C444.048 93.213 444.24 93.2849 444.432 93.2849C444.623 93.2849 444.767 93.237 444.815 93.213C448.191 91.8001 450.323 89.8125 450.323 89.8125C451.927 88.3278 453.029 87.2741 453.891 85.4302C454.131 84.9273 454.634 83.8257 454.825 82.3171C454.993 81.6226 455.16 79.5632 453.46 75.7077Z" fill="white" stroke="url(#paint4_linear_51_225)" stroke-width="2" stroke-miterlimit="10"/>
<path d="M482.078 117.639L481.528 119.315C480.45 122.692 478.63 125.853 476.235 128.439L475.061 129.733C474.87 129.948 474.511 129.972 474.295 129.804L472.954 128.727C471.948 127.936 470.631 127.577 469.362 127.769C468.093 127.96 466.967 128.607 466.201 129.613C465.434 130.619 465.099 131.888 465.267 133.157L465.506 134.857C465.554 135.145 465.362 135.408 465.075 135.48L463.399 135.863C461.722 136.222 459.95 136.414 458.25 136.414C456.454 136.414 454.634 136.222 452.861 135.815L451.185 135.432C450.898 135.36 450.706 135.097 450.754 134.809L450.993 133.109C451.281 131.193 450.395 129.325 448.718 128.391C447.042 127.434 444.958 127.553 443.426 128.775L442.061 129.828C441.845 130.02 441.51 129.996 441.294 129.756L440.121 128.463C437.75 125.877 435.954 122.716 434.948 119.363L434.445 117.711C434.349 117.448 434.493 117.16 434.756 117.041L436.337 116.394C438.133 115.676 439.307 113.951 439.307 112.012C439.331 110.096 438.181 108.396 436.433 107.677L434.828 107.007C434.565 106.887 434.421 106.6 434.517 106.312L435.068 104.66C436.145 101.307 437.965 98.1702 440.36 95.6078L441.51 94.3386C441.701 94.1231 442.037 94.0991 442.276 94.2668L443.617 95.2965C444.599 96.0628 445.844 96.3741 447.09 96.2304C448.359 96.0628 449.509 95.4402 450.275 94.4344C451.065 93.4286 451.4 92.1834 451.257 90.8902L451.041 89.2139C450.993 88.9265 451.209 88.6631 451.496 88.5913L453.173 88.2321C456.597 87.4658 460.237 87.4658 463.662 88.2321L465.338 88.6152C465.626 88.6871 465.817 88.9505 465.77 89.2379L465.554 90.9381C465.291 92.8299 466.177 94.6739 467.853 95.6078C469.529 96.5657 471.613 96.446 473.146 95.2486L474.487 94.1949C474.702 94.0033 475.038 94.0273 475.253 94.2668L476.427 95.536C478.821 98.1223 480.617 101.259 481.671 104.612L482.198 106.264C482.294 106.528 482.15 106.839 481.863 106.959L480.258 107.605C478.438 108.324 477.265 110.048 477.241 111.988C477.217 113.903 478.39 115.652 480.162 116.346L481.791 116.993C482.007 117.064 482.15 117.352 482.078 117.639Z" fill="url(#paint5_radial_51_225)"/>
<path d="M467.206 107.15C464.452 102.361 458.322 100.709 453.532 103.462C448.742 106.216 447.09 112.347 449.844 117.136C452.598 121.926 458.705 123.578 463.494 120.824C468.284 118.07 469.96 111.94 467.206 107.15ZM461.435 117.208C458.633 118.837 455.041 117.855 453.412 115.053C451.784 112.251 452.766 108.659 455.567 107.031C458.369 105.402 461.962 106.384 463.59 109.186C465.219 111.964 464.261 115.532 461.507 117.16C461.483 117.184 461.459 117.208 461.435 117.208Z" fill="white" stroke="url(#paint6_linear_51_225)" stroke-width="1.5" stroke-miterlimit="10"/>
<path d="M476.882 112.107C476.906 109.952 478.223 107.988 480.234 107.198L481.839 106.552L481.312 104.899C480.282 101.618 478.534 98.5772 476.187 96.0388L475.014 94.7696L473.673 95.7993C471.972 97.1164 469.625 97.284 467.757 96.2064C465.913 95.1527 464.883 93.0454 465.195 90.962L465.41 89.2617L463.734 88.9025C460.357 88.1602 456.861 88.1602 453.484 88.9025L451.808 89.2617L452.023 90.938C452.382 93.8596 450.299 96.5417 447.353 96.9009C445.988 97.0925 444.575 96.7093 443.474 95.8472L442.133 94.8175L440.983 96.0867C438.636 98.6251 436.888 101.642 435.834 104.923L435.283 106.576L436.888 107.246C438.852 108.06 440.121 110 440.097 112.107C440.073 114.263 438.78 116.202 436.768 117.017L435.164 117.663L435.666 119.315C436.672 122.62 438.421 125.637 440.72 128.2L441.893 129.493L443.258 128.439C444.958 127.122 447.305 126.931 449.173 128.008C451.041 129.086 452.047 131.193 451.736 133.325L451.496 135.025L453.173 135.408C454.897 135.791 456.669 135.983 458.441 135.983C460.118 135.983 461.818 135.791 463.494 135.432L465.171 135.073L464.931 133.372C464.524 130.451 466.56 127.769 469.482 127.362C470.918 127.17 472.379 127.553 473.505 128.463L474.846 129.541L476.019 128.248C478.39 125.685 480.139 122.644 481.192 119.363L481.743 117.687L480.115 117.04C478.151 116.202 476.858 114.239 476.882 112.107ZM474.343 124.488C469.865 122.237 464.405 124.033 462.153 128.511C461.603 129.613 461.267 130.81 461.219 132.031C459.351 132.271 457.459 132.271 455.592 132.007C455.424 128.966 453.747 126.236 451.113 124.727C448.479 123.219 445.294 123.099 442.564 124.464C441.414 123.003 440.504 121.351 439.786 119.627C442.3 117.95 443.833 115.149 443.857 112.107C443.881 109.114 442.396 106.312 439.929 104.612C440.624 102.864 441.606 101.235 442.731 99.7506C447.257 101.954 452.694 100.062 454.873 95.5598C455.376 94.5301 455.687 93.4046 455.783 92.2551C457.651 91.9917 459.543 91.9917 461.411 92.2551C461.746 97.2361 466.057 100.996 471.014 100.661C472.212 100.565 473.385 100.253 474.439 99.7266C475.014 100.469 475.564 101.259 476.043 102.097C476.498 102.888 476.906 103.726 477.241 104.564C474.702 106.24 473.17 109.042 473.146 112.083C473.122 115.125 474.63 117.95 477.169 119.627C476.451 121.351 475.493 123.003 474.343 124.488Z" fill="white" stroke="url(#paint7_linear_51_225)" stroke-width="1.5" stroke-miterlimit="10"/>
</g>
<g clip-path="url(#clip0_51_225)">
<path d="M54.094 115.146C46.1314 115.146 39.6667 108.678 39.6667 100.711V56.2617C39.6667 48.2948 46.1314 41.8266 54.094 41.8266H96.4296C104.392 41.8266 110.857 48.2948 110.857 56.2617V100.711C110.857 108.678 104.392 115.146 96.4296 115.146H54.094Z" fill="url(#paint8_linear_51_225)"/>
<path d="M96.4295 42.4182C104.077 42.4182 110.265 48.6497 110.265 56.2617V100.711C110.265 108.362 104.037 114.555 96.4295 114.555H54.0939C46.4467 114.555 40.258 108.323 40.258 100.711V56.2617C40.258 48.6497 46.4861 42.4182 54.0939 42.4182H96.4295ZM96.4295 41.235H54.0939C45.816 41.235 39.0754 47.9793 39.0754 56.2617V100.711C39.0754 109.033 45.816 115.738 54.0939 115.738H96.4295C104.747 115.738 111.448 108.993 111.448 100.711V56.2617C111.448 47.9793 104.747 41.235 96.4295 41.235Z" fill="#0C8C44"/>
<path d="M97.021 97.2405C96.3509 98.542 94.7348 99.0547 93.4339 98.3842C83.1063 92.8626 70.5317 92.271 55.9863 96.6489C54.6066 97.0827 53.1087 96.2545 52.7145 94.8346C52.3203 93.4148 53.1087 91.916 54.4883 91.4822C70.3741 86.6705 84.2888 87.4198 95.8779 93.612C97.1787 94.3219 97.6912 95.9389 97.021 97.2405Z" fill="white" stroke="#006838" stroke-width="1.5" stroke-miterlimit="10"/>
<path d="M101.436 84.0278C100.608 85.7238 98.5581 86.4337 96.8631 85.566C84.5251 79.2556 66.5108 78.7034 53.0296 84.225C51.2952 84.935 49.2849 84.0673 48.6148 82.2925C47.9446 80.5176 48.7724 78.5062 50.5068 77.7963C65.8801 71.5252 85.7471 72.1563 99.8984 79.4133C101.593 80.2416 102.264 82.3319 101.436 84.0278Z" fill="white" stroke="#006838" stroke-width="1.5" stroke-miterlimit="10"/>
<path d="M100.372 71.6041C85.7473 64.071 62.4904 64.8992 49.3245 69.987C47.1959 70.8153 44.8308 69.711 44.0424 67.5812C43.2541 65.4514 44.3184 63.0455 46.4076 62.2173C61.5049 56.3801 87.1664 55.5124 104.038 64.1893C106.048 65.2148 106.876 67.7389 105.851 69.7898C104.826 71.8013 102.382 72.6295 100.372 71.6041Z" fill="white" stroke="#006838" stroke-width="1.5" stroke-miterlimit="10"/>
<path d="M101.442 106.137C100.445 107.246 98.8939 107.467 97.897 107.024C97.3432 106.802 96.7893 106.359 96.7893 105.362C96.5678 101.372 93.9094 98.8229 91.1403 98.0471C91.251 97.493 91.251 97.0496 91.251 96.4955C91.1403 93.7248 90.0326 90.7325 88.1496 88.1835C84.162 82.7529 72.1992 72.1135 60.6795 61.6957C59.018 60.2549 57.3565 58.7034 55.8058 57.2626C54.4766 56.0435 53.0367 56.1543 52.2613 56.8193C51.3752 57.4843 50.9321 58.8142 51.8182 60.3658C58.3534 73.9975 68.1009 92.2841 73.7499 99.377C75.5222 101.594 77.7375 103.367 80.1744 104.143C79.7313 110.016 83.9404 114.893 90.2541 115.669C97.0109 116.555 102.66 112.676 103.325 106.802L103.657 103.921L101.442 106.137ZM53.2582 59.59C52.9259 59.0358 53.0367 58.5925 53.1474 58.3709C53.2582 58.2601 53.3689 58.2601 53.4797 58.2601C53.7012 58.2601 53.9228 58.3709 54.2551 58.7034C55.9166 60.1441 57.4673 61.5849 59.1288 63.1365C70.7593 73.4434 82.6112 84.0828 86.4881 89.2917C88.2603 91.5083 89.1465 94.0573 89.2572 96.4955C89.2572 98.8229 88.4819 100.707 87.0419 101.926C85.6019 103.034 83.4974 103.367 81.2821 102.702C78.956 102.037 76.7406 100.485 74.9684 98.2687C69.7624 91.7299 60.3472 74.2192 53.2582 59.59ZM90.2541 113.895C85.1589 113.23 81.7251 109.462 81.8359 104.808C82.0574 104.808 82.2789 104.918 82.3897 104.918C84.605 105.251 86.7096 104.697 88.2603 103.478C89.368 102.591 90.2541 101.372 90.6972 99.9312C92.5802 100.485 94.6848 102.369 94.9063 105.473C94.9063 107.024 95.7924 108.354 97.2324 108.908C98.3401 109.351 99.4477 109.241 100.555 108.908C98.8939 112.787 94.3525 114.45 90.2541 113.895Z" fill="url(#paint9_linear_51_225)"/>
<path d="M91.8049 116.444C91.1404 116.444 90.5865 116.444 89.9219 116.334C83.4975 115.558 79.1776 110.681 79.3991 104.697C77.073 103.699 74.8577 102.037 73.0854 99.8203C67.3256 92.7274 57.6889 74.33 51.1537 60.6983C50.1568 58.925 50.7106 57.2626 51.7075 56.4868C52.7044 55.711 54.4767 55.6002 56.0274 57.041L57.2459 58.1492C58.4643 59.2575 59.6827 60.3658 60.9011 61.4741L61.0119 61.5849C72.5316 71.8918 84.3836 82.5313 88.3712 87.9618C90.365 90.5108 91.5834 93.614 91.5834 96.6063C91.5834 97.0497 91.5834 97.3821 91.5834 97.8254C94.2418 98.8229 97.011 101.483 97.2325 105.583C97.2325 106.248 97.454 106.581 98.0079 106.802C98.7832 107.135 100.112 106.913 100.999 106.027L104.1 102.591L103.546 107.135C103.214 110.127 101.552 112.787 99.0048 114.45C97.011 115.669 94.4633 116.444 91.8049 116.444ZM53.4798 56.9301C53.0367 56.9301 52.7044 57.041 52.3721 57.2626C51.7075 57.8167 51.3752 58.8142 52.0398 60.1441C58.6858 73.6651 68.3225 92.0624 73.9716 99.0445C75.6331 101.261 77.8484 102.813 80.1745 103.699L80.5068 103.81V104.253C80.1745 109.795 84.1621 114.45 90.0327 115.225C93.1341 115.558 96.1248 115.004 98.4509 113.452C100.777 111.901 102.217 109.573 102.549 106.802L102.66 105.583L101.774 106.47C100.555 107.8 98.7832 108.022 97.6756 107.578C96.7894 107.246 96.2356 106.47 96.2356 105.362C96.0141 101.594 93.4664 99.2662 90.9188 98.4904L90.5865 98.3796V97.9363C90.6973 97.493 90.6973 96.9388 90.6973 96.4955C90.5865 93.8357 89.5896 90.9541 87.7066 88.5159C83.719 83.1962 71.867 72.5568 60.4581 62.3607L60.3473 62.2498C59.1289 61.1416 57.9105 60.0333 56.692 58.925L55.4736 57.8167C54.6982 57.1518 54.0336 56.9301 53.4798 56.9301ZM91.6942 114.56C91.1404 114.56 90.6973 114.56 90.1435 114.45C84.8267 113.785 81.1714 109.684 81.2821 104.808V104.143L81.9467 104.253C82.1683 104.253 82.3898 104.364 82.5006 104.364C84.6051 104.586 86.4882 104.143 87.9281 103.034C89.0358 102.259 89.7004 101.15 90.2542 99.7095L90.4758 99.1554L91.0296 99.2662C93.1341 99.9312 95.3495 102.148 95.571 105.362C95.571 106.692 96.3464 107.8 97.5648 108.243C98.4509 108.576 99.5586 108.576 100.555 108.243L101.663 107.911L101.22 109.019C99.4478 112.898 95.3495 114.56 91.6942 114.56ZM82.279 105.362C82.5006 109.462 85.7128 112.787 90.2542 113.341C93.4664 113.785 97.6756 112.676 99.5586 109.573C98.6725 109.684 97.7863 109.573 97.011 109.241C95.3495 108.576 94.3526 107.135 94.2418 105.362C94.131 102.924 92.5803 101.261 90.9188 100.485C90.365 101.815 89.5896 102.924 88.482 103.81C86.8205 105.14 84.7159 105.694 82.279 105.362ZM83.4975 103.588C82.7221 103.588 81.9467 103.478 81.1714 103.256C78.7345 102.591 76.4084 100.929 74.6362 98.6012C69.4302 92.0624 60.015 74.4409 52.926 59.8116C52.4829 58.925 52.5937 58.2601 53.0367 57.9276C53.1475 57.8167 53.4798 57.7059 53.8121 57.7059C54.1444 57.7059 54.5875 57.9276 54.9198 58.2601L55.3628 58.7034C56.8028 60.0333 58.3535 61.3632 59.7935 62.6932C71.0916 73.1109 83.0544 83.7504 86.9312 88.9593C88.7035 91.2866 89.7004 93.9465 89.8112 96.4955C89.9219 99.0445 89.0358 101.039 87.3743 102.369C86.3774 103.145 84.9374 103.588 83.4975 103.588ZM53.5906 58.8142C53.5906 58.925 53.5906 59.0358 53.7013 59.2575C60.7904 73.7759 70.2055 91.3975 75.3008 97.8254C76.9623 99.9312 79.0668 101.483 81.2821 102.148C83.3867 102.702 85.2697 102.48 86.5989 101.372C87.9281 100.374 88.7035 98.6012 88.5927 96.3847C88.482 94.0573 87.5958 91.6191 85.9343 89.5134C82.279 84.4153 70.427 73.7759 58.9074 63.5798C57.4674 62.2498 55.9167 60.9199 54.4767 59.59L54.0336 59.1467C53.8121 59.0358 53.7013 58.925 53.5906 58.8142Z" fill="#046938"/>
<path d="M100.666 108.797C99.0049 112.676 94.3527 114.339 90.2543 113.895C85.1591 113.231 81.7253 109.462 81.8361 104.808C82.0576 104.808 82.2792 104.918 82.3899 104.918C84.6053 105.251 86.7098 104.697 88.2606 103.478C89.3682 102.591 90.2543 101.372 90.6974 99.9312C92.5804 100.485 94.685 102.369 94.9065 105.473C94.9065 107.024 95.7927 108.354 97.2326 108.908C98.3403 109.241 99.5587 109.241 100.666 108.797Z" fill="white"/>
<path d="M91.6943 114.56C91.1404 114.56 90.6974 114.56 90.1435 114.45C84.8268 113.785 81.1715 109.684 81.2822 104.808V104.143L81.9468 104.253C82.1684 104.253 82.2791 104.364 82.5007 104.364C84.6052 104.586 86.4883 104.143 87.9282 103.034C89.0359 102.259 89.7005 101.15 90.2543 99.7095L90.4758 99.1554L91.0297 99.2662C93.1342 99.9312 95.3496 102.037 95.5711 105.362C95.5711 106.692 96.3465 107.8 97.5649 108.243C98.451 108.576 99.5587 108.576 100.556 108.243L101.663 107.911L101.22 109.019C99.4479 112.898 95.3496 114.56 91.6943 114.56ZM82.2791 105.362C82.5007 109.462 85.7129 112.787 90.2543 113.341C93.4665 113.785 97.6756 112.676 99.5587 109.573C98.6725 109.684 97.7864 109.573 97.0111 109.241C95.3496 108.576 94.3527 107.135 94.3527 105.362C94.2419 102.924 92.6912 101.15 91.0297 100.485C90.4758 101.815 89.7005 102.924 88.5928 103.81C86.8206 105.14 84.716 105.694 82.2791 105.362Z" fill="#046938"/>
<path d="M87.0419 101.926C85.4911 103.034 83.4974 103.367 81.282 102.702C78.9559 102.037 76.7406 100.485 74.9684 98.2688C69.7623 91.7299 60.3472 74.1084 53.2582 59.59C52.9259 59.0359 53.0366 58.5926 53.1474 58.3709C53.2582 58.2601 53.3689 58.2601 53.4797 58.2601C53.7012 58.2601 53.9228 58.3709 54.2551 58.7034C55.9165 60.1441 57.4673 61.5849 59.1288 63.1365C70.7592 73.4434 82.6112 84.0829 86.488 89.2917C88.2603 91.5083 89.1464 94.0573 89.2572 96.4955C89.368 98.8229 88.5926 100.707 87.0419 101.926Z" fill="white"/>
<path d="M83.4974 103.588C82.722 103.588 81.9466 103.478 81.1713 103.256C78.7344 102.591 76.4083 100.929 74.6361 98.6013C69.43 92.0624 59.9041 74.4409 52.9259 59.8117C52.4828 59.0359 52.5936 58.2601 53.0366 58.0384C53.2582 57.9276 53.4797 57.8168 53.812 57.8168C54.1443 57.8168 54.5873 58.0384 54.9196 58.3709C55.8058 59.1467 56.6919 60.0333 57.578 60.8091C58.3534 61.4741 59.018 62.139 59.7934 62.804C71.0915 73.111 83.0543 83.7504 86.9311 88.9593C88.7034 91.2867 89.7003 93.9465 89.811 96.4955C89.9218 98.9337 89.0357 101.039 87.3742 102.369C86.3773 103.145 85.0481 103.588 83.4974 103.588ZM53.5905 58.925C53.5905 59.0359 53.5905 59.1467 53.7012 59.3684C60.7903 73.9976 70.2054 91.5083 75.3007 98.0471C76.9622 100.153 79.0667 101.704 81.282 102.369C83.3866 102.924 85.2696 102.702 86.5988 101.594C87.928 100.485 88.7034 98.7121 88.5926 96.6064C88.4818 94.279 87.5957 91.8408 85.9342 89.7351C82.2789 84.4154 70.4269 73.7759 58.9072 63.5798C58.1319 62.9148 57.4673 62.2499 56.6919 61.5849C55.8058 60.8091 54.9196 59.9225 54.0335 59.1467C53.812 59.0359 53.7012 58.925 53.5905 58.925Z" fill="#046938"/>
</g>
<path d="M566.641 117.945H526.628C515.544 117.945 506.352 108.974 506.352 98.1563V59.1075C506.352 48.2899 515.544 39.3192 526.628 39.3192H566.641C577.726 39.3192 586.918 48.2899 586.918 59.1075V98.1563C586.918 108.974 577.726 117.945 566.641 117.945Z" fill="#EDEDED"/>
<path d="M535.01 95.7818C536.091 94.1987 536.902 92.3518 537.713 90.5049C538.524 88.658 539.065 86.5472 539.876 84.4365C540.687 82.3257 541.498 80.215 542.309 78.3681C543.12 76.2573 544.472 74.4104 545.824 72.2997C547.176 70.4528 548.798 68.6059 550.69 66.759C552.583 64.912 555.016 63.5928 557.72 62.0098C555.016 63.0651 552.312 64.3844 550.15 65.9674C547.987 67.5505 545.824 69.3974 544.202 71.2443C542.309 73.0912 540.957 74.9381 539.606 76.5212C538.254 78.3681 537.172 79.6873 536.361 81.0065C534.739 83.3811 533.117 85.228 531.765 87.0749C530.413 88.9218 528.791 90.5049 527.439 91.8241C525.817 93.1433 524.466 94.1987 522.573 94.9902C520.681 95.7818 518.788 96.0456 516.896 96.0456C515.814 96.0456 515.003 96.0456 514.192 95.7818C513.381 95.5179 512.57 95.2541 512.029 94.7264C511.488 94.1987 510.677 93.4072 510.407 92.8795C510.137 92.0879 509.866 91.2964 509.866 90.241C509.866 89.1857 510.137 88.3941 510.948 87.6026C511.488 86.8111 512.299 86.5472 513.381 86.5472C514.192 86.5472 515.003 86.8111 515.544 87.3388C516.084 87.8664 516.355 88.658 516.355 89.4495C516.355 90.241 516.084 90.7687 515.814 91.2964C515.544 91.8241 514.733 92.0879 514.192 92.0879C514.462 93.1433 514.733 93.9348 515.273 94.4625C515.814 94.9902 516.625 95.2541 517.707 95.2541C519.599 95.2541 521.492 94.7264 523.114 93.9348C524.736 92.8795 526.358 91.8241 527.98 90.241C529.602 88.658 531.225 86.8111 532.847 84.4365C534.469 82.3257 536.361 79.9511 538.254 77.5765C539.606 75.4658 541.228 73.6189 542.85 72.0358C544.472 70.1889 546.094 68.6059 547.987 67.2866C549.879 65.9674 551.772 64.6482 553.935 63.5928C556.097 62.5375 558.26 61.4821 560.964 60.9544L561.234 61.4821C559.612 61.7459 557.99 63.0651 556.638 64.3844C555.286 65.7036 554.205 67.2866 553.394 69.1335C552.583 70.7166 551.501 72.5635 550.961 74.4104C550.15 76.2573 549.339 78.3681 548.527 80.215C547.716 82.3257 546.635 84.1726 545.554 86.2834C544.472 88.3941 542.85 90.241 540.957 92.0879C542.309 91.0326 543.391 89.9772 544.472 88.9218C545.554 87.8664 546.635 86.5472 547.987 85.228C549.339 83.9088 550.69 82.3257 552.042 80.4788C553.664 78.6319 555.286 76.5212 557.179 73.8827C558.531 72.0358 560.153 70.1889 561.775 68.6059C563.397 67.0228 565.29 65.7036 566.912 64.3844C568.804 63.329 570.697 62.2736 572.86 61.7459C575.023 60.9544 577.185 60.6906 579.619 60.6906C580.97 60.6906 581.782 60.6906 582.322 60.9544C583.133 61.2182 583.404 61.4821 583.404 62.0098C583.404 62.2736 583.133 62.2736 582.863 62.5375C582.593 62.8013 582.322 62.8013 581.782 62.8013C581.241 62.8013 580.7 62.8013 580.43 62.8013C580.159 62.8013 579.619 62.8013 579.348 62.5375C579.078 62.5375 578.808 62.5375 578.267 62.2736C577.726 62.2736 577.456 62.2736 577.185 62.2736C576.645 62.2736 575.834 62.5375 575.293 63.0651C574.482 63.5928 573.671 64.3844 573.13 65.4397C572.589 66.4951 571.508 67.5505 570.697 69.1335C569.886 70.4528 569.075 72.0358 568.534 73.8827C567.453 76.785 566.371 79.1596 565.29 81.5342C564.208 83.6449 563.127 85.7557 561.775 87.6026C560.423 89.4495 558.801 91.0326 556.909 92.3518C555.016 93.671 552.853 94.9902 550.15 95.7818C552.042 95.7818 553.935 95.5179 555.827 95.2541C557.72 94.9902 559.612 94.4625 561.234 93.671C563.127 92.8795 564.749 91.8241 566.371 90.241C567.993 88.658 569.886 86.2834 571.778 83.3811L572.319 83.6449C570.967 86.0195 569.345 88.1303 567.993 89.7134C566.641 91.2964 565.019 92.6156 563.397 93.4072C562.045 94.1987 560.964 94.7264 559.612 94.9902C558.26 95.5179 556.909 95.7818 555.827 95.7818C554.475 96.0456 553.394 96.0456 552.312 96.0456C551.231 96.0456 550.42 96.0456 549.609 96.0456C549.339 96.0456 549.068 96.0456 548.798 96.0456C548.527 96.0456 548.257 96.0456 547.987 96.3094C547.716 96.3094 547.176 96.3094 546.905 96.3094C546.635 96.3094 546.094 96.3094 545.283 96.3094C544.202 96.3094 543.661 96.0456 543.661 95.5179C543.661 94.9902 544.202 94.7264 545.013 94.7264C545.283 94.7264 545.554 94.7264 546.094 94.7264C546.365 94.7264 546.905 94.9902 547.176 94.9902C547.446 94.9902 547.987 95.2541 548.257 95.2541C548.527 95.2541 548.798 95.2541 549.068 95.2541C549.879 95.2541 550.42 94.9902 551.231 94.1987C552.042 93.4072 552.583 92.3518 553.394 91.2964C554.205 89.9772 554.746 88.658 555.557 86.8111C556.368 85.228 557.179 83.3811 557.99 81.5342C558.801 79.6873 559.882 77.8404 560.964 75.9935C562.045 74.1466 563.397 72.2997 564.749 70.4528C566.101 68.6059 567.723 67.0228 569.615 65.7036C571.238 64.3844 573.4 63.0651 575.563 62.2736C573.941 62.8013 572.049 63.329 570.426 64.1205C568.804 64.912 567.182 65.9674 565.83 67.2866C564.479 68.342 562.856 69.9251 561.505 71.2443C560.153 72.8274 558.801 74.4104 557.449 75.9935C556.097 77.5765 554.746 79.4234 553.124 81.5342C551.501 83.6449 549.609 85.4918 547.987 87.6026C546.094 89.4495 544.202 91.2964 542.309 92.8795C540.417 94.4625 538.254 95.7818 536.361 96.5733L535.01 95.7818Z" fill="black"/>
<path d="M571.508 88.9218C572.589 88.9218 573.4 89.1857 574.211 89.9772C575.022 90.7687 575.293 91.5603 575.293 92.6156C575.293 93.671 575.022 94.4625 574.211 95.2541C573.4 96.0456 572.589 96.3094 571.508 96.3094C570.426 96.3094 569.615 96.0456 568.804 95.2541C567.993 94.4625 567.723 93.671 567.723 92.6156C567.723 91.5603 567.993 90.7687 568.804 89.9772C569.345 89.1857 570.426 88.9218 571.508 88.9218Z" fill="black"/>
<g clip-path="url(#clip1_51_225)">
<path d="M189 118.485C210.255 118.485 227.485 101.255 227.485 80C227.485 58.7454 210.255 41.5151 189 41.5151C167.745 41.5151 150.515 58.7454 150.515 80C150.515 101.255 167.745 118.485 189 118.485Z" fill="url(#paint10_radial_51_225)" stroke="#162B41" stroke-width="2" stroke-miterlimit="10"/>
<path d="M196.778 73.6363C193.323 68.8485 186.535 67.8182 181.747 71.3333C176.96 74.7879 175.929 81.5757 179.444 86.3636C182.96 91.1515 189.687 92.1818 194.475 88.6666C199.263 85.2121 200.293 78.4242 196.778 73.6363ZM191.869 85.0303C189.141 87.0909 185.141 86.5454 183.081 83.6969C181.02 80.9697 181.626 77.0303 184.475 74.9091C187.202 72.8485 191.141 73.4545 193.202 76.303C195.202 79.0303 194.657 82.9697 191.869 85.0303C191.929 85.0303 191.929 85.0303 191.869 85.0303Z" fill="white"/>
<path d="M191.869 85.0303C189.141 87.0909 185.141 86.5454 183.081 83.6969C181.02 80.9697 181.626 77.0303 184.475 74.9091C187.202 72.8485 191.141 73.4545 193.202 76.303C195.202 79.0303 194.657 82.9697 191.869 85.0303ZM191.869 85.0303C191.929 85.0303 191.929 85.0303 191.869 85.0303ZM196.778 73.6363C193.323 68.8485 186.535 67.8182 181.747 71.3333C176.96 74.7879 175.929 81.5757 179.444 86.3636C182.96 91.1515 189.687 92.1818 194.475 88.6666C199.263 85.2121 200.293 78.4242 196.778 73.6363Z" stroke="#162B41" stroke-width="1.5" stroke-miterlimit="10"/>
<path d="M207.626 77.7576C207.384 75.4545 208.535 73.2727 210.596 72.1212L212.232 71.2121L211.444 69.5151C209.99 66.1212 207.747 63.1515 204.96 60.6666L203.566 59.4545L202.232 60.7272C200.596 62.303 198.051 62.7879 195.99 61.8788C193.929 61.0303 192.596 58.8485 192.657 56.606L192.717 54.7879L190.899 54.5454C187.202 54.1212 183.444 54.5454 179.99 55.7575L178.293 56.3636L178.778 58.1212C179.566 61.1515 177.566 64.303 174.535 64.9697C173.141 65.3333 171.566 65.0909 170.293 64.3636L168.717 63.4545L167.626 64.9091C165.384 67.8788 163.929 71.3333 163.202 74.9697L162.838 76.7879L164.596 77.3333C166.838 78 168.354 79.8182 168.596 82.1212C168.838 84.4242 167.687 86.606 165.626 87.7576L163.99 88.6666L164.717 90.3636C166.172 93.7576 168.354 96.7273 171.141 99.2121L172.535 100.424L173.869 99.1515C175.505 97.5757 178.051 97.0909 180.111 98C182.232 98.9091 183.505 101.03 183.444 103.333L183.384 105.212L185.263 105.394C187.141 105.576 189.02 105.576 190.96 105.394C192.778 105.212 194.535 104.788 196.232 104.182L197.99 103.515L197.505 101.758C196.717 98.7273 198.596 95.5757 201.566 94.8485C203.02 94.4848 204.657 94.7273 205.99 95.5151L207.566 96.4848L208.657 95.0303C210.899 92.0606 212.293 88.5454 213.081 84.9091L213.444 83.0909L211.687 82.5454C209.444 81.9394 207.869 80.0606 207.626 77.7576ZM206.475 91.2727C201.444 89.3333 195.808 91.9394 193.929 96.9697C193.444 98.1818 193.323 99.5151 193.384 100.788C191.444 101.273 189.384 101.515 187.384 101.394C186.899 98.1818 184.717 95.5151 181.747 94.1818C178.778 92.9091 175.384 93.1515 172.596 94.9091C171.263 93.5151 169.99 91.8788 169.081 90.0606C171.566 88 172.899 84.8485 172.535 81.6363C172.172 78.4242 170.293 75.6363 167.384 74.1818C167.929 72.2424 168.717 70.3636 169.808 68.6666C174.899 70.4848 180.414 67.8182 182.293 62.7879C182.717 61.6363 182.899 60.3636 182.838 59.1515C184.778 58.606 186.838 58.3636 188.838 58.4848C189.747 63.7576 194.778 67.2727 200.05 66.303C201.263 66.0606 202.535 65.5757 203.626 64.9091C204.354 65.6363 205.02 66.4242 205.626 67.2727C206.232 68.1212 206.717 68.8485 207.141 69.6969C204.657 71.7576 203.323 74.9091 203.687 78.1212C203.99 81.3333 205.99 84.1818 208.899 85.6363C208.232 87.6363 207.444 89.5151 206.475 91.2727Z" fill="white" stroke="#162B41" stroke-width="1.5" stroke-miterlimit="10"/>
</g>
<g clip-path="url(#clip2_51_225)">
<path d="M282.806 39H326.194C336.023 39 344 46.9771 344 56.8059V100.194C344 110.023 336.023 118 326.194 118H282.806C272.977 118 265 110.023 265 100.194V56.8059C265 46.9771 272.977 39 282.806 39Z" fill="url(#paint11_linear_51_225)"/>
<path d="M284.796 65.215L277.807 60.4935C283.809 51.606 293.792 46.2982 304.515 46.2982C307.463 46.2982 310.394 46.6994 313.218 47.4863L310.95 55.6177C308.867 55.0314 306.706 54.7383 304.531 54.7383C296.6 54.7383 289.225 58.6574 284.796 65.215Z" fill="white" stroke="#27AAE1" stroke-miterlimit="10" stroke-linecap="round" stroke-linejoin="round"/>
<g opacity="0.7">
<path d="M277.868 96.6144C274.227 91.2603 272.298 84.9959 272.298 78.5C272.298 72.0504 274.196 65.8168 277.807 60.4935L284.796 65.215C282.142 69.1496 280.738 73.7322 280.738 78.5C280.738 83.2986 282.158 87.9121 284.843 91.8621L277.868 96.6144Z" fill="white" stroke="#27AAE1" stroke-miterlimit="10" stroke-linecap="round" stroke-linejoin="round"/>
</g>
<g opacity="0.5">
<path d="M304.5 110.702C293.838 110.702 283.886 105.44 277.868 96.6144L284.843 91.8621C289.286 98.3734 296.631 102.262 304.5 102.262C310.008 102.262 315.378 100.333 319.621 96.8304L324.991 103.342C319.235 108.094 311.968 110.702 304.5 110.702Z" fill="white" stroke="#27AAE1" stroke-miterlimit="10" stroke-linecap="round" stroke-linejoin="round"/>
</g>
<g opacity="0.3">
<path d="M324.991 103.342L319.621 96.8304C325.114 92.3095 328.262 85.6131 328.262 78.5C328.262 74.7506 327.413 71.1554 325.731 67.8226L333.276 64.0269C335.545 68.5478 336.702 73.4082 336.702 78.5C336.702 88.1435 332.428 97.2007 324.991 103.342Z" fill="white" stroke="#27AAE1" stroke-miterlimit="10" stroke-linecap="round" stroke-linejoin="round"/>
</g>
<g opacity="0.1">
<path d="M325.731 67.8227C322.723 61.8514 317.322 57.4076 310.919 55.6023L313.203 47.4863C321.889 49.9242 329.219 55.9418 333.277 64.027L325.731 67.8227Z" fill="white" stroke="#27AAE1" stroke-miterlimit="10" stroke-linecap="round" stroke-linejoin="round"/>
</g>
<path opacity="0.1" d="M304.5 100.95C316.865 100.95 326.889 90.9265 326.889 78.5617C326.889 66.1969 316.865 56.1732 304.5 56.1732C292.135 56.1732 282.112 66.1969 282.112 78.5617C282.112 90.9265 292.135 100.95 304.5 100.95Z" fill="white"/>
<path d="M294.008 68.6559C297.973 68.6559 300.473 69.4428 302.216 71.0938C303.59 72.4361 304.608 74.4111 304.608 77.0959C304.608 80.3824 303.266 83.0518 301.09 84.6719C298.961 86.2766 296.23 86.8938 292.773 86.8938H286.2V86.1068C288.607 85.8754 288.731 85.6902 288.731 83.3758V72.1738C288.731 69.7668 288.391 69.6434 286.2 69.4274V68.6404L294.008 68.6559ZM291.169 83.1752C291.169 85.2736 292.064 85.8754 294.178 85.8754C299.239 85.8754 301.815 82.4192 301.815 77.5125C301.815 74.4574 300.781 72.1275 298.56 70.7697C297.264 69.952 295.643 69.6434 293.761 69.6434C292.496 69.6434 291.817 69.8131 291.539 70.0445C291.292 70.2143 291.169 70.5229 291.169 71.6184V83.1752Z" fill="white"/>
<path d="M312.801 74.2414C316.319 74.2414 318.927 76.9107 318.927 80.5367C318.927 85.0885 315.563 87.2486 312.801 87.2486C308.928 87.2486 306.568 84.1318 306.568 80.9842C306.568 76.4016 310.132 74.2414 312.801 74.2414ZM312.462 75.198C310.749 75.198 309.206 76.849 309.206 80.1201C309.206 83.6844 310.78 86.2766 313.079 86.2766C314.823 86.2766 316.288 85.0113 316.288 81.1693C316.288 77.8674 314.931 75.198 312.462 75.198Z" fill="white"/>
<path d="M321.951 87.3103C320.948 87.3103 320.238 86.5851 320.238 85.5205C320.238 84.5176 320.933 83.7307 321.951 83.7307C322.954 83.7307 323.725 84.5176 323.725 85.5205C323.725 86.5697 322.969 87.3103 321.951 87.3103Z" fill="white"/>
</g>
<path d="M461.679 51.0607V107.852C461.679 113.916 456.694 118.858 450.577 118.858H393.289C387.173 118.858 382.187 113.916 382.187 107.852V51.0607C382.187 44.9975 387.173 40.0551 393.289 40.0551H450.577C456.694 40.0551 461.679 44.9975 461.679 51.0607Z" fill="url(#paint12_linear_51_225)" stroke="url(#paint13_linear_51_225)" stroke-width="2" stroke-miterlimit="10"/>
<path d="M423.629 58.0006C423.74 58.0006 423.833 58.019 423.907 58.0374C423.814 58.0374 423.722 58.019 423.629 58.0006Z" fill="white" stroke="url(#paint14_linear_51_225)" stroke-width="2" stroke-miterlimit="10"/>
<path d="M424.141 58.0557C424.125 58.0557 424.125 58.0557 424.109 58.0557C424.109 58.0557 424.109 58.0557 424.092 58.0557C424.109 58.0557 424.125 58.0557 424.141 58.0557Z" fill="white" stroke="url(#paint15_linear_51_225)" stroke-width="2" stroke-miterlimit="10"/>
<path d="M424.092 58.0557C424.108 58.0557 424.124 58.0557 424.124 58.0557" stroke="url(#paint16_linear_51_225)" stroke-width="2" stroke-miterlimit="10"/>
<path d="M444.591 77.4395C443.701 75.4368 442.737 74.1139 441.255 72.1113C440.995 71.7622 441.292 71.8908 437.844 67.8303C436.973 66.8198 436.121 65.699 435.305 64.5231C434.36 63.1635 433.711 62.1897 433.248 61.418C433.007 61.0138 432.822 60.6831 432.71 60.4994C433.063 59.397 433.359 58.2578 433.637 57.1554C433.952 55.9795 434.267 54.7669 434.638 53.6094C434.731 53.3338 434.638 53.0215 434.416 52.8377C434.286 52.7275 434.101 52.654 433.934 52.654C433.822 52.654 433.711 52.6724 433.619 52.7275L432.266 53.3522C430.82 54.032 429.393 54.7118 428.021 55.3732C426.705 55.9979 425.352 56.6594 423.962 57.3024C423.61 57.2657 422.85 57.1922 421.813 57.1922C421.201 57.1922 420.589 57.2106 419.978 57.2657C418.495 57.3759 413.991 57.725 410.266 59.7277L410.229 59.7461C410.136 59.8012 410.006 59.8563 409.858 59.9482C406.188 61.8406 403.075 64.6885 400.888 68.1978C397.718 73.2504 397.515 78.1377 397.44 80.2139C397.366 82.6942 397.681 84.5683 397.793 85.1746C398.126 86.9385 398.867 89.7312 400.591 92.5423C404.001 98.1094 409.209 100.461 411.322 101.361C416.16 103.456 420.256 103.474 421.368 103.456C421.368 103.456 426.687 103.364 431.765 99.91C432.043 99.7262 432.117 99.4874 432.117 99.4874C432.136 99.4139 432.154 99.3404 432.154 99.2669C432.154 98.8627 431.839 98.5504 431.432 98.532H431.376C431.357 98.532 431.339 98.532 431.339 98.532L430.709 98.5871C430.616 98.5871 430.523 98.6239 430.431 98.6606C429.17 99.2853 427.873 99.7814 426.52 100.13C424.945 100.535 423.499 100.792 421.405 100.774C417.086 100.755 407.3 97.8154 403.538 89.18C403.538 89.18 401.388 84.2376 402.407 77.66C402.963 74.0037 404.298 71.5049 404.594 70.9721C405.002 70.2188 405.466 69.4839 405.985 68.7857C408.301 65.6255 411.211 63.8066 413.25 62.8144C414.547 62.1897 417.513 61.3813 421.294 60.9771C422.591 60.8301 423.647 60.8117 424.333 60.8117C424.667 60.8117 424.871 60.8117 424.926 60.8117H424.963C425.093 60.8117 425.241 60.775 425.352 60.7015L427.132 59.6175L430.746 57.431L429.838 60.2789L429.615 60.9771C429.597 61.0689 429.578 61.2159 429.597 61.3813C429.634 61.6569 429.782 61.7487 430.079 62.1897C430.208 62.3918 430.153 62.3367 430.523 62.9063C430.616 63.0532 430.727 63.2186 430.839 63.4023C432.266 65.5888 433.656 67.4445 435.083 69.0429C437.956 72.2582 438.549 73.1218 439.939 75.051C440.828 76.3004 441.236 76.9434 441.588 77.7151C442.367 79.3319 443.238 81.1876 442.682 83.1903C442.089 85.3032 440.235 86.424 439.531 86.8099C439.364 86.1852 439.049 85.34 438.456 84.4765C437.622 83.2271 436.603 82.4554 435.769 81.9042C432.062 79.534 429.133 80.2139 424.685 77.5865C423.054 76.6127 422.091 75.7124 421.572 74.4814C421.423 74.1139 420.83 72.3869 421.572 70.7333C422.202 69.3185 423.388 68.8776 423.165 68.0691C423.036 67.5731 422.443 67.2423 421.942 67.1689C421.813 67.1505 421.256 67.0954 420.441 67.7201C419.032 68.8041 418.68 70.5495 418.569 71.1375C418.143 73.4158 418.921 75.2898 419.144 75.7675C420.256 78.2112 422.35 79.4422 423.814 80.269C428.077 82.6759 431.061 81.9226 434.304 84.4948C435.287 85.2665 435.88 86.0014 436.343 87.012C436.973 88.4267 436.918 89.7496 436.881 90.117C436.862 90.3743 436.973 90.6315 437.177 90.7785C437.307 90.8703 437.455 90.9255 437.603 90.9255C437.752 90.9255 437.863 90.8887 437.9 90.8703C440.513 89.7863 442.163 88.2613 442.163 88.2613C443.405 87.1222 444.257 86.3138 444.924 84.899C445.11 84.5132 445.499 83.668 445.647 82.5105C445.777 81.9777 445.907 80.3976 444.591 77.4395Z" fill="white" stroke="url(#paint17_linear_51_225)" stroke-width="2" stroke-miterlimit="10"/>
<path d="M466.739 109.611L466.313 110.897C465.479 113.488 464.07 115.913 462.217 117.897L461.308 118.89C461.16 119.055 460.882 119.073 460.715 118.945L459.677 118.118C458.899 117.512 457.88 117.236 456.897 117.383C455.915 117.53 455.044 118.026 454.451 118.798C453.858 119.569 453.598 120.543 453.728 121.517L453.913 122.821C453.95 123.042 453.802 123.244 453.58 123.299L452.282 123.593C450.985 123.869 449.614 124.016 448.298 124.016C446.908 124.016 445.499 123.869 444.127 123.556L442.83 123.262C442.608 123.207 442.459 123.005 442.496 122.785L442.682 121.48C442.904 120.01 442.218 118.577 440.921 117.861C439.624 117.126 438.011 117.218 436.825 118.155L435.769 118.963C435.602 119.11 435.342 119.092 435.176 118.908L434.267 117.916C432.433 115.931 431.042 113.506 430.264 110.934L429.875 109.666C429.801 109.464 429.912 109.244 430.116 109.152L431.339 108.656C432.729 108.104 433.637 106.782 433.637 105.293C433.656 103.824 432.766 102.519 431.413 101.968L430.171 101.453C429.968 101.362 429.856 101.141 429.93 100.921L430.357 99.6528C431.191 97.0805 432.599 94.6736 434.453 92.7077L435.342 91.7339C435.491 91.5686 435.75 91.5502 435.935 91.6788L436.973 92.4689C437.733 93.0568 438.697 93.2957 439.661 93.1854C440.643 93.0568 441.533 92.5791 442.126 91.8074C442.737 91.0357 442.997 90.0803 442.886 89.0882L442.719 87.8021C442.682 87.5816 442.849 87.3795 443.071 87.3243L444.368 87.0487C447.019 86.4608 449.836 86.4608 452.486 87.0487L453.784 87.3427C454.006 87.3978 454.154 87.5999 454.117 87.8204L453.95 89.1249C453.747 90.5764 454.432 91.9912 455.73 92.7077C457.027 93.4426 458.64 93.3508 459.826 92.4321L460.864 91.6237C461.03 91.4767 461.29 91.4951 461.457 91.6788L462.365 92.6526C464.218 94.6369 465.608 97.0438 466.424 99.616L466.832 100.884C466.906 101.086 466.794 101.325 466.572 101.417L465.33 101.913C463.922 102.464 463.014 103.787 462.995 105.275C462.976 106.745 463.885 108.086 465.256 108.619L466.516 109.115C466.683 109.17 466.794 109.391 466.739 109.611Z" fill="url(#paint18_radial_51_225)"/>
<path d="M455.229 101.564C453.098 97.8889 448.353 96.6212 444.647 98.7341C440.94 100.847 439.661 105.551 441.792 109.225C443.924 112.9 448.65 114.168 452.357 112.055C456.063 109.942 457.361 105.238 455.229 101.564ZM450.763 109.28C448.594 110.53 445.814 109.776 444.554 107.627C443.294 105.477 444.053 102.721 446.222 101.472C448.39 100.222 451.17 100.976 452.431 103.125C453.691 105.257 452.95 107.994 450.818 109.244C450.8 109.262 450.781 109.28 450.763 109.28Z" fill="white" stroke="url(#paint19_linear_51_225)" stroke-width="1.5" stroke-miterlimit="10"/>
<path d="M462.717 105.367C462.736 103.713 463.755 102.207 465.312 101.6L466.554 101.104L466.146 99.8365C465.349 97.3194 463.996 94.986 462.18 93.0384L461.271 92.0646L460.233 92.8547C458.918 93.8652 457.101 93.9938 455.656 93.167C454.228 92.3586 453.432 90.7417 453.672 89.1433L453.839 87.8388L452.542 87.5632C449.929 86.9936 447.223 86.9936 444.609 87.5632L443.312 87.8388L443.479 89.1249C443.757 91.3664 442.144 93.4242 439.865 93.6998C438.808 93.8468 437.715 93.5528 436.862 92.8914L435.824 92.1014L434.935 93.0751C433.118 95.0227 431.765 97.3377 430.95 99.8549L430.524 101.123L431.765 101.637C433.285 102.262 434.267 103.75 434.249 105.367C434.23 107.02 433.23 108.509 431.673 109.133L430.431 109.629L430.82 110.897C431.599 113.433 432.952 115.748 434.731 117.714L435.639 118.706L436.695 117.897C438.011 116.887 439.828 116.74 441.273 117.567C442.719 118.393 443.497 120.01 443.256 121.646L443.071 122.95L444.368 123.244C445.703 123.538 447.074 123.685 448.446 123.685C449.743 123.685 451.059 123.538 452.357 123.262L453.654 122.987L453.469 121.682C453.154 119.441 454.729 117.383 456.99 117.071C458.102 116.924 459.233 117.218 460.104 117.916L461.142 118.743L462.05 117.75C463.885 115.784 465.238 113.451 466.053 110.934L466.479 109.648L465.219 109.152C463.699 108.509 462.699 107.002 462.717 105.367ZM460.752 114.866C457.287 113.139 453.061 114.517 451.319 117.953C450.892 118.798 450.633 119.716 450.596 120.653C449.15 120.837 447.686 120.837 446.24 120.635C446.111 118.302 444.813 116.207 442.775 115.05C440.736 113.892 438.271 113.8 436.158 114.847C435.268 113.727 434.564 112.459 434.008 111.136C435.954 109.85 437.14 107.7 437.159 105.367C437.177 103.07 436.028 100.921 434.119 99.616C434.657 98.2748 435.417 97.0254 436.288 95.8862C439.791 97.5766 443.998 96.1251 445.684 92.6709C446.074 91.8809 446.314 91.0173 446.389 90.1354C447.834 89.9333 449.298 89.9333 450.744 90.1354C451.004 93.9571 454.34 96.8417 458.176 96.5844C459.103 96.5109 460.011 96.2721 460.827 95.8679C461.271 96.4374 461.698 97.0438 462.068 97.6868C462.42 98.2931 462.736 98.9362 462.995 99.5793C461.03 100.865 459.844 103.015 459.826 105.348C459.807 107.682 460.975 109.85 462.939 111.136C462.383 112.459 461.642 113.727 460.752 114.866Z" fill="white" stroke="url(#paint20_linear_51_225)" stroke-width="1.5" stroke-miterlimit="10"/>
<defs>
<filter id="filter0_f_51_225" x="-5" y="-7" width="167" height="171" filterUnits="userSpaceOnUse" color-interpolation-filters="sRGB">
<feFlood flood-opacity="0" result="BackgroundImageFix"/>
<feBlend mode="normal" in="SourceGraphic" in2="BackgroundImageFix" result="shape"/>
<feGaussianBlur stdDeviation="17" result="effect1_foregroundBlur_51_225"/>
</filter>
<filter id="filter1_f_51_225" x="461" y="-10" width="177" height="174" filterUnits="userSpaceOnUse" color-interpolation-filters="sRGB">
<feFlood flood-opacity="0" result="BackgroundImageFix"/>
<feBlend mode="normal" in="SourceGraphic" in2="BackgroundImageFix" result="shape"/>
<feGaussianBlur stdDeviation="17" result="effect1_foregroundBlur_51_225"/>
</filter>
<filter id="filter2_f_51_225" x="104" y="-9" width="175" height="175" filterUnits="userSpaceOnUse" color-interpolation-filters="sRGB">
<feFlood flood-opacity="0" result="BackgroundImageFix"/>
<feBlend mode="normal" in="SourceGraphic" in2="BackgroundImageFix" result="shape"/>
<feGaussianBlur stdDeviation="17" result="effect1_foregroundBlur_51_225"/>
</filter>
<filter id="filter3_f_51_225" x="221" y="-9" width="173" height="173" filterUnits="userSpaceOnUse" color-interpolation-filters="sRGB">
<feFlood flood-opacity="0" result="BackgroundImageFix"/>
<feBlend mode="normal" in="SourceGraphic" in2="BackgroundImageFix" result="shape"/>
<feGaussianBlur stdDeviation="17" result="effect1_foregroundBlur_51_225"/>
</filter>
<filter id="filter4_f_51_225" x="336" y="-11" width="183" height="184" filterUnits="userSpaceOnUse" color-interpolation-filters="sRGB">
<feFlood flood-opacity="0" result="BackgroundImageFix"/>
<feBlend mode="normal" in="SourceGraphic" in2="BackgroundImageFix" result="shape"/>
<feGaussianBlur stdDeviation="17" result="effect1_foregroundBlur_51_225"/>
</filter>
<linearGradient id="paint0_linear_51_225" x1="41.3437" y1="84.0911" x2="4867.56" y2="690.686" gradientUnits="userSpaceOnUse">
<stop stop-color="#56BA5C"/>
<stop offset="0.106" stop-color="#57B760"/>
<stop offset="0.2415" stop-color="#54B16A"/>
<stop offset="0.3931" stop-color="#54AA7A"/>
<stop offset="0.5565" stop-color="#519D8A"/>
<stop offset="0.7292" stop-color="#508E9B"/>
<stop offset="0.9071" stop-color="#4D7BAD"/>
<stop offset="1" stop-color="#4D70B6"/>
</linearGradient>
<linearGradient id="paint1_linear_51_225" x1="426.541" y1="51.3604" x2="426.541" y2="49.4386" gradientUnits="userSpaceOnUse">
<stop stop-color="#006E76"/>
<stop offset="1" stop-color="#002C3F"/>
</linearGradient>
<linearGradient id="paint2_linear_51_225" x1="-nan" y1="-nan" x2="-nan" y2="-nan" gradientUnits="userSpaceOnUse">
<stop stop-color="#006E76"/>
<stop offset="1" stop-color="#002C3F"/>
</linearGradient>
<linearGradient id="paint3_linear_51_225" x1="-nan" y1="-nan" x2="-nan" y2="-nan" gradientUnits="userSpaceOnUse">
<stop stop-color="#006E76"/>
<stop offset="1" stop-color="#002C3F"/>
</linearGradient>
<linearGradient id="paint4_linear_51_225" x1="423.753" y1="110.578" x2="423.753" y2="42.4656" gradientUnits="userSpaceOnUse">
<stop stop-color="#00385D"/>
<stop offset="1" stop-color="#020833"/>
</linearGradient>
<radialGradient id="paint5_radial_51_225" cx="0" cy="0" r="1" gradientUnits="userSpaceOnUse" gradientTransform="translate(458.313 112.009) scale(24.1276 24.1264)">
<stop stop-color="#045B83"/>
<stop offset="1" stop-color="#0C355E"/>
</radialGradient>
<linearGradient id="paint6_linear_51_225" x1="458.525" y1="123.005" x2="458.525" y2="101.297" gradientUnits="userSpaceOnUse">
<stop stop-color="#00385D"/>
<stop offset="1" stop-color="#020833"/>
</linearGradient>
<linearGradient id="paint7_linear_51_225" x1="458.51" y1="136.822" x2="458.51" y2="87.5084" gradientUnits="userSpaceOnUse">
<stop stop-color="#00385D"/>
<stop offset="1" stop-color="#020833"/>
</linearGradient>
<linearGradient id="paint8_linear_51_225" x1="75.2709" y1="41.8315" x2="75.2709" y2="115.149" gradientUnits="userSpaceOnUse">
<stop stop-color="#55BA5C"/>
<stop offset="0.2021" stop-color="#50B058"/>
<stop offset="0.4603" stop-color="#409D51"/>
<stop offset="0.7477" stop-color="#248245"/>
<stop offset="1" stop-color="#015129"/>
</linearGradient>
<linearGradient id="paint9_linear_51_225" x1="48.1019" y1="83.1255" x2="3606.9" y2="530.125" gradientUnits="userSpaceOnUse">
<stop stop-color="#56BA5C"/>
<stop offset="0.106" stop-color="#57B760"/>
<stop offset="0.2415" stop-color="#54B16A"/>
<stop offset="0.3931" stop-color="#54AA7A"/>
<stop offset="0.5565" stop-color="#519D8A"/>
<stop offset="0.7292" stop-color="#508E9B"/>
<stop offset="0.9071" stop-color="#4D7BAD"/>
<stop offset="1" stop-color="#4D70B6"/>
</linearGradient>
<radialGradient id="paint10_radial_51_225" cx="0" cy="0" r="1" gradientUnits="userSpaceOnUse" gradientTransform="translate(135.932 116.018) scale(91.0925)">
<stop stop-color="#FFDD55"/>
<stop offset="0.1" stop-color="#017594"/>
<stop offset="0.5" stop-color="#384A9F"/>
<stop offset="1" stop-color="#CE4EC8"/>
</radialGradient>
<linearGradient id="paint11_linear_51_225" x1="304.5" y1="39" x2="304.5" y2="118" gradientUnits="userSpaceOnUse">
<stop stop-color="#39DBFF"/>
<stop offset="0.1678" stop-color="#3ACFF7"/>
<stop offset="1" stop-color="#3C95D0"/>
</linearGradient>
<linearGradient id="paint12_linear_51_225" x1="382.178" y1="79.458" x2="461.67" y2="79.458" gradientUnits="userSpaceOnUse">
<stop stop-color="#045B83"/>
<stop offset="1" stop-color="#08406E"/>
</linearGradient>
<linearGradient id="paint13_linear_51_225" x1="381.437" y1="79.458" x2="462.412" y2="79.458" gradientUnits="userSpaceOnUse">
<stop stop-color="#00385D"/>
<stop offset="1" stop-color="#020833"/>
</linearGradient>
<linearGradient id="paint14_linear_51_225" x1="423.758" y1="58.7678" x2="423.758" y2="57.2768" gradientUnits="userSpaceOnUse">
<stop stop-color="#006E76"/>
<stop offset="1" stop-color="#002C3F"/>
</linearGradient>
<linearGradient id="paint15_linear_51_225" x1="-nan" y1="-nan" x2="-nan" y2="-nan" gradientUnits="userSpaceOnUse">
<stop stop-color="#006E76"/>
<stop offset="1" stop-color="#002C3F"/>
</linearGradient>
<linearGradient id="paint16_linear_51_225" x1="-nan" y1="-nan" x2="-nan" y2="-nan" gradientUnits="userSpaceOnUse">
<stop stop-color="#006E76"/>
<stop offset="1" stop-color="#002C3F"/>
</linearGradient>
<linearGradient id="paint17_linear_51_225" x1="421.6" y1="104.193" x2="421.6" y2="51.9348" gradientUnits="userSpaceOnUse">
<stop stop-color="#00385D"/>
<stop offset="1" stop-color="#020833"/>
</linearGradient>
<radialGradient id="paint18_radial_51_225" cx="0" cy="0" r="1" gradientUnits="userSpaceOnUse" gradientTransform="translate(448.346 105.292) scale(18.6727 18.5108)">
<stop stop-color="#045B83"/>
<stop offset="1" stop-color="#0C355E"/>
</radialGradient>
<linearGradient id="paint19_linear_51_225" x1="448.511" y1="113.728" x2="448.511" y2="97.0727" gradientUnits="userSpaceOnUse">
<stop stop-color="#00385D"/>
<stop offset="1" stop-color="#020833"/>
</linearGradient>
<linearGradient id="paint20_linear_51_225" x1="448.499" y1="124.329" x2="448.499" y2="86.4935" gradientUnits="userSpaceOnUse">
<stop stop-color="#00385D"/>
<stop offset="1" stop-color="#020833"/>
</linearGradient>
<clipPath id="clip0_51_225">
<rect width="73" height="76" fill="white" transform="translate(39 41)"/>
</clipPath>
<clipPath id="clip1_51_225">
<rect width="80" height="80" fill="white" transform="translate(149 40)"/>
</clipPath>
<clipPath id="clip2_51_225">
<rect width="79" height="79" fill="white" transform="translate(265 39)"/>
</clipPath>
</defs>
</svg>
