<?xml version="1.0" encoding="utf-8"?>
<!-- Generator: Adobe Illustrator 26.4.1, SVG Export Plug-In . SVG Version: 6.00 Build 0)  -->
<svg version="1.1" id="Layer_1" xmlns="http://www.w3.org/2000/svg" xmlns:xlink="http://www.w3.org/1999/xlink" x="0px" y="0px"
	 viewBox="0 0 48 48.4" style="enable-background:new 0 0 48 48.4;" xml:space="preserve">
<style type="text/css">
	.st0{fill:#636864;}
	.st1{fill:#424242;}
	.st2{fill:#7FCC66;}
	.st3{fill:#FFF257;}
	.st4{fill:#E0E0E0;}
	.st5{fill:#BDBDBD;}
</style>
<path class="st0" d="M44.2,14.3H3.8v28.9C3.8,45.8,6,48,8.8,48h30.4c2.8,0,5.1-2.2,5.1-4.8V14.3z"/>
<path class="st1" d="M39.2,0.7H8.8C6,0.7,3.8,3,3.8,5.7v11.3h40.5V5.7C44.2,3,42,0.7,39.2,0.7z"/>
<path class="st2" d="M40.3,14.5H7.7c-0.8,0-1.4-0.6-1.4-1.6v-8c0-1,0.5-1.6,1.4-1.6h32.6c0.8,0,1.4,0.6,1.4,1.6v8
	C41.7,13.9,41.1,14.5,40.3,14.5z"/>
<path class="st3" d="M40.3,23.3h-4.1c-0.8,0-1.4-0.5-1.4-1.2v-2.4c0-0.7,0.5-1.2,1.4-1.2h4.1c0.8,0,1.4,0.5,1.4,1.2v2.4
	C41.7,22.8,41.1,23.3,40.3,23.3z"/>
<g>
	<path class="st4" d="M11.8,23.3H7.7c-0.8,0-1.4-0.5-1.4-1.2v-2.4c0-0.7,0.5-1.2,1.4-1.2h4.1c0.8,0,1.4,0.5,1.4,1.2v2.4
		C13.1,22.8,12.6,23.3,11.8,23.3z"/>
	<path class="st4" d="M21.3,23.3h-4.1c-0.8,0-1.4-0.5-1.4-1.2v-2.4c0-0.7,0.5-1.2,1.4-1.2h4.1c0.8,0,1.4,0.5,1.4,1.2v2.4
		C22.6,22.8,22.1,23.3,21.3,23.3z"/>
	<path class="st4" d="M30.8,23.3h-4.1c-0.8,0-1.4-0.5-1.4-1.2v-2.4c0-0.7,0.5-1.2,1.4-1.2h4.1c0.8,0,1.4,0.5,1.4,1.2v2.4
		C32.2,22.8,31.6,23.3,30.8,23.3z"/>
	<path class="st4" d="M11.8,30.5H7.7c-0.8,0-1.4-0.5-1.4-1.2v-2.4c0-0.7,0.5-1.2,1.4-1.2h4.1c0.8,0,1.4,0.5,1.4,1.2v2.4
		C13.1,30.1,12.6,30.5,11.8,30.5z"/>
	<path class="st4" d="M21.3,30.5h-4.1c-0.8,0-1.4-0.5-1.4-1.2v-2.4c0-0.7,0.5-1.2,1.4-1.2h4.1c0.8,0,1.4,0.5,1.4,1.2v2.4
		C22.6,30.1,22.1,30.5,21.3,30.5z"/>
	<path class="st4" d="M30.8,30.5h-4.1c-0.8,0-1.4-0.5-1.4-1.2v-2.4c0-0.7,0.5-1.2,1.4-1.2h4.1c0.8,0,1.4,0.5,1.4,1.2v2.4
		C32.2,30.1,31.6,30.5,30.8,30.5z"/>
	<path class="st4" d="M11.8,37.8H7.7c-0.8,0-1.4-0.5-1.4-1.2v-2.4c0-0.7,0.5-1.2,1.4-1.2h4.1c0.8,0,1.4,0.5,1.4,1.2v2.4
		C13.1,37.3,12.6,37.8,11.8,37.8z"/>
	<path class="st4" d="M21.3,37.8h-4.1c-0.8,0-1.4-0.5-1.4-1.2v-2.4c0-0.7,0.5-1.2,1.4-1.2h4.1c0.8,0,1.4,0.5,1.4,1.2v2.4
		C22.6,37.3,22.1,37.8,21.3,37.8z"/>
	<path class="st4" d="M30.8,37.8h-4.1c-0.8,0-1.4-0.5-1.4-1.2v-2.4c0-0.7,0.5-1.2,1.4-1.2h4.1c0.8,0,1.4,0.5,1.4,1.2v2.4
		C32.2,37.3,31.6,37.8,30.8,37.8z"/>
	<path class="st4" d="M11.8,45H7.7c-0.8,0-1.4-0.5-1.4-1.2v-2.4c0-0.7,0.5-1.2,1.4-1.2h4.1c0.8,0,1.4,0.5,1.4,1.2v2.4
		C13.1,44.5,12.6,45,11.8,45z"/>
	<path class="st4" d="M21.3,45h-4.1c-0.8,0-1.4-0.5-1.4-1.2v-2.4c0-0.7,0.5-1.2,1.4-1.2h4.1c0.8,0,1.4,0.5,1.4,1.2v2.4
		C22.6,44.5,22.1,45,21.3,45z"/>
	<path class="st4" d="M30.8,45h-4.1c-0.8,0-1.4-0.5-1.4-1.2v-2.4c0-0.7,0.5-1.2,1.4-1.2h4.1c0.8,0,1.4,0.5,1.4,1.2v2.4
		C32.2,44.5,31.6,45,30.8,45z"/>
</g>
<g>
	<path class="st5" d="M40.3,30.8h-4.1c-0.8,0-1.4-0.5-1.4-1.2v-2.4c0-0.7,0.5-1.2,1.4-1.2h4.1c0.8,0,1.4,0.5,1.4,1.2v2.4
		C41.7,30.3,41.1,30.8,40.3,30.8z"/>
	<path class="st5" d="M40.3,38h-4.1c-0.8,0-1.4-0.5-1.4-1.2v-2.4c0-0.7,0.5-1.2,1.4-1.2h4.1c0.8,0,1.4,0.5,1.4,1.2v2.4
		C41.7,37.5,41.1,38,40.3,38z"/>
	<path class="st5" d="M40.3,45.2h-4.1c-0.8,0-1.4-0.5-1.4-1.2v-2.4c0-0.7,0.5-1.2,1.4-1.2h4.1c0.8,0,1.4,0.5,1.4,1.2V44
		C41.7,44.7,41.1,45.2,40.3,45.2z"/>
</g>
</svg>
