<?xml version="1.0" encoding="utf-8"?>
<!-- Generator: Adobe Illustrator 26.4.1, SVG Export Plug-In . SVG Version: 6.00 Build 0)  -->
<svg version="1.1" id="Layer_1" xmlns:v="https://vecta.io/nano"
	 xmlns="http://www.w3.org/2000/svg" xmlns:xlink="http://www.w3.org/1999/xlink" x="0px" y="0px" viewBox="0 0 28.3 28.3"
	 style="enable-background:new 0 0 28.3 28.3;" xml:space="preserve">
<style type="text/css">
	.st0{opacity:0.6;fill:#FFFFFF;}
	.st1{fill:#003087;}
	.st2{fill:#001C64;}
	.st3{fill:#0070E0;}
</style>
<path class="st0" d="M25.8,13.4L25.8,13.4c-0.7,4.1-4.2,7.1-8.3,7.1h-2.1l-1,6.4c-0.1,0.8-0.9,1.5-1.7,1.5l-4.2,0
	c-0.9-0.1-1.5-1-1.3-1.8l0.5-3.4H4.1c-0.1,0-0.2,0-0.3,0C3,23,2.4,22.1,2.5,21.3L5.6,1.7c0.1-0.9,0.9-1.5,1.7-1.5h7.9
	c2.1,0,4.1,0.8,5.5,2.2c1.1,1.2,1.8,2.6,1.9,4.2C25,8.1,26.2,10.7,25.8,13.4z"/>
<path class="st1" d="M7.6,1.4C7.2,1.4,6.9,1.6,6.8,2L3.8,21.4c-0.1,0.3,0.2,0.6,0.5,0.7c0,0,0.1,0,0.1,0h4.6l1.1-7.1l1.2-7.8
	c0.1-0.4,0.4-0.6,0.7-0.6h6.5c1.2,0,2.3,0.3,3.2,0.8c0.1-3.2-2.6-5.9-6.3-5.9H7.6z"/>
<path class="st2" d="M11.9,6.3c-0.4,0-0.7,0.3-0.7,0.6l-1.2,7.9l-1.1,7.3l0,0l0,0l1.1-7.3c0.1-0.4,0.4-0.6,0.7-0.6h3.6
	c3.7,0,6.8-2.7,7.4-6.3c0-0.3,0.1-0.5,0.1-0.8v0h0c-0.9-0.5-2-0.8-3.2-0.8H11.9z"/>
<path class="st3" d="M21.7,7.1c0,0.3,0,0.5-0.1,0.8c-0.6,3.6-3.7,6.3-7.4,6.3h-3.6c-0.4,0-0.7,0.3-0.7,0.6l-1.1,7.3L8,26.6
	C8,27,8.2,27.3,8.6,27.3c0,0,0.1,0,0.1,0h4c0.4,0,0.7-0.3,0.7-0.6l1-6.6c0.1-0.4,0.4-0.6,0.7-0.6h2.3c3.7,0,6.8-2.7,7.4-6.3
	C25.2,10.6,23.9,8.2,21.7,7.1L21.7,7.1z"/>
</svg>
