<?xml version="1.0" encoding="utf-8"?>
<!-- Generator: Adobe Illustrator 26.4.1, SVG Export Plug-In . SVG Version: 6.00 Build 0)  -->
<svg version="1.1" id="set_rotate__ig" xmlns="http://www.w3.org/2000/svg"
xmlns:xlink="http://www.w3.org/1999/xlink" x="0px" y="0px" viewBox="0 0 98.4 100.5"
style="enable-background:new 0 0 98.4 100.5;" xml:space="preserve">
<style type="text/css">
		.st0_dvs {
				fill: #FFFFFF;
				stroke: #162B41;
				stroke-width: 2;
				stroke-miterlimit: 10;
		}
</style>
<g>
		<g>
				<path class="st0_dvs" d="M67.1,39.9c-5.6-9.9-18.3-13.3-28.2-7.6c-9.9,5.6-13.3,18.3-7.6,28.2c5.7,9.9,18.3,13.3,28.2,7.6
C69.4,62.5,72.8,49.8,67.1,39.9z M55.3,60.7c-5.7,3.3-13.1,1.4-16.5-4.5c-3.3-5.7-1.4-13.1,4.5-16.5c5.7-3.3,13-1.3,16.4,4.5
c3.3,5.7,1.4,13.1-4.3,16.4C55.4,60.6,55.3,60.6,55.3,60.7z" />
				<path class="st0_dvs" d="M87,50.1c0-4.5,2.7-8.4,6.9-10.1l3.3-1.4l-1.1-3.4c-2.1-6.8-5.7-13-10.5-18.3l-2.4-2.6l-2.8,2.1
c-3.5,2.7-8.4,3.1-12.2,0.9c-3.8-2.1-5.9-6.5-5.3-10.8L63.4,3L60,2.2c-7-1.6-14.2-1.6-21.1,0L35.5,3L36,6.5
c0.8,6-3.6,11.6-9.6,12.2c-2.8,0.4-5.7-0.4-8-2.1l-2.8-2.1l-2.4,2.6C8.3,22.3,4.8,28.6,2.6,35.4l-1.1,3.4l3.3,1.4
c4.1,1.7,6.7,5.6,6.6,10c0,4.5-2.7,8.4-6.9,10.1l-3.3,1.4l1,3.4c2,6.8,5.6,13,10.4,18.3L15,86l2.8-2.1c3.5-2.7,8.4-3.1,12.2-0.9
c3.9,2.2,5.9,6.5,5.2,10.9l-0.5,3.6l3.5,0.8c3.6,0.8,7.2,1.2,10.9,1.2c3.5,0,7-0.4,10.4-1.2l3.5-0.9l-0.5-3.5
c-0.9-6,3.4-11.6,9.3-12.3c2.9-0.4,5.9,0.4,8.3,2.2l2.8,2.2l2.4-2.6c4.9-5.2,8.4-11.6,10.6-18.4l1.1-3.4l-3.3-1.4
C89.6,58.6,87,54.6,87,50.1z M81.9,75.7c-9.2-4.7-20.5-1-25.2,8.3c-1.2,2.2-1.7,4.7-1.9,7.2c-3.8,0.5-7.8,0.5-11.6-0.1
c-0.3-6.2-3.8-11.8-9.2-15c-5.4-3.1-12-3.3-17.6-0.6c-2.3-3-4.3-6.4-5.7-10c5.2-3.4,8.4-9.2,8.4-15.4s-3-11.9-8.2-15.4
c1.5-3.6,3.4-7,5.8-10c9.3,4.6,20.5,0.7,25.1-8.6c1.1-2.1,1.7-4.5,1.8-6.8c3.8-0.6,7.8-0.6,11.6,0c0.7,10.2,9.5,18,19.8,17.3
c2.4-0.2,4.9-0.8,7.1-1.9c1.2,1.6,2.3,3.2,3.3,4.9s1.7,3.3,2.4,5c-5.2,3.4-8.4,9.2-8.4,15.4c-0.1,6.2,3.1,12.1,8.3,15.5
C86.1,69.2,84.2,72.6,81.9,75.7L81.9,75.7z" />
		</g>
</g>
</svg>