<?xml version="1.0" encoding="utf-8"?>
<!-- Generator: Adobe Illustrator 26.4.1, SVG Export Plug-In . SVG Version: 6.00 Build 0)  -->
<svg version="1.1" id="Layer_1" xmlns="http://www.w3.org/2000/svg" xmlns:xlink="http://www.w3.org/1999/xlink" x="0px" y="0px"
	 viewBox="0 0 203.5 205.9" style="enable-background:new 0 0 203.5 205.9;" xml:space="preserve">
<style type="text/css">
	.st0{display:none;fill:#FFFFFF;stroke:url(#SVGID_1_);stroke-width:18;stroke-miterlimit:10;}
	.st1{fill:url(#SVGID_00000032628544898795806280000010296093963884713118_);}
	.st2{fill:#FFFFFF;stroke:url(#SVGID_00000066512588819417948210000002216955483122911664_);stroke-width:7;stroke-miterlimit:10;}
	.st3{fill:#FFFFFF;stroke:url(#SVGID_00000023257272463563478250000006526260550486576816_);stroke-width:7;stroke-miterlimit:10;}
</style>
<linearGradient id="SVGID_1_" gradientUnits="userSpaceOnUse" x1="-131.4182" y1="-488.1006" x2="55.1568" y2="-488.1006" gradientTransform="matrix(1 0 0 -1 0 -520.0256)">
	<stop  offset="0" style="stop-color:#9A1F24"/>
	<stop  offset="0.3248" style="stop-color:#C92222"/>
	<stop  offset="1" style="stop-color:#C42B27"/>
</linearGradient>
<path class="st0" d="M-122.4-128.3V64.4c0,9.9,11,15.8,19.2,10.3L40.7-21.7c7.3-4.9,7.3-15.6,0-20.5l-143.9-96.4
	C-111.4-144.1-122.4-138.2-122.4-128.3z"/>
<radialGradient id="SVGID_00000083803220248029069810000016037588628878638268_" cx="100.9814" cy="-155.175" r="100.8168" gradientTransform="matrix(1 0 0 -1 0 -52.75)" gradientUnits="userSpaceOnUse">
	<stop  offset="0" style="stop-color:#045B83"/>
	<stop  offset="1" style="stop-color:#0C355E"/>
</radialGradient>
<path style="fill:url(#SVGID_00000083803220248029069810000016037588628878638268_);" d="M200.2,125.8l-2.3,7
	c-4.5,14.1-12.1,27.3-22.1,38.1l-4.9,5.4c-0.8,0.9-2.3,1-3.2,0.3l-5.6-4.5c-4.2-3.3-9.7-4.8-15-4s-10,3.5-13.2,7.7
	s-4.6,9.5-3.9,14.8l1,7.1c0.2,1.2-0.6,2.3-1.8,2.6l-7,1.6c-7,1.5-14.4,2.3-21.5,2.3c-7.5,0-15.1-0.8-22.5-2.5l-7-1.6
	c-1.2-0.3-2-1.4-1.8-2.6l1-7.1c1.2-8-2.5-15.8-9.5-19.7c-7-4-15.7-3.5-22.1,1.6l-5.7,4.4c-0.9,0.8-2.3,0.7-3.2-0.3L25,171
	c-9.9-10.8-17.4-24-21.6-38l-2.1-6.9c-0.4-1.1,0.2-2.3,1.3-2.8l6.6-2.7c7.5-3,12.4-10.2,12.4-18.3c0.1-8-4.7-15.1-12-18.1l-6.7-2.8
	c-1.1-0.5-1.7-1.7-1.3-2.9l2.3-6.9C8.4,57.6,16,44.5,26,33.8l4.8-5.3c0.8-0.9,2.2-1,3.2-0.3l5.6,4.3c4.1,3.2,9.3,4.5,14.5,3.9
	c5.3-0.7,10.1-3.3,13.3-7.5c3.3-4.2,4.7-9.4,4.1-14.8l-0.9-7c-0.2-1.2,0.7-2.3,1.9-2.6l7-1.5c14.3-3.2,29.5-3.2,43.8,0l7,1.6
	c1.2,0.3,2,1.4,1.8,2.6l-0.9,7.1c-1.1,7.9,2.6,15.6,9.6,19.5c7,4,15.7,3.5,22.1-1.5l5.6-4.4c0.9-0.8,2.3-0.7,3.2,0.3l4.9,5.3
	c10,10.8,17.5,23.9,21.9,37.9l2.2,6.9c0.4,1.1-0.2,2.4-1.4,2.9l-6.7,2.7c-7.6,3-12.5,10.2-12.6,18.3c-0.1,8,4.8,15.3,12.2,18.2l0,0
	l6.8,2.7C199.9,123.4,200.5,124.6,200.2,125.8z"/>
<g>
	
		<linearGradient id="SVGID_00000028322417286751293210000014867394578570765484_" gradientUnits="userSpaceOnUse" x1="101.8193" y1="-200.9394" x2="101.8193" y2="-110.3106" gradientTransform="matrix(1 0 0 -1 0 -52.75)">
		<stop  offset="0" style="stop-color:#00385D"/>
		<stop  offset="1" style="stop-color:#020833"/>
	</linearGradient>
	
		<path style="fill:#FFFFFF;stroke:url(#SVGID_00000028322417286751293210000014867394578570765484_);stroke-width:7;stroke-miterlimit:10;" d="
		M138.1,82C126.6,62,101,55.1,81,66.6s-26.9,37.1-15.4,57.1s37,26.9,57,15.4S149.6,102,138.1,82z M114,124
		c-11.7,6.8-26.7,2.7-33.5-9s-2.7-26.7,9-33.5s26.7-2.7,33.5,9c6.8,11.6,2.8,26.5-8.7,33.3C114.2,123.9,114.1,124,114,124z"/>
	
		<linearGradient id="SVGID_00000136381141608404431750000017661826828568569240_" gradientUnits="userSpaceOnUse" x1="101.7517" y1="-258.675" x2="101.7517" y2="-52.75" gradientTransform="matrix(1 0 0 -1 0 -52.75)">
		<stop  offset="0" style="stop-color:#00385D"/>
		<stop  offset="1" style="stop-color:#020833"/>
	</linearGradient>
	
		<path style="fill:#FFFFFF;stroke:url(#SVGID_00000136381141608404431750000017661826828568569240_);stroke-width:7;stroke-miterlimit:10;" d="
		M178.5,102.7c0.1-9,5.6-17.2,14-20.5l6.7-2.7l-2.2-6.9c-4.3-13.7-11.6-26.4-21.4-37l-4.9-5.3l-5.6,4.3c-7.1,5.5-16.9,6.2-24.7,1.7
		c-7.7-4.4-12-13.2-10.7-21.9l0.9-7.1l-7-1.5c-14.1-3.1-28.7-3.1-42.8,0l-7,1.5l0.9,7c1.5,12.2-7.2,23.4-19.5,24.9
		C49.5,40,43.6,38.4,39,34.8l-5.6-4.3l-4.8,5.3C18.8,46.4,11.5,59,7.1,72.7l-2.3,6.9l6.7,2.8c8.2,3.4,13.5,11.5,13.4,20.3
		c-0.1,9-5.5,17.1-13.9,20.5l-6.7,2.7l2.1,6.9c4.2,13.8,11.5,26.4,21.1,37.1l4.9,5.4l5.7-4.4c7.1-5.5,16.9-6.3,24.7-1.8
		s12,13.3,10.7,22.2l-1,7.1l7,1.6c7.2,1.6,14.6,2.4,22,2.4c7,0,14.1-0.8,21.1-2.3l7-1.5l-1-7.1c-1.7-12.2,6.8-23.4,19-25.1
		c6-0.8,12.1,0.8,16.8,4.6l5.6,4.5l4.9-5.4c9.9-10.7,17.2-23.4,21.6-37.1l2.3-7l-6.8-2.7C183.8,119.8,178.4,111.6,178.5,102.7z
		 M167.9,154.4c-18.7-9.4-41.5-1.9-50.9,16.8c-2.3,4.6-3.7,9.6-3.9,14.7c-7.8,1-15.7,1-23.5-0.1c-0.7-12.7-7.7-24.1-18.7-30.4
		s-24.3-6.8-35.7-1.1c-4.8-6.1-8.6-13-11.6-20.2c10.5-7,16.9-18.7,17-31.4c0.1-12.5-6.1-24.2-16.4-31.3c2.9-7.3,7-14.1,11.7-20.3
		c18.9,9.2,41.6,1.3,50.7-17.5c2.1-4.3,3.4-9,3.8-13.8c7.8-1.1,15.7-1.1,23.5,0c1.4,20.8,19.4,36.5,40.1,35.1
		c5-0.4,9.9-1.7,14.3-3.9c2.4,3.1,4.7,6.4,6.7,9.9c1.9,3.3,3.6,6.8,5,10.3c-10.6,7-17,18.7-17.1,31.4c-0.1,12.7,6.2,24.5,16.8,31.5
		C176.7,141.3,172.7,148.2,167.9,154.4L167.9,154.4z"/>
</g>
</svg>
