<?xml version="1.0" encoding="utf-8"?>
<!-- Generator: Adobe Illustrator 26.4.1, SVG Export Plug-In . SVG Version: 6.00 Build 0)  -->
<svg version="1.1" id="Layer_1" xmlns="http://www.w3.org/2000/svg" xmlns:xlink="http://www.w3.org/1999/xlink" x="0px" y="0px"
	 viewBox="0 0 480.2 484.4" style="enable-background:new 0 0 480.2 484.4;" xml:space="preserve">
<style type="text/css">
	.st0{display:none;fill:#FFFFFF;stroke:url(#SVGID_1_);stroke-width:18;stroke-miterlimit:10;}
	
		.st1{fill:url(#SVGID_00000158012466638398766270000016448186308212518819_);stroke:url(#SVGID_00000142153538099677268690000007840314104299741880_);stroke-width:8;stroke-miterlimit:10;}
	.st2{fill:#FFFFFF;stroke:url(#SVGID_00000012468908903294800050000008528654595937331851_);stroke-width:8;stroke-miterlimit:10;}
	.st3{fill:#FFFFFF;stroke:url(#SVGID_00000179631408371946501640000017487320239905975205_);stroke-width:8;stroke-miterlimit:10;}
	.st4{fill:#FFFFFF;stroke:url(#SVGID_00000082366703628920868540000003730803373002425492_);stroke-width:8;stroke-miterlimit:10;}
	.st5{fill:#FFFFFF;stroke:url(#SVGID_00000120537453861309943250000008953128624398166697_);stroke-width:8;stroke-miterlimit:10;}
</style>
<linearGradient id="SVGID_1_" gradientUnits="userSpaceOnUse" x1="136.4" y1="-218.7256" x2="322.975" y2="-218.7256" gradientTransform="matrix(1 0 0 -1 0 18.7244)">
	<stop  offset="0" style="stop-color:#9A1F24"/>
	<stop  offset="0.3248" style="stop-color:#C92222"/>
	<stop  offset="1" style="stop-color:#C42B27"/>
</linearGradient>
<path class="st0" d="M145.4,141.1v192.7c0,9.9,11,15.8,19.2,10.3l143.9-96.4c7.3-4.9,7.3-15.6,0-20.5l-143.9-96.4
	C156.4,125.3,145.4,131.2,145.4,141.1z"/>
<linearGradient id="SVGID_00000126285793751220923380000015870808380546494113_" gradientUnits="userSpaceOnUse" x1="11.8" y1="263.65" x2="440.7" y2="263.65" gradientTransform="matrix(1 0 0 -1 0 486)">
	<stop  offset="0" style="stop-color:#045B83"/>
	<stop  offset="1" style="stop-color:#08406E"/>
</linearGradient>
<linearGradient id="SVGID_00000179645121079593758620000005313245082608754574_" gradientUnits="userSpaceOnUse" x1="7.8" y1="263.65" x2="444.7" y2="263.65" gradientTransform="matrix(1 0 0 -1 0 486)">
	<stop  offset="0" style="stop-color:#00385D"/>
	<stop  offset="1" style="stop-color:#020833"/>
</linearGradient>
<path style="fill:url(#SVGID_00000126285793751220923380000015870808380546494113_);stroke:url(#SVGID_00000179645121079593758620000005313245082608754574_);stroke-width:8;stroke-miterlimit:10;" d="
	M440.7,67.8v309.1c0,33-26.9,59.9-59.9,59.9H71.7c-33,0-59.9-26.9-59.9-59.9V67.8c0-33,26.9-59.9,59.9-59.9h309.1
	C413.8,7.9,440.7,34.8,440.7,67.8z"/>
<g>
	
		<linearGradient id="SVGID_00000060001800050867193470000004704527461333920407_" gradientUnits="userSpaceOnUse" x1="252.004" y1="367.5243" x2="252.004" y2="375.6397" gradientTransform="matrix(1 0 0 -1 0 486)">
		<stop  offset="0" style="stop-color:#006E76"/>
		<stop  offset="1" style="stop-color:#002C3F"/>
	</linearGradient>
	
		<path style="fill:#FFFFFF;stroke:url(#SVGID_00000060001800050867193470000004704527461333920407_);stroke-width:8;stroke-miterlimit:10;" d="
		M235.4,114.3c0.6,0,1.1,0.1,1.5,0.2C236.4,114.5,235.9,114.4,235.4,114.3z"/>
	
		<linearGradient id="SVGID_00000149375261945721950920000017600775714123416213_" gradientUnits="userSpaceOnUse" x1="238" y1="367.3545" x2="238" y2="375.3645" gradientTransform="matrix(1 0 0 -1 0 486)">
		<stop  offset="0" style="stop-color:#006E76"/>
		<stop  offset="1" style="stop-color:#002C3F"/>
	</linearGradient>
	
		<path style="fill:#FFFFFF;stroke:url(#SVGID_00000149375261945721950920000017600775714123416213_);stroke-width:8;stroke-miterlimit:10;" d="
		M238.2,114.6c-0.1,0-0.1,0-0.2,0c0,0,0,0-0.1,0C238,114.6,238.1,114.6,238.2,114.6z"/>
	
		<linearGradient id="SVGID_00000158707329358965688880000004463770098744405437_" gradientUnits="userSpaceOnUse" x1="257.7" y1="143.1" x2="257.7" y2="375.4" gradientTransform="matrix(1 0 0 -1 0 486)">
		<stop  offset="0" style="stop-color:#006E76"/>
		<stop  offset="1" style="stop-color:#002C3F"/>
	</linearGradient>
	
		<path style="fill:#FFFFFF;stroke:url(#SVGID_00000158707329358965688880000004463770098744405437_);stroke-width:8;stroke-miterlimit:10;" d="
		M277.5,338.9L277.5,338.9 M237.9,114.6C237.9,114.6,238,114.6,237.9,114.6c0.1,0,0.2,0,0.2,0C238.1,114.6,238,114.6,237.9,114.6z"
		/>
	
		<linearGradient id="SVGID_00000071547623249658585290000002877636314241995657_" gradientUnits="userSpaceOnUse" x1="224.3296" y1="120.2855" x2="224.3296" y2="404.8" gradientTransform="matrix(1 0 0 -1 0 486)">
		<stop  offset="0" style="stop-color:#00385D"/>
		<stop  offset="1" style="stop-color:#020833"/>
	</linearGradient>
	
		<path style="fill:#FFFFFF;stroke:url(#SVGID_00000071547623249658585290000002877636314241995657_);stroke-width:8;stroke-miterlimit:10;" d="
		M348.5,220.1c-4.8-10.9-10-18.1-18-29c-1.4-1.9,0.2-1.2-18.4-23.3c-4.7-5.5-9.3-11.6-13.7-18c-5.1-7.4-8.6-12.7-11.1-16.9
		c-1.3-2.2-2.3-4-2.9-5c1.9-6,3.5-12.2,5-18.2c1.7-6.4,3.4-13,5.4-19.3c0.5-1.5,0-3.2-1.2-4.2c-0.7-0.6-1.7-1-2.6-1
		c-0.6,0-1.2,0.1-1.7,0.4L282,89c-7.8,3.7-15.5,7.4-22.9,11c-7.1,3.4-14.4,7-21.9,10.5c-1.9-0.2-6-0.6-11.6-0.6
		c-3.3,0-6.6,0.1-9.9,0.4c-8,0.6-32.3,2.5-52.4,13.4l-0.2,0.1c-0.5,0.3-1.2,0.6-2,1.1c-19.8,10.3-36.6,25.8-48.4,44.9
		c-17.1,27.5-18.2,54.1-18.6,65.4c-0.4,13.5,1.3,23.7,1.9,27c1.8,9.6,5.8,24.8,15.1,40.1c18.4,30.3,46.5,43.1,57.9,48
		c26.1,11.4,48.2,11.5,54.2,11.4c0,0,28.7-0.5,56.1-19.3c1.5-1,1.9-2.3,1.9-2.3c0.1-0.4,0.2-0.8,0.2-1.2c0-2.2-1.7-3.9-3.9-4h-0.3
		c-0.1,0-0.2,0-0.2,0l-3.4,0.3c-0.5,0-1,0.2-1.5,0.4c-6.8,3.4-13.8,6.1-21.1,8c-8.5,2.2-16.3,3.6-27.6,3.5
		C200.1,347,147.3,331,127,284c0,0-11.6-26.9-6.1-62.7c3-19.9,10.2-33.5,11.8-36.4c2.2-4.1,4.7-8.1,7.5-11.9
		c12.5-17.2,28.2-27.1,39.2-32.5c7-3.4,23-7.8,43.4-10c7-0.8,12.7-0.9,16.4-0.9c1.8,0,2.9,0,3.2,0h0.2c0.7,0,1.5-0.2,2.1-0.6
		l9.6-5.9l19.5-11.9l-4.9,15.5l-1.2,3.8c-0.1,0.5-0.2,1.3-0.1,2.2c0.2,1.5,1,2,2.6,4.4c0.7,1.1,0.4,0.8,2.4,3.9
		c0.5,0.8,1.1,1.7,1.7,2.7c7.7,11.9,15.2,22,22.9,30.7c15.5,17.5,18.7,22.2,26.2,32.7c4.8,6.8,7,10.3,8.9,14.5
		c4.2,8.8,8.9,18.9,5.9,29.8c-3.2,11.5-13.2,17.6-17,19.7c-0.9-3.4-2.6-8-5.8-12.7c-4.5-6.8-10-11-14.5-14
		c-20-12.9-35.8-9.2-59.8-23.5c-8.8-5.3-14-10.2-16.8-16.9c-0.8-2-4-11.4,0-20.4c3.4-7.7,9.8-10.1,8.6-14.5
		c-0.7-2.7-3.9-4.5-6.6-4.9c-0.7-0.1-3.7-0.4-8.1,3c-7.6,5.9-9.5,15.4-10.1,18.6c-2.3,12.4,1.9,22.6,3.1,25.2
		c6,13.3,17.3,20,25.2,24.5c23,13.1,39.1,9,56.6,23c5.3,4.2,8.5,8.2,11,13.7c3.4,7.7,3.1,14.9,2.9,16.9c-0.1,1.4,0.5,2.8,1.6,3.6
		c0.7,0.5,1.5,0.8,2.3,0.8s1.4-0.2,1.6-0.3c14.1-5.9,23-14.2,23-14.2c6.7-6.2,11.3-10.6,14.9-18.3c1-2.1,3.1-6.7,3.9-13
		C354.9,244.8,355.6,236.2,348.5,220.1z"/>
</g>
</svg>
