<?xml version="1.0" encoding="utf-8"?>
<!-- Generator: Adobe Illustrator 26.4.1, SVG Export Plug-In . SVG Version: 6.00 Build 0)  -->
<svg version="1.1" id="Layer_1" xmlns="http://www.w3.org/2000/svg" xmlns:xlink="http://www.w3.org/1999/xlink" x="0px" y="0px"
	 viewBox="0 0 187.8 195.3" style="enable-background:new 0 0 187.8 195.3;" xml:space="preserve">
<style type="text/css">
	.st0{fill:url(#SVGID_1_);}
	.st1{fill:#0C8C44;}
	.st2{fill:#FFFFFF;stroke:#006838;stroke-width:2.5;stroke-miterlimit:10;}
</style>
<g>
	
		<linearGradient id="SVGID_1_" gradientUnits="userSpaceOnUse" x1="94.6" y1="193.3" x2="94.6" y2="7.4" gradientTransform="matrix(1 0 0 -1 0 198)">
		<stop  offset="0" style="stop-color:#55BA5C"/>
		<stop  offset="0.2021" style="stop-color:#50B058"/>
		<stop  offset="0.4603" style="stop-color:#409D51"/>
		<stop  offset="0.7477" style="stop-color:#248245"/>
		<stop  offset="1" style="stop-color:#015129"/>
	</linearGradient>
	<path class="st0" d="M40.9,190.6c-20.2,0-36.6-16.4-36.6-36.6V41.3c0-20.2,16.4-36.6,36.6-36.6h107.4c20.2,0,36.6,16.4,36.6,36.6
		V154c0,20.2-16.4,36.6-36.6,36.6H40.9z"/>
	<path class="st1" d="M148.3,6.2c19.4,0,35.1,15.8,35.1,35.1V154c0,19.4-15.8,35.1-35.1,35.1H40.9c-19.4,0-35.1-15.8-35.1-35.1V41.3
		C5.8,22,21.6,6.2,40.9,6.2H148.3 M148.3,3.2H40.9c-21,0-38.1,17.1-38.1,38.1V154c0,21.1,17.1,38.1,38.1,38.1h107.4
		c21.1,0,38.1-17.1,38.1-38.1V41.3C186.4,20.3,169.4,3.2,148.3,3.2L148.3,3.2z"/>
</g>
<path class="st2" d="M149.8,145.2c-1.7,3.3-5.8,4.6-9.1,2.9c-26.2-14-58.1-15.5-95-4.4c-3.5,1.1-7.3-1-8.3-4.6s1-7.4,4.5-8.5
	c40.3-12.2,75.6-10.3,105,5.4C150.2,137.8,151.5,141.9,149.8,145.2z"/>
<path class="st2" d="M161,111.7c-2.1,4.3-7.3,6.1-11.6,3.9c-31.3-16-77-17.4-111.2-3.4c-4.4,1.8-9.5-0.4-11.2-4.9s0.4-9.6,4.8-11.4
	c39-15.9,89.4-14.3,125.3,4.1C161.4,102.1,163.1,107.4,161,111.7L161,111.7z"/>
<path class="st2" d="M158.3,80.2c-37.1-19.1-96.1-17-129.5-4.1c-5.4,2.1-11.4-0.7-13.4-6.1s0.7-11.5,6-13.6
	c38.3-14.8,103.4-17,146.2,5c5.1,2.6,7.2,9,4.6,14.2C169.6,80.7,163.4,82.8,158.3,80.2L158.3,80.2z"/>
</svg>
