<?xml version="1.0" encoding="utf-8"?>
<!-- Generator: Adobe Illustrator 26.4.1, SVG Export Plug-In . SVG Version: 6.00 Build 0)  -->
<svg version="1.1" id="Layer_1" xmlns="http://www.w3.org/2000/svg" xmlns:xlink="http://www.w3.org/1999/xlink" x="0px" y="0px"
	 viewBox="0 0 135.7 153.4" style="enable-background:new 0 0 135.7 153.4;" xml:space="preserve">
<style type="text/css">
	.st0{fill:#FFFFFF;stroke:#006838;stroke-width:2.5;stroke-miterlimit:10;}
	.st1{fill:url(#SVGID_1_);}
	.st2{fill:#0E542F;}
	.st3{fill:#FFFFFF;}
	.st4{fill:#046938;}
</style>
<path class="st0" d="M77.8,122.3c0,0,15,1.6,23.3-12.6c0,0,14.8,6.4,15.3,21.4c0,0,8,5.7,13.1,0.8c5.1-4.9-12,26.4-31.4,16.2
	C78.6,137.9,78.7,135.8,77.8,122.3z"/>
<g transform="translate(1.4065934065934016 1.4065934065934016) scale(2.81 2.81)">
	<g>
		
			<linearGradient id="SVGID_1_" gradientUnits="userSpaceOnUse" x1="-336.9161" y1="1701.3533" x2="73.1666" y2="1701.3533" gradientTransform="matrix(22.0152 2.7667 2.7667 -22.0152 2707.3389 38411.7539)">
			<stop  offset="0" style="stop-color:#56BA5C"/>
			<stop  offset="0.106" style="stop-color:#57B760"/>
			<stop  offset="0.2415" style="stop-color:#54B16A"/>
			<stop  offset="0.3931" style="stop-color:#54AA7A"/>
			<stop  offset="0.5565" style="stop-color:#519D8A"/>
			<stop  offset="0.7292" style="stop-color:#508E9B"/>
			<stop  offset="0.9071" style="stop-color:#4D7BAD"/>
			<stop  offset="1" style="stop-color:#4D70B6"/>
		</linearGradient>
		<path class="st1" d="M45.4,44.8c-0.9,1-2.3,1.2-3.2,0.8c-0.5-0.2-1-0.6-1-1.5c-0.2-3.6-2.6-5.9-5.1-6.6c0.1-0.5,0.1-0.9,0.1-1.4
			c-0.1-2.5-1.1-5.2-2.8-7.5C29.8,23.7,19,14.1,8.6,4.7c-1.5-1.3-3-2.7-4.4-4C3-0.4,1.7-0.3,1,0.3C0.2,0.9-0.2,2.1,0.6,3.5
			c5.9,12.3,14.7,28.8,19.8,35.2c1.6,2,3.6,3.6,5.8,4.3c-0.4,5.3,3.4,9.7,9.1,10.4c6.1,0.8,11.2-2.7,11.8-8l0.3-2.6L45.4,44.8z
			 M1.9,2.8C1.6,2.3,1.7,1.9,1.8,1.7C1.9,1.6,2,1.6,2.1,1.6c0.2,0,0.4,0.1,0.7,0.4c1.5,1.3,2.9,2.6,4.4,4
			c10.5,9.3,21.2,18.9,24.7,23.6l0,0c1.6,2,2.4,4.3,2.5,6.5c0,2.1-0.7,3.8-2,4.9c-1.3,1-3.2,1.3-5.2,0.7c-2.1-0.6-4.1-2-5.7-4
			C16.8,31.8,8.3,16,1.9,2.8z M35.3,51.8c-4.6-0.6-7.7-4-7.6-8.2c0.2,0,0.4,0.1,0.5,0.1c2,0.3,3.9-0.2,5.3-1.3
			c1-0.8,1.8-1.9,2.2-3.2c1.7,0.5,3.6,2.2,3.8,5c0,1.4,0.8,2.6,2.1,3.1c1,0.4,2,0.3,3,0C43.1,50.8,39,52.3,35.3,51.8z"/>
		<path class="st2" d="M36.7,54.1c-0.6,0-1.1,0-1.7-0.1c-5.8-0.7-9.7-5.1-9.5-10.5c-2.1-0.9-4.1-2.4-5.7-4.4
			C14.6,32.7,5.9,16.1,0,3.8C-0.9,2.2-0.4,0.7,0.5,0S3-0.8,4.4,0.5l1.1,1c1.1,1,2.2,2,3.3,3l0.1,0.1C19.3,13.9,30,23.5,33.6,28.4
			c1.8,2.3,2.9,5.1,2.9,7.8c0,0.4,0,0.7,0,1.1c2.4,0.9,4.9,3.3,5.1,7c0,0.6,0.2,0.9,0.7,1.1c0.7,0.3,1.9,0.1,2.7-0.7l2.8-3.1
			l-0.5,4.1c-0.3,2.7-1.8,5.1-4.1,6.6C41.4,53.4,39.1,54.1,36.7,54.1z M2.1,0.4c-0.4,0-0.7,0.1-1,0.3C0.5,1.2,0.2,2.1,0.8,3.3
			c6,12.2,14.7,28.8,19.8,35.1c1.5,2,3.5,3.4,5.6,4.2l0.3,0.1v0.4c-0.3,5,3.3,9.2,8.6,9.9c2.8,0.3,5.5-0.2,7.6-1.6s3.4-3.5,3.7-6
			l0.1-1.1l-0.8,0.8c-1.1,1.2-2.7,1.4-3.7,1c-0.8-0.3-1.3-1-1.3-2c-0.2-3.4-2.5-5.5-4.8-6.2l-0.3-0.1v-0.4c0.1-0.4,0.1-0.9,0.1-1.3
			c-0.1-2.4-1-5-2.7-7.2C29.4,24.1,18.7,14.5,8.4,5.3L8.3,5.2c-1.1-1-2.2-2-3.3-3l-1.1-1C3.2,0.6,2.6,0.4,2.1,0.4z M36.6,52.4
			c-0.5,0-0.9,0-1.4-0.1l0,0c-4.8-0.6-8.1-4.3-8-8.7V43l0.6,0.1c0.2,0,0.4,0.1,0.5,0.1c1.9,0.2,3.6-0.2,4.9-1.2c1-0.7,1.6-1.7,2.1-3
			l0.2-0.5l0.5,0.1c1.9,0.6,3.9,2.6,4.1,5.5c0,1.2,0.7,2.2,1.8,2.6c0.8,0.3,1.8,0.3,2.7,0l1-0.3l-0.4,1
			C43.6,50.9,39.9,52.4,36.6,52.4z M28.1,44.1c0.2,3.7,3.1,6.7,7.2,7.2l0,0c2.9,0.4,6.7-0.6,8.4-3.4c-0.8,0.1-1.6,0-2.3-0.3
			c-1.5-0.6-2.4-1.9-2.5-3.5c-0.1-2.2-1.5-3.7-3-4.4c-0.5,1.2-1.2,2.2-2.2,3C32.2,43.9,30.3,44.4,28.1,44.1z M29.2,42.5
			c-0.7,0-1.4-0.1-2.1-0.3c-2.2-0.6-4.3-2.1-5.9-4.2C16.5,32.1,8,16.2,1.6,3C1.2,2.2,1.3,1.6,1.7,1.3c0.1-0.1,0.4-0.2,0.7-0.2
			s0.7,0.2,1,0.5L3.8,2c1.3,1.2,2.7,2.4,4,3.6c10.2,9.4,21,19,24.5,23.7c1.6,2.1,2.5,4.5,2.6,6.8s-0.7,4.1-2.2,5.3
			C31.8,42.1,30.5,42.5,29.2,42.5z M2.2,2.1c0,0.1,0,0.2,0.1,0.4l0,0c6.4,13.1,14.9,29,19.5,34.8c1.5,1.9,3.4,3.3,5.4,3.9
			c1.9,0.5,3.6,0.3,4.8-0.7c1.2-0.9,1.9-2.5,1.8-4.5c-0.1-2.1-0.9-4.3-2.4-6.2C28.1,25.2,17.4,15.6,7,6.4C5.7,5.2,4.3,4,3,2.8
			L2.6,2.4C2.4,2.3,2.3,2.2,2.2,2.1z"/>
	</g>
	<g>
		<path class="st3" d="M32.4,41c-1.4,1-3.2,1.3-5.2,0.7c-2.1-0.6-4.1-2-5.7-4C16.8,31.8,8.3,15.9,1.9,2.8C1.6,2.3,1.7,1.9,1.8,1.7
			C1.9,1.6,2,1.6,2.1,1.6c0.2,0,0.4,0.1,0.7,0.4c1.5,1.3,2.9,2.6,4.4,4c10.5,9.3,21.2,18.9,24.7,23.6l0,0c1.6,2,2.4,4.3,2.5,6.5
			C34.5,38.2,33.8,39.9,32.4,41z"/>
		<path class="st4" d="M29.2,42.5c-0.7,0-1.4-0.1-2.1-0.3c-2.2-0.6-4.3-2.1-5.9-4.2C16.5,32.1,7.9,16.2,1.6,3
			C1.2,2.3,1.3,1.6,1.7,1.4c0.2-0.1,0.4-0.2,0.7-0.2s0.7,0.2,1,0.5C4.2,2.4,5,3.2,5.8,3.9c0.7,0.6,1.3,1.2,2,1.8
			C18,15,28.8,24.6,32.3,29.3c1.6,2.1,2.5,4.5,2.6,6.8c0.1,2.2-0.7,4.1-2.2,5.3l0,0C31.8,42.1,30.6,42.5,29.2,42.5z M2.2,2.2
			c0,0.1,0,0.2,0.1,0.4c6.4,13.2,14.9,29,19.5,34.9c1.5,1.9,3.4,3.3,5.4,3.9c1.9,0.5,3.6,0.3,4.8-0.7s1.9-2.6,1.8-4.5
			c-0.1-2.1-0.9-4.3-2.4-6.2C28.1,25.2,17.4,15.6,7,6.4C6.3,5.8,5.7,5.2,5,4.6C4.2,3.9,3.4,3.1,2.6,2.4C2.4,2.3,2.3,2.2,2.2,2.2z"/>
	</g>
</g>
</svg>
