<?xml version="1.0" encoding="utf-8"?>
<!-- Generator: Adobe Illustrator 26.4.1, SVG Export Plug-In . SVG Version: 6.00 Build 0)  -->
<svg version="1.1" id="Layer_1" xmlns="http://www.w3.org/2000/svg" xmlns:xlink="http://www.w3.org/1999/xlink" x="0px" y="0px"
	 viewBox="0 0 187.8 195.3" style="enable-background:new 0 0 187.8 195.3;" xml:space="preserve">
<style type="text/css">
	.st0{fill:url(#SVGID_1_);}
	.st1{fill:#0C8C44;}
	.st2{fill:#FFFFFF;stroke:#006838;stroke-width:2.5;stroke-miterlimit:10;}
	.st3{fill:url(#SVGID_00000084495402017868830300000016984177131981336467_);}
	.st4{fill:#046938;}
	.st5{fill:#FFFFFF;}
</style>
<g>
	<linearGradient id="SVGID_1_" gradientUnits="userSpaceOnUse" x1="94.6233" y1="4.7126" x2="94.6233" y2="190.6076">
		<stop  offset="0" style="stop-color:#55BA5C"/>
		<stop  offset="0.2021" style="stop-color:#50B058"/>
		<stop  offset="0.4603" style="stop-color:#409D51"/>
		<stop  offset="0.7477" style="stop-color:#248245"/>
		<stop  offset="1" style="stop-color:#015129"/>
	</linearGradient>
	<path class="st0" d="M40.9,190.6c-20.2,0-36.6-16.4-36.6-36.6V41.3c0-20.2,16.4-36.6,36.6-36.6h107.4c20.2,0,36.6,16.4,36.6,36.6
		V154c0,20.2-16.4,36.6-36.6,36.6H40.9z"/>
	<path class="st1" d="M148.3,6.2c19.4,0,35.1,15.8,35.1,35.1V154c0,19.4-15.8,35.1-35.1,35.1H40.9c-19.4,0-35.1-15.8-35.1-35.1V41.3
		C5.8,22,21.6,6.2,40.9,6.2H148.3 M148.3,3.2H40.9C19.9,3.2,2.8,20.3,2.8,41.3V154c0,21.1,17.1,38.1,38.1,38.1h107.4
		c21.1,0,38.1-17.1,38.1-38.1V41.3C186.4,20.3,169.4,3.2,148.3,3.2L148.3,3.2z"/>
</g>
<path class="st2" d="M149.8,145.2c-1.7,3.3-5.8,4.6-9.1,2.9c-26.2-14-58.1-15.5-95-4.4c-3.5,1.1-7.3-1-8.3-4.6s1-7.4,4.5-8.5
	c40.3-12.2,75.6-10.3,105,5.4C150.2,137.8,151.5,141.9,149.8,145.2z"/>
<path class="st2" d="M161,111.7c-2.1,4.3-7.3,6.1-11.6,3.9c-31.3-16-77-17.4-111.2-3.4c-4.4,1.8-9.5-0.4-11.2-4.9s0.4-9.6,4.8-11.4
	C70.8,80,121.2,81.6,157.1,100C161.4,102.1,163.1,107.4,161,111.7L161,111.7z"/>
<path class="st2" d="M158.3,80.2c-37.1-19.1-96.1-17-129.5-4.1c-5.4,2.1-11.4-0.7-13.4-6.1c-2-5.4,0.7-11.5,6-13.6
	c38.3-14.8,103.4-17,146.2,5c5.1,2.6,7.2,9,4.6,14.2C169.6,80.7,163.4,82.8,158.3,80.2L158.3,80.2z"/>
<g transform="translate(1.4065934065934016 1.4065934065934016) scale(2.81 2.81)">
	<g>
		
			<linearGradient id="SVGID_00000152258110360639853810000004593731979478759561_" gradientUnits="userSpaceOnUse" x1="-114.6679" y1="100.2768" x2="295.4148" y2="100.2768" gradientTransform="matrix(7.8346 0.9846 -0.9846 7.8346 1005.7546 -634.2904)">
			<stop  offset="0" style="stop-color:#56BA5C"/>
			<stop  offset="0.106" style="stop-color:#57B760"/>
			<stop  offset="0.2415" style="stop-color:#54B16A"/>
			<stop  offset="0.3931" style="stop-color:#54AA7A"/>
			<stop  offset="0.5565" style="stop-color:#519D8A"/>
			<stop  offset="0.7292" style="stop-color:#508E9B"/>
			<stop  offset="0.9071" style="stop-color:#4D7BAD"/>
			<stop  offset="1" style="stop-color:#4D70B6"/>
		</linearGradient>
		<path style="fill:url(#SVGID_00000152258110360639853810000004593731979478759561_);" d="M56.8,59.2c-0.9,1-2.3,1.2-3.2,0.8
			c-0.5-0.2-1-0.6-1-1.5c-0.2-3.6-2.6-5.9-5.1-6.6c0.1-0.5,0.1-0.9,0.1-1.4c-0.1-2.5-1.1-5.2-2.8-7.5c-3.6-4.9-14.4-14.5-24.8-23.9
			c-1.5-1.3-3-2.7-4.4-4c-1.2-1.1-2.5-1-3.2-0.4c-0.8,0.6-1.2,1.8-0.4,3.2c5.9,12.3,14.7,28.8,19.8,35.2c1.6,2,3.6,3.6,5.8,4.3
			c-0.4,5.3,3.4,9.7,9.1,10.4c6.1,0.8,11.2-2.7,11.8-8l0.3-2.6L56.8,59.2z M13.3,17.2c-0.3-0.5-0.2-0.9-0.1-1.1
			c0.1-0.1,0.2-0.1,0.3-0.1c0.2,0,0.4,0.1,0.7,0.4c1.5,1.3,2.9,2.6,4.4,4C29.1,29.7,39.8,39.3,43.3,44l0,0c1.6,2,2.4,4.3,2.5,6.5
			c0,2.1-0.7,3.8-2,4.9c-1.3,1-3.2,1.3-5.2,0.7c-2.1-0.6-4.1-2-5.7-4C28.2,46.2,19.7,30.4,13.3,17.2z M46.7,66.2
			c-4.6-0.6-7.7-4-7.6-8.2c0.2,0,0.4,0.1,0.5,0.1c2,0.3,3.9-0.2,5.3-1.3c1-0.8,1.8-1.9,2.2-3.2c1.7,0.5,3.6,2.2,3.8,5
			c0,1.4,0.8,2.6,2.1,3.1c1,0.4,2,0.3,3,0C54.5,65.2,50.4,66.7,46.7,66.2z"/>
		<path class="st4" d="M48.1,68.5c-0.6,0-1.1,0-1.7-0.1c-5.8-0.7-9.7-5.1-9.5-10.5c-2.1-0.9-4.1-2.4-5.7-4.4
			c-5.2-6.4-13.9-23-19.8-35.3c-0.9-1.6-0.4-3.1,0.5-3.8c0.9-0.7,2.5-0.8,3.9,0.5l1.1,1c1.1,1,2.2,2,3.3,3l0.1,0.1
			c10.4,9.3,21.1,18.9,24.7,23.8c1.8,2.3,2.9,5.1,2.9,7.8c0,0.4,0,0.7,0,1.1c2.4,0.9,4.9,3.3,5.1,7c0,0.6,0.2,0.9,0.7,1.1
			c0.7,0.3,1.9,0.1,2.7-0.7l2.8-3.1l-0.5,4.1c-0.3,2.7-1.8,5.1-4.1,6.6C52.8,67.8,50.5,68.5,48.1,68.5z M13.5,14.8
			c-0.4,0-0.7,0.1-1,0.3c-0.6,0.5-0.9,1.4-0.3,2.6C18.2,29.9,26.9,46.5,32,52.8c1.5,2,3.5,3.4,5.6,4.2l0.3,0.1l0,0.4
			c-0.3,5,3.3,9.2,8.6,9.9c2.8,0.3,5.5-0.2,7.6-1.6c2.1-1.4,3.4-3.5,3.7-6l0.1-1.1l-0.8,0.8c-1.1,1.2-2.7,1.4-3.7,1
			c-0.8-0.3-1.3-1-1.3-2c-0.2-3.4-2.5-5.5-4.8-6.2L47,52.2l0-0.4c0.1-0.4,0.1-0.9,0.1-1.3c-0.1-2.4-1-5-2.7-7.2
			c-3.6-4.8-14.3-14.4-24.6-23.6l-0.1-0.1c-1.1-1-2.2-2-3.3-3l-1.1-1C14.6,15,14,14.8,13.5,14.8z M48,66.8c-0.5,0-0.9,0-1.4-0.1l0,0
			c-4.8-0.6-8.1-4.3-8-8.7l0-0.6l0.6,0.1c0.2,0,0.4,0.1,0.5,0.1c1.9,0.2,3.6-0.2,4.9-1.2c1-0.7,1.6-1.7,2.1-3l0.2-0.5l0.5,0.1
			c1.9,0.6,3.9,2.6,4.1,5.5c0,1.2,0.7,2.2,1.8,2.6c0.8,0.3,1.8,0.3,2.7,0l1-0.3l-0.4,1C55,65.3,51.3,66.8,48,66.8z M39.5,58.5
			c0.2,3.7,3.1,6.7,7.2,7.2l0,0c2.9,0.4,6.7-0.6,8.4-3.4c-0.8,0.1-1.6,0-2.3-0.3c-1.5-0.6-2.4-1.9-2.5-3.5c-0.1-2.2-1.5-3.7-3-4.4
			c-0.5,1.2-1.2,2.2-2.2,3C43.6,58.3,41.7,58.8,39.5,58.5z M40.6,56.9c-0.7,0-1.4-0.1-2.1-0.3c-2.2-0.6-4.3-2.1-5.9-4.2
			c-4.7-5.9-13.2-21.8-19.6-35c-0.4-0.8-0.3-1.4,0.1-1.7c0.1-0.1,0.4-0.2,0.7-0.2c0.3,0,0.7,0.2,1,0.5l0.4,0.4
			c1.3,1.2,2.7,2.4,4,3.6C29.4,29.4,40.2,39,43.7,43.7c1.6,2.1,2.5,4.5,2.6,6.8c0.1,2.3-0.7,4.1-2.2,5.3
			C43.2,56.5,41.9,56.9,40.6,56.9z M13.6,16.5c0,0.1,0,0.2,0.1,0.4l0,0c6.4,13.1,14.9,29,19.5,34.8c1.5,1.9,3.4,3.3,5.4,3.9
			c1.9,0.5,3.6,0.3,4.8-0.7c1.2-0.9,1.9-2.5,1.8-4.5c-0.1-2.1-0.9-4.3-2.4-6.2C39.5,39.6,28.8,30,18.4,20.8c-1.3-1.2-2.7-2.4-4-3.6
			L14,16.8C13.8,16.7,13.7,16.6,13.6,16.5z"/>
	</g>
	<g>
		<path class="st5" d="M56.1,61.6c-1.5,3.5-5.7,5-9.4,4.6c-4.6-0.6-7.7-4-7.6-8.2c0.2,0,0.4,0.1,0.5,0.1c2,0.3,3.9-0.2,5.3-1.3
			c1-0.8,1.8-1.9,2.2-3.2c1.7,0.5,3.6,2.2,3.8,5c0,1.4,0.8,2.6,2.1,3.1C54,62,55.1,62,56.1,61.6z"/>
		<path class="st4" d="M48,66.8c-0.5,0-0.9,0-1.4-0.1c-4.8-0.6-8.1-4.3-8-8.7l0-0.6l0.6,0.1c0.2,0,0.3,0.1,0.5,0.1
			c1.9,0.2,3.6-0.2,4.9-1.2c1-0.7,1.6-1.7,2.1-3l0.2-0.5l0.5,0.1c1.9,0.6,3.9,2.5,4.1,5.5c0,1.2,0.7,2.2,1.8,2.6
			c0.8,0.3,1.8,0.3,2.7,0l1-0.3l-0.4,1C55,65.3,51.3,66.8,48,66.8z M39.5,58.5c0.2,3.7,3.1,6.7,7.2,7.2c2.9,0.4,6.7-0.6,8.4-3.4
			c-0.8,0.1-1.6,0-2.3-0.3c-1.5-0.6-2.4-1.9-2.4-3.5c-0.1-2.2-1.5-3.8-3-4.4c-0.5,1.2-1.2,2.2-2.2,3C43.6,58.3,41.7,58.8,39.5,58.5z
			"/>
	</g>
	<g>
		<path class="st5" d="M43.8,55.4c-1.4,1-3.2,1.3-5.2,0.7c-2.1-0.6-4.1-2-5.7-4c-4.7-5.9-13.2-21.8-19.6-34.9
			c-0.3-0.5-0.2-0.9-0.1-1.1c0.1-0.1,0.2-0.1,0.3-0.1c0.2,0,0.4,0.1,0.7,0.4c1.5,1.3,2.9,2.6,4.4,4C29.1,29.7,39.8,39.3,43.3,44l0,0
			c1.6,2,2.4,4.3,2.5,6.5C45.9,52.6,45.2,54.3,43.8,55.4z"/>
		<path class="st4" d="M40.6,56.9c-0.7,0-1.4-0.1-2.1-0.3c-2.2-0.6-4.3-2.1-5.9-4.2c-4.7-5.9-13.3-21.8-19.6-35
			c-0.4-0.7-0.3-1.4,0.1-1.6c0.2-0.1,0.4-0.2,0.7-0.2c0.3,0,0.7,0.2,1,0.5c0.8,0.7,1.6,1.5,2.4,2.2c0.7,0.6,1.3,1.2,2,1.8
			C29.4,29.4,40.2,39,43.7,43.7c1.6,2.1,2.5,4.5,2.6,6.8c0.1,2.2-0.7,4.1-2.2,5.3l0,0C43.2,56.5,42,56.9,40.6,56.9z M13.6,16.6
			c0,0.1,0,0.2,0.1,0.4c6.4,13.2,14.9,29,19.5,34.9c1.5,1.9,3.4,3.3,5.4,3.9c1.9,0.5,3.6,0.3,4.8-0.7c1.2-1,1.9-2.6,1.8-4.5
			c-0.1-2.1-0.9-4.3-2.4-6.2C39.5,39.6,28.8,30,18.4,20.8c-0.7-0.6-1.3-1.2-2-1.8c-0.8-0.7-1.6-1.5-2.4-2.2
			C13.8,16.7,13.7,16.6,13.6,16.6z"/>
	</g>
</g>
</svg>
