<svg width="49" height="43" viewBox="0 0 49 43" fill="none" xmlns="http://www.w3.org/2000/svg">
<g clip-path="url(#clip0_196_20)">
<path d="M3.06963 31.4246C1.55669 31.4246 0.000976562 32.6242 0.000976562 34.7238C0.000976562 36.6432 1.36881 37.999 3.06963 37.999C4.47357 37.999 5.09929 37.0666 5.09929 37.0666V37.473C5.09929 37.6651 5.28284 37.8794 5.51005 37.8794H6.52488V31.5681H5.09929V32.3689C5.09929 32.3689 4.46833 31.4246 3.06963 31.4246ZM3.32358 32.7152C4.56905 32.7152 5.22236 33.7989 5.22236 34.7233C5.22236 35.7529 4.44668 36.7307 3.32622 36.7307C2.38959 36.7307 1.45135 35.9802 1.45135 34.7097C1.45135 33.5629 2.25876 32.7152 3.32358 32.7152Z" fill="white"/>
<path d="M8.50646 37.8794C8.28744 37.8794 8.0957 37.7239 8.0957 37.473V31.568H9.52129V32.3491C9.84433 31.8686 10.4754 31.4227 11.4442 31.4227C13.0275 31.4227 13.8706 32.6714 13.8706 33.8392V37.8794H12.8799C12.6201 37.8794 12.445 37.6642 12.445 37.4491V34.1499C12.445 33.5027 12.0441 32.7166 11.1172 32.7166C10.1169 32.7166 9.5213 33.6519 9.5213 34.5324V37.8794L8.50646 37.8794Z" fill="white"/>
<path d="M18.0261 31.4247C16.5132 31.4247 14.9575 32.6242 14.9575 34.7238C14.9575 36.6432 16.3253 37.999 18.0261 37.999C19.4301 37.999 20.0558 37.0666 20.0558 37.0666V37.473C20.0558 37.6651 20.2394 37.8795 20.4666 37.8795H21.4814V28.4124H20.0558V32.369C20.0558 32.369 19.4248 31.4247 18.0261 31.4247ZM18.2801 32.7152C19.5256 32.7152 20.1789 33.799 20.1789 34.7233C20.1789 35.7529 19.4032 36.7307 18.2827 36.7307C17.3461 36.7307 16.4079 35.9802 16.4079 34.7097C16.4079 33.5629 17.2153 32.7152 18.2801 32.7152Z" fill="white"/>
<path d="M23.463 37.8794C23.244 37.8794 23.0522 37.724 23.0522 37.473V31.5681H24.4778V32.6199C24.7232 32.0307 25.2527 31.4963 26.1934 31.4963C26.4556 31.4963 26.7008 31.5442 26.7008 31.5442V33.0025C26.7008 33.0025 26.3946 32.8829 26.0242 32.8829C25.024 32.8829 24.4778 33.8182 24.4778 34.6988V37.8794H23.463Z" fill="white"/>
<path d="M30.4605 31.4225C28.876 31.4225 27.1353 32.5927 27.1353 34.7125C27.1353 36.6442 28.618 37.9992 30.457 37.9992C32.7235 37.9992 33.8302 36.1965 33.8302 34.7247C33.8302 32.9188 32.4051 31.4225 30.4605 31.4225ZM30.4657 32.7397C31.5614 32.7397 32.3787 33.6134 32.3787 34.7165C32.3787 35.8386 31.5111 36.7045 30.4689 36.7045C29.5015 36.7045 28.5611 35.9256 28.5611 34.7353C28.5611 33.5252 29.4555 32.7397 30.4657 32.7397Z" fill="white"/>
<path d="M32.7387 7.34998L36.3862 1.09845C36.592 0.747983 36.4676 0.302794 36.1181 0.0991453C35.7687 -0.1045 35.314 0.0138959 35.1129 0.364361L31.4176 6.69641C28.5982 5.42242 25.4246 4.71201 22.0117 4.71201C18.5988 4.71201 15.4252 5.42241 12.6058 6.69641L8.91049 0.364361C8.70466 0.0138959 8.25471 -0.1045 7.90049 0.0991453C7.54628 0.302794 7.42661 0.747983 7.63244 1.09845L11.2799 7.34998C4.99017 10.722 0.729997 17.0209 0.0263672 24.3948H43.9971C43.2935 17.0209 39.0332 10.722 32.7387 7.34998ZM11.9165 18.2854C10.897 18.2854 10.0737 17.4661 10.0737 16.4621C10.0737 15.4533 10.9018 14.6387 11.9165 14.6387C12.9361 14.6387 13.7594 15.458 13.7594 16.4621C13.7642 17.4661 12.9361 18.2854 11.9165 18.2854ZM32.1021 18.2854C31.0826 18.2854 30.2593 17.4661 30.2593 16.4621C30.2593 15.4533 31.0874 14.6387 32.1021 14.6387C33.1217 14.6387 33.945 15.458 33.945 16.4621C33.9498 17.4661 33.1217 18.2854 32.1021 18.2854Z" fill="#32DE84"/>
</g>
<g clip-path="url(#clip1_196_20)">
<mask id="mask0_196_20" style="mask-type:luminance" maskUnits="userSpaceOnUse" x="28" y="22" width="21" height="21">
<path d="M49 22H28V43H49V22Z" fill="white"/>
</mask>
<g mask="url(#mask0_196_20)">
<path d="M46.8851 26.1213C45.9503 24.8816 44.7489 23.8678 43.3697 23.1548C41.9904 22.4419 40.4686 22.0481 38.9166 22.0024C36.4785 21.9536 34.7943 22.6863 33.8414 23.2753C35.1164 22.5358 36.9615 22.1164 38.5769 22.1371C42.7323 22.1896 47.1953 25.0196 47.8582 30.1205C48.6194 35.9759 44.5409 40.8628 38.8037 40.8778C32.4919 40.8938 28.6529 35.3052 29.6564 30.2854C29.6751 30.0392 29.7113 29.7948 29.7648 29.5538C29.8886 28.2672 30.2625 27.0173 30.8655 25.8741C30.1386 26.2502 29.213 27.4399 28.7563 28.5419C28.0914 30.2232 27.857 32.0439 28.0743 33.8388C28.0901 33.9748 28.1042 34.1105 28.1221 34.2455C28.3943 35.8127 29.0185 37.2979 29.9477 38.589C30.8769 39.8801 32.0869 40.9437 33.4866 41.6995C34.8864 42.4553 36.4393 42.8837 38.0286 42.9525C39.6179 43.0213 41.202 42.7286 42.6618 42.0965C44.1216 41.4645 45.419 40.5095 46.4562 39.3034C47.4935 38.0974 48.2437 36.6717 48.6503 35.1338C49.0568 33.5959 49.1092 31.9858 48.8035 30.4247C48.4977 28.8636 47.8418 27.3922 46.8851 26.1213Z" fill="url(#paint0_radial_196_20)"/>
<path opacity="0.67" d="M46.8851 26.1213C45.9503 24.8816 44.7489 23.8678 43.3697 23.1548C41.9904 22.4419 40.4686 22.0481 38.9166 22.0024C36.4785 21.9536 34.7943 22.6863 33.8414 23.2753C35.1164 22.5358 36.9615 22.1164 38.5769 22.1371C42.7323 22.1896 47.1953 25.0196 47.8582 30.1205C48.6194 35.9759 44.5409 40.8628 38.8037 40.8778C32.4919 40.8938 28.6529 35.3052 29.6564 30.2854C29.6751 30.0392 29.7113 29.7948 29.7648 29.5538C29.8886 28.2672 30.2625 27.0173 30.8655 25.8741C30.1386 26.2502 29.213 27.4399 28.7563 28.5419C28.0914 30.2232 27.857 32.0439 28.0743 33.8388C28.0901 33.9748 28.1042 34.1105 28.1221 34.2455C28.3943 35.8127 29.0185 37.2979 29.9477 38.589C30.8769 39.8801 32.0869 40.9437 33.4866 41.6995C34.8864 42.4553 36.4393 42.8837 38.0286 42.9525C39.6179 43.0213 41.202 42.7286 42.6618 42.0965C44.1216 41.4645 45.419 40.5095 46.4562 39.3034C47.4935 38.0974 48.2437 36.6717 48.6503 35.1338C49.0568 33.5959 49.1092 31.9858 48.8035 30.4247C48.4977 28.8636 47.8418 27.3922 46.8851 26.1213Z" fill="url(#paint1_radial_196_20)"/>
<path d="M46.8851 26.1213C45.9503 24.8816 44.7489 23.8678 43.3697 23.1548C41.9904 22.4419 40.4686 22.0481 38.9166 22.0024C36.4785 21.9536 34.7943 22.6863 33.8414 23.2753C35.1164 22.5358 36.9615 22.1164 38.5769 22.1371C42.7323 22.1896 47.1953 25.0196 47.8582 30.1205C48.6194 35.9759 44.5409 40.8628 38.8037 40.8778C32.4919 40.8938 28.6529 35.3052 29.6564 30.2854C29.6751 30.0392 29.7113 29.7948 29.7648 29.5538C29.8886 28.2672 30.2625 27.0173 30.8655 25.8741C30.1386 26.2502 29.213 27.4399 28.7563 28.5419C28.0914 30.2232 27.857 32.0439 28.0743 33.8388C28.0901 33.9748 28.1042 34.1105 28.1221 34.2455C28.3943 35.8127 29.0185 37.2979 29.9477 38.589C30.8769 39.8801 32.0869 40.9437 33.4866 41.6995C34.8864 42.4553 36.4393 42.8837 38.0286 42.9525C39.6179 43.0213 41.202 42.7286 42.6618 42.0965C44.1216 41.4645 45.419 40.5095 46.4562 39.3034C47.4935 38.0974 48.2437 36.6717 48.6503 35.1338C49.0568 33.5959 49.1092 31.9858 48.8035 30.4247C48.4977 28.8636 47.8418 27.3922 46.8851 26.1213Z" fill="url(#paint2_radial_196_20)"/>
<path d="M46.8851 26.1213C45.9503 24.8816 44.7489 23.8678 43.3697 23.1548C41.9904 22.4419 40.4686 22.0481 38.9166 22.0024C36.4785 21.9536 34.7943 22.6863 33.8414 23.2753C35.1164 22.5358 36.9615 22.1164 38.5769 22.1371C42.7323 22.1896 47.1953 25.0196 47.8582 30.1205C48.6194 35.9759 44.5409 40.8628 38.8037 40.8778C32.4919 40.8938 28.6529 35.3052 29.6564 30.2854C29.6751 30.0392 29.7113 29.7948 29.7648 29.5538C29.8886 28.2672 30.2625 27.0173 30.8655 25.8741C30.1386 26.2502 29.213 27.4399 28.7563 28.5419C28.0914 30.2232 27.857 32.0439 28.0743 33.8388C28.0901 33.9748 28.1042 34.1105 28.1221 34.2455C28.3943 35.8127 29.0185 37.2979 29.9477 38.589C30.8769 39.8801 32.0869 40.9437 33.4866 41.6995C34.8864 42.4553 36.4393 42.8837 38.0286 42.9525C39.6179 43.0213 41.202 42.7286 42.6618 42.0965C44.1216 41.4645 45.419 40.5095 46.4562 39.3034C47.4935 38.0974 48.2437 36.6717 48.6503 35.1338C49.0568 33.5959 49.1092 31.9858 48.8035 30.4247C48.4977 28.8636 47.8418 27.3922 46.8851 26.1213Z" fill="url(#paint3_radial_196_20)"/>
<path d="M46.8851 26.1213C45.9503 24.8816 44.7489 23.8678 43.3697 23.1548C41.9904 22.4419 40.4686 22.0481 38.9166 22.0024C36.4785 21.9536 34.7943 22.6863 33.8414 23.2753C35.1164 22.5358 36.9615 22.1164 38.5769 22.1371C42.7323 22.1896 47.1953 25.0196 47.8582 30.1205C48.6194 35.9759 44.5409 40.8628 38.8037 40.8778C32.4919 40.8938 28.6529 35.3052 29.6564 30.2854C29.6751 30.0392 29.7113 29.7948 29.7648 29.5538C29.8886 28.2672 30.2625 27.0173 30.8655 25.8741C30.1386 26.2502 29.213 27.4399 28.7563 28.5419C28.0914 30.2232 27.857 32.0439 28.0743 33.8388C28.0901 33.9748 28.1042 34.1105 28.1221 34.2455C28.3943 35.8127 29.0185 37.2979 29.9477 38.589C30.8769 39.8801 32.0869 40.9437 33.4866 41.6995C34.8864 42.4553 36.4393 42.8837 38.0286 42.9525C39.6179 43.0213 41.202 42.7286 42.6618 42.0965C44.1216 41.4645 45.419 40.5095 46.4562 39.3034C47.4935 38.0974 48.2437 36.6717 48.6503 35.1338C49.0568 33.5959 49.1092 31.9858 48.8035 30.4247C48.4977 28.8636 47.8418 27.3922 46.8851 26.1213Z" fill="url(#paint4_radial_196_20)"/>
<path d="M47.858 30.1204C47.9404 30.751 47.9667 31.3876 47.9367 32.0228C48.285 31.9703 48.6339 31.9239 48.9833 31.8837C48.8727 29.7969 48.1421 27.7905 46.8849 26.1213C45.9502 24.8815 44.7488 23.8677 43.3696 23.1548C41.9903 22.4418 40.4684 22.048 38.9165 22.0024C36.4784 21.9536 34.7942 22.6862 33.8413 23.2752C35.1162 22.5358 36.9614 22.1163 38.5768 22.137C42.7322 22.1901 47.1952 25.0188 47.858 30.1204Z" fill="url(#paint5_linear_196_20)"/>
<path d="M48.114 29.8293C47.5231 24.4985 42.769 22.1024 38.5771 22.137C36.9614 22.1502 35.1166 22.5358 33.8416 23.2752C33.5043 23.4753 33.1907 23.7131 32.9071 23.984C32.941 23.9559 33.0421 23.8727 33.2095 23.7577L33.2261 23.7464L33.2408 23.7364C33.8594 23.3181 34.5411 23.0016 35.2599 22.7988C36.3859 22.4876 37.553 22.351 38.7205 22.3938C40.8871 22.5231 42.9279 23.4551 44.4446 25.0079C45.9613 26.5606 46.8451 28.6228 46.9236 30.7919C47.0199 34.2588 44.1826 37.0229 40.9118 37.183C38.533 37.2996 36.2918 36.1485 35.1972 33.8458C34.9411 33.3214 34.7672 32.7607 34.6816 32.1834C34.1629 28.6791 36.5162 25.6905 38.6743 24.9505C37.5101 23.9336 34.5929 24.0026 32.4218 25.5999C30.8583 26.7502 29.844 28.5003 29.508 30.5874C29.2663 32.1889 29.4791 33.826 30.1223 35.3124C30.7903 36.8887 31.882 38.2491 33.2762 39.2427C34.6704 40.2363 36.3126 40.8242 38.0206 40.9412C38.2812 40.9612 38.5423 40.971 38.8039 40.9709C45.7502 40.9709 48.7637 35.698 48.114 29.8293Z" fill="url(#paint6_radial_196_20)"/>
<path d="M48.114 29.8293C47.5231 24.4985 42.769 22.1024 38.5771 22.137C36.9614 22.1502 35.1166 22.5358 33.8416 23.2752C33.5043 23.4753 33.1907 23.7131 32.9071 23.984C32.941 23.9559 33.0421 23.8727 33.2095 23.7577L33.2261 23.7464L33.2408 23.7364C33.8594 23.3181 34.5411 23.0016 35.2599 22.7988C36.3859 22.4876 37.553 22.351 38.7205 22.3938C40.8871 22.5231 42.9279 23.4551 44.4446 25.0079C45.9613 26.5606 46.8451 28.6228 46.9236 30.7919C47.0199 34.2588 44.1826 37.0229 40.9118 37.183C38.533 37.2996 36.2918 36.1485 35.1972 33.8458C34.9411 33.3214 34.7672 32.7607 34.6816 32.1834C34.1629 28.6791 36.5162 25.6905 38.6743 24.9505C37.5101 23.9336 34.5929 24.0026 32.4218 25.5999C30.8583 26.7502 29.844 28.5003 29.508 30.5874C29.2663 32.1889 29.4791 33.826 30.1223 35.3124C30.7903 36.8887 31.882 38.2491 33.2762 39.2427C34.6704 40.2363 36.3126 40.8242 38.0206 40.9412C38.2812 40.9612 38.5423 40.971 38.8039 40.9709C45.7502 40.9709 48.7637 35.698 48.114 29.8293Z" fill="url(#paint7_radial_196_20)"/>
<path style="mix-blend-mode:multiply" opacity="0.53" d="M48.114 29.8293C47.5231 24.4985 42.769 22.1024 38.5771 22.137C36.9614 22.1502 35.1166 22.5358 33.8416 23.2752C33.5043 23.4753 33.1907 23.7131 32.9071 23.984C32.941 23.9559 33.0421 23.8727 33.2095 23.7577L33.2261 23.7464L33.2408 23.7364C33.8594 23.3181 34.5411 23.0016 35.2599 22.7988C36.3859 22.4876 37.553 22.351 38.7205 22.3938C40.8871 22.5231 42.9279 23.4551 44.4446 25.0079C45.9613 26.5606 46.8451 28.6228 46.9236 30.7919C47.0199 34.2588 44.1826 37.0229 40.9118 37.183C38.533 37.2996 36.2918 36.1485 35.1972 33.8458C34.9411 33.3214 34.7672 32.7607 34.6816 32.1834C34.1629 28.6791 36.5162 25.6905 38.6743 24.9505C37.5101 23.9336 34.5929 24.0026 32.4218 25.5999C30.8583 26.7502 29.844 28.5003 29.508 30.5874C29.2663 32.1889 29.4791 33.826 30.1223 35.3124C30.7903 36.8887 31.882 38.2491 33.2762 39.2427C34.6704 40.2363 36.3126 40.8242 38.0206 40.9412C38.2812 40.9612 38.5423 40.971 38.8039 40.9709C45.7502 40.9709 48.7637 35.698 48.114 29.8293Z" fill="url(#paint8_radial_196_20)"/>
<path style="mix-blend-mode:multiply" opacity="0.53" d="M48.114 29.8293C47.5231 24.4985 42.769 22.1024 38.5771 22.137C36.9614 22.1502 35.1166 22.5358 33.8416 23.2752C33.5043 23.4753 33.1907 23.7131 32.9071 23.984C32.941 23.9559 33.0421 23.8727 33.2095 23.7577L33.2261 23.7464L33.2408 23.7364C33.8594 23.3181 34.5411 23.0016 35.2599 22.7988C36.3859 22.4876 37.553 22.351 38.7205 22.3938C40.8871 22.5231 42.9279 23.4551 44.4446 25.0079C45.9613 26.5606 46.8451 28.6228 46.9236 30.7919C47.0199 34.2588 44.1826 37.0229 40.9118 37.183C38.533 37.2996 36.2918 36.1485 35.1972 33.8458C34.9411 33.3214 34.7672 32.7607 34.6816 32.1834C34.1629 28.6791 36.5162 25.6905 38.6743 24.9505C37.5101 23.9336 34.5929 24.0026 32.4218 25.5999C30.8583 26.7502 29.844 28.5003 29.508 30.5874C29.2663 32.1889 29.4791 33.826 30.1223 35.3124C30.7903 36.8887 31.882 38.2491 33.2762 39.2427C34.6704 40.2363 36.3126 40.8242 38.0206 40.9412C38.2812 40.9612 38.5423 40.971 38.8039 40.9709C45.7502 40.9709 48.7637 35.698 48.114 29.8293Z" fill="url(#paint9_radial_196_20)"/>
<path d="M40.9116 37.183C45.4004 36.91 47.3219 33.193 47.4424 30.5562C47.6303 26.4363 45.1862 21.9948 38.7203 22.3938C37.5528 22.3512 36.3857 22.4881 35.2597 22.7996C34.5442 23.011 33.8638 23.3269 33.2406 23.7372L33.2259 23.7472L33.2093 23.7585C33.1089 23.8285 33.0106 23.9022 32.9146 23.9795C34.5882 23.0437 36.522 22.6808 38.421 22.9463C42.1333 23.4335 45.5274 26.3213 45.5274 30.1317C45.5274 33.0636 43.2618 35.303 40.6087 35.1421C36.6673 34.9058 35.6737 30.8633 37.7241 29.1166C37.1713 28.9977 36.1323 29.2308 35.4088 30.3123C34.7597 31.2836 34.7964 32.7825 35.197 33.8458C35.6963 34.9179 36.5111 35.8119 37.5323 36.4083C38.5536 37.0047 39.7326 37.275 40.9116 37.183Z" fill="url(#paint10_radial_196_20)"/>
<path d="M46.885 26.1212C46.6037 25.753 46.2984 25.4038 45.971 25.0759C45.711 24.801 45.4323 24.5444 45.137 24.3079C45.3069 24.4558 45.469 24.6127 45.6224 24.7777C46.197 25.3909 46.6339 26.1198 46.9039 26.9156C47.4523 28.5769 47.4166 30.6562 46.3695 32.2892C45.788 33.2043 44.9761 33.9502 44.0152 34.4523C43.0543 34.9542 41.9782 35.1946 40.895 35.1491C40.8003 35.1491 40.7047 35.1491 40.6086 35.142C36.6672 34.9058 35.6736 30.8633 37.7243 29.1166C37.1712 28.9977 36.1322 29.2308 35.4088 30.3123C34.7596 31.2836 34.7964 32.7824 35.1969 33.8458C34.9409 33.3214 34.7672 32.7607 34.6816 32.1834C34.1627 28.679 36.516 25.6905 38.674 24.9505C37.5098 23.9335 34.5927 24.0026 32.4215 25.5999C31.1445 26.5544 30.2147 27.9003 29.7737 29.4324C29.9142 28.1891 30.2844 26.9828 30.8654 25.8747C30.1385 26.2509 29.213 27.4406 28.7562 28.5425C28.0915 30.2236 27.8571 32.0441 28.0742 33.8387C28.09 33.9747 28.1042 34.1104 28.122 34.2453C28.3942 35.8126 29.0184 37.2978 29.9476 38.5889C30.8768 39.88 32.0869 40.9436 33.4866 41.6994C34.8863 42.4552 36.4393 42.8836 38.0285 42.9524C39.6178 43.0212 41.202 42.7285 42.6617 42.0964C44.1215 41.4644 45.4189 40.5094 46.4562 39.3033C47.4935 38.0973 48.2436 36.6716 48.6502 35.1337C49.0568 33.5958 49.1092 31.9857 48.8034 30.4246C48.4976 28.8635 47.8417 27.3921 46.885 26.1212Z" fill="url(#paint11_linear_196_20)"/>
<path d="M46.9042 26.9156C46.6343 26.1198 46.1974 25.3909 45.6227 24.7778C44.9398 24.0662 44.1303 23.4882 43.2355 23.0733C42.4885 22.7051 41.7009 22.4259 40.8888 22.2415C39.4572 21.9281 37.9758 21.9192 36.5405 22.2152C35.0487 22.5302 33.737 23.1757 32.9072 23.9826C33.5688 23.6089 34.278 23.3263 35.0153 23.1426C36.4482 22.7826 37.9486 22.7886 39.3785 23.1601C40.8084 23.5317 42.1219 24.2568 43.1983 25.2689C43.6345 25.6826 44.0163 26.1501 44.3346 26.6601C45.6196 28.7494 45.498 31.376 44.4961 32.925C43.7519 34.0758 42.158 35.1562 40.6709 35.1436C41.7901 35.2281 42.9113 35.0073 43.9149 34.5047C44.9185 34.0022 45.767 33.2367 46.3698 32.29C47.4169 30.6562 47.4526 28.5769 46.9042 26.9156Z" fill="url(#paint12_linear_196_20)"/>
<path d="M46.9042 26.9156C46.6343 26.1198 46.1974 25.3909 45.6227 24.7778C44.9398 24.0662 44.1303 23.4882 43.2355 23.0733C42.4885 22.7051 41.7009 22.4259 40.8888 22.2415C39.4572 21.9281 37.9758 21.9192 36.5405 22.2152C35.0487 22.5302 33.737 23.1757 32.9072 23.9826C33.5688 23.6089 34.278 23.3263 35.0153 23.1426C36.4482 22.7826 37.9486 22.7886 39.3785 23.1601C40.8084 23.5317 42.1219 24.2568 43.1983 25.2689C43.6345 25.6826 44.0163 26.1501 44.3346 26.6601C45.6196 28.7494 45.498 31.376 44.4961 32.925C43.7519 34.0758 42.158 35.1562 40.6709 35.1436C41.7901 35.2281 42.9113 35.0073 43.9149 34.5047C44.9185 34.0022 45.767 33.2367 46.3698 32.29C47.4169 30.6562 47.4526 28.5769 46.9042 26.9156Z" fill="url(#paint13_linear_196_20)"/>
</g>
</g>
<defs>
<radialGradient id="paint0_radial_196_20" cx="0" cy="0" r="1" gradientUnits="userSpaceOnUse" gradientTransform="translate(46.7767 26.3012) scale(23.8298 23.8298)">
<stop stop-color="#FFF36E"/>
<stop offset="0.5" stop-color="#FC4055"/>
<stop offset="1" stop-color="#E31587"/>
</radialGradient>
<radialGradient id="paint1_radial_196_20" cx="0" cy="0" r="1" gradientUnits="userSpaceOnUse" gradientTransform="translate(29.7399 27.2868) scale(14.1031)">
<stop offset="0.001" stop-color="#C60084"/>
<stop offset="1" stop-color="#FC4055" stop-opacity="0"/>
</radialGradient>
<radialGradient id="paint2_radial_196_20" cx="0" cy="0" r="1" gradientUnits="userSpaceOnUse" gradientTransform="translate(48.8137 24.9451) scale(27.9822 27.9822)">
<stop stop-color="#FFDE67" stop-opacity="0.6"/>
<stop offset="0.093" stop-color="#FFD966" stop-opacity="0.581"/>
<stop offset="0.203" stop-color="#FFCA65" stop-opacity="0.525"/>
<stop offset="0.321" stop-color="#FEB262" stop-opacity="0.432"/>
<stop offset="0.446" stop-color="#FE8F5E" stop-opacity="0.302"/>
<stop offset="0.573" stop-color="#FD6459" stop-opacity="0.137"/>
<stop offset="0.664" stop-color="#FC4055" stop-opacity="0"/>
</radialGradient>
<radialGradient id="paint3_radial_196_20" cx="0" cy="0" r="1" gradientUnits="userSpaceOnUse" gradientTransform="translate(39.0996 33.6561) scale(36.0993 36.0993)">
<stop offset="0.153" stop-color="#810220"/>
<stop offset="0.167" stop-color="#920B27" stop-opacity="0.861"/>
<stop offset="0.216" stop-color="#CB2740" stop-opacity="0.398"/>
<stop offset="0.253" stop-color="#EF394F" stop-opacity="0.11"/>
<stop offset="0.272" stop-color="#FC4055" stop-opacity="0"/>
</radialGradient>
<radialGradient id="paint4_radial_196_20" cx="0" cy="0" r="1" gradientUnits="userSpaceOnUse" gradientTransform="translate(36.3677 33.2023) scale(36.0993 36.0993)">
<stop offset="0.113" stop-color="#810220"/>
<stop offset="0.133" stop-color="#920B27" stop-opacity="0.861"/>
<stop offset="0.204" stop-color="#CB2740" stop-opacity="0.398"/>
<stop offset="0.257" stop-color="#EF394F" stop-opacity="0.11"/>
<stop offset="0.284" stop-color="#FC4055" stop-opacity="0"/>
</radialGradient>
<linearGradient id="paint5_linear_196_20" x1="40.0303" y1="24.0441" x2="46.2142" y2="34.7551" gradientUnits="userSpaceOnUse">
<stop stop-color="#FFBD4F"/>
<stop offset="0.508" stop-color="#FF9640" stop-opacity="0"/>
</linearGradient>
<radialGradient id="paint6_radial_196_20" cx="0" cy="0" r="1" gradientUnits="userSpaceOnUse" gradientTransform="translate(46.2322 25.174) scale(22.3702 22.4168)">
<stop stop-color="#FF9640"/>
<stop offset="0.8" stop-color="#FC4055"/>
</radialGradient>
<radialGradient id="paint7_radial_196_20" cx="0" cy="0" r="1" gradientUnits="userSpaceOnUse" gradientTransform="translate(46.2322 25.174) scale(22.3702 22.4168)">
<stop offset="0.084" stop-color="#FFDE67"/>
<stop offset="0.147" stop-color="#FFDC66" stop-opacity="0.968"/>
<stop offset="0.246" stop-color="#FFD562" stop-opacity="0.879"/>
<stop offset="0.369" stop-color="#FFCB5D" stop-opacity="0.734"/>
<stop offset="0.511" stop-color="#FFBC55" stop-opacity="0.533"/>
<stop offset="0.667" stop-color="#FFAA4B" stop-opacity="0.28"/>
<stop offset="0.822" stop-color="#FF9640" stop-opacity="0"/>
</radialGradient>
<radialGradient id="paint8_radial_196_20" cx="0" cy="0" r="1" gradientUnits="userSpaceOnUse" gradientTransform="translate(41.1085 32.1464) rotate(75.728) scale(10.991 11.4487)">
<stop offset="0.363" stop-color="#FC4055"/>
<stop offset="0.443" stop-color="#FD604D" stop-opacity="0.633"/>
<stop offset="0.545" stop-color="#FE8644" stop-opacity="0.181"/>
<stop offset="0.59" stop-color="#FF9640" stop-opacity="0"/>
</radialGradient>
<radialGradient id="paint9_radial_196_20" cx="0" cy="0" r="1" gradientUnits="userSpaceOnUse" gradientTransform="translate(39.2184 33.0507) scale(10.9699)">
<stop offset="0.216" stop-color="#FC4055" stop-opacity="0.8"/>
<stop offset="0.267" stop-color="#FD5251" stop-opacity="0.633"/>
<stop offset="0.41" stop-color="#FE8345" stop-opacity="0.181"/>
<stop offset="0.474" stop-color="#FF9640" stop-opacity="0"/>
</radialGradient>
<radialGradient id="paint10_radial_196_20" cx="0" cy="0" r="1" gradientUnits="userSpaceOnUse" gradientTransform="translate(50.6966 22.6418) scale(37.8097 37.8886)">
<stop offset="0.054" stop-color="#FFF36E"/>
<stop offset="0.457" stop-color="#FF9640"/>
<stop offset="0.639" stop-color="#FF9640"/>
</radialGradient>
<linearGradient id="paint11_linear_196_20" x1="43.5009" y1="23.8593" x2="32.7654" y2="42.454" gradientUnits="userSpaceOnUse">
<stop stop-color="#FFF36E" stop-opacity="0.8"/>
<stop offset="0.094" stop-color="#FFF36E" stop-opacity="0.699"/>
<stop offset="0.752" stop-color="#FFF36E" stop-opacity="0"/>
</linearGradient>
<linearGradient id="paint12_linear_196_20" x1="38.6536" y1="21.8241" x2="44.3538" y2="38.3283" gradientUnits="userSpaceOnUse">
<stop stop-color="#B833E1"/>
<stop offset="0.371" stop-color="#9059FF"/>
<stop offset="0.614" stop-color="#5B6DF8"/>
<stop offset="1" stop-color="#0090ED"/>
</linearGradient>
<linearGradient id="paint13_linear_196_20" x1="35.2739" y1="22.085" x2="45.8687" y2="32.6798" gradientUnits="userSpaceOnUse">
<stop offset="0.805" stop-color="#722291" stop-opacity="0"/>
<stop offset="1" stop-color="#592ACB" stop-opacity="0.5"/>
</linearGradient>
<clipPath id="clip0_196_20">
<rect width="44" height="38" fill="white"/>
</clipPath>
<clipPath id="clip1_196_20">
<rect width="21" height="21" fill="white" transform="translate(28 22)"/>
</clipPath>
</defs>
</svg>
