<svg width="46" height="54" viewBox="0 0 46 54" fill="none" xmlns="http://www.w3.org/2000/svg">
<path d="M46 17.4518L44.3365 12.9338L45.4934 10.3403C45.5661 10.1766 45.5876 9.99489 45.5553 9.81881C45.5229 9.64273 45.4381 9.48054 45.3119 9.35349L42.1663 6.17391C41.4911 5.48873 40.6351 5.00946 39.698 4.79193C38.761 4.57439 37.7814 4.62754 36.8733 4.94518L35.9924 5.25142L31.1871 0.0453668L23.0359 0H22.983L14.7788 0.0642715L9.97731 5.31191L9.12287 5.00945C8.20895 4.68805 7.22231 4.63401 6.27875 4.85366C5.33519 5.07331 4.47386 5.55754 3.79584 6.24953L0.59357 9.4896C0.49307 9.59087 0.425566 9.72019 0.399924 9.86054C0.374283 10.0009 0.391707 10.1457 0.449906 10.276L1.65596 12.9679L0 17.482L1.06994 21.5539L5.95085 40.1096C6.51315 42.2472 7.80677 44.12 9.60681 45.4026C9.60681 45.4026 15.5312 49.5803 21.3762 53.3762C21.8384 53.7452 22.4123 53.9462 23.0038 53.9462C23.5952 53.9462 24.1692 53.7452 24.6314 53.3762C31.1985 49.0737 36.3932 45.3875 36.3932 45.3875C38.1918 44.1043 39.484 42.2315 40.0454 40.0945L44.8998 21.5312L46 17.4518Z" fill="url(#paint0_linear_185_132)"/>
<path d="M24.3447 33.4404C24.0335 33.3011 23.7126 33.1849 23.3844 33.0926H22.8059C22.4778 33.1849 22.1568 33.3011 21.8456 33.4404L20.3901 34.0453C19.9288 34.2381 19.1878 34.5822 18.7455 34.8015L16.0687 36.1966C15.9718 36.228 15.8865 36.2878 15.8238 36.3681C15.7611 36.4485 15.7239 36.5457 15.717 36.6474C15.7101 36.7491 15.7338 36.8505 15.785 36.9386C15.8362 37.0267 15.9127 37.0975 16.0044 37.1417L18.3296 38.7826C18.7379 39.0699 19.3806 39.5765 19.7587 39.9168L20.4128 40.4801C20.7908 40.8053 21.4071 41.3459 21.7814 41.6786L22.4014 42.2268C22.593 42.3864 22.8345 42.4738 23.0838 42.4738C23.3332 42.4738 23.5747 42.3864 23.7663 42.2268L24.4165 41.6597L25.7852 40.465L26.443 39.8903C26.8211 39.5614 27.46 39.0548 27.8683 38.7561L30.1935 37.0926C30.2855 37.0484 30.362 36.9775 30.413 36.8892C30.464 36.8008 30.4871 36.6991 30.4794 36.5973C30.4716 36.4956 30.4333 36.3986 30.3695 36.319C30.3056 36.2394 30.2193 36.1809 30.1216 36.1512L27.4487 34.7939C27.0025 34.5671 26.2615 34.2268 25.7965 34.0378L24.3447 33.4404Z" fill="white"/>
<path d="M40.8273 18.4612L40.9029 18.2193C40.9074 17.8956 40.8871 17.572 40.8424 17.2514C40.6173 16.6787 40.3281 16.1333 39.9804 15.6257L38.4681 13.4064C38.1883 12.9905 37.712 12.3327 37.3906 11.9433L35.3641 9.40641C35.1793 9.15916 34.9785 8.92426 34.763 8.7032H34.7214C34.7214 8.7032 34.3131 8.77503 33.8216 8.86955L30.7252 9.4669L29.3679 9.72777C28.9173 9.74894 28.4668 9.68349 28.0409 9.53496L25.5948 8.74478C25.1184 8.58977 24.332 8.36671 23.8443 8.26085C23.3303 8.20622 22.812 8.20622 22.298 8.26085C21.8103 8.37427 21.0239 8.59356 20.5475 8.74857L18.1014 9.54251C17.6754 9.69105 17.225 9.75651 16.7744 9.73533L15.4171 9.47824L12.3169 8.88467C11.8254 8.79015 11.4209 8.71454 11.4171 8.71832H11.3755C11.16 8.93938 10.9592 9.17428 10.7744 9.42153L8.75167 11.9584C8.44165 12.3365 7.95394 13.0094 7.67417 13.4215L6.16188 15.6408C5.9007 16.0235 5.6621 16.4212 5.44733 16.8317C5.31777 17.2895 5.24912 17.7624 5.24316 18.2382L5.31878 18.4801C5.35518 18.6356 5.40191 18.7884 5.45867 18.9376C5.77247 19.3157 6.30932 19.9433 6.65337 20.31L11.9464 25.9357C12.1221 26.1408 12.2397 26.3893 12.2869 26.6552C12.3341 26.9212 12.3092 27.1949 12.2148 27.448L11.349 29.5009C11.1522 30.0448 11.1376 30.638 11.3074 31.1909L11.4813 31.6673C11.7655 32.441 12.2526 33.1239 12.8916 33.6446L13.7233 34.3213C13.9394 34.4772 14.1915 34.5756 14.456 34.6074C14.7205 34.6391 14.9888 34.6031 15.2356 34.5028L18.1921 33.0926C18.7348 32.8209 19.2426 32.4845 19.7044 32.0907L22.0711 29.9546C22.1654 29.8695 22.2416 29.7663 22.2953 29.6512C22.349 29.5361 22.379 29.4114 22.3836 29.2845C22.3882 29.1576 22.3672 29.031 22.322 28.9123C22.2768 28.7936 22.2082 28.6852 22.1203 28.5936L16.7781 24.9943C16.5759 24.8508 16.4318 24.6394 16.3721 24.3987C16.3125 24.1579 16.3412 23.9038 16.453 23.6824L18.5248 19.7883C18.6427 19.5499 18.7123 19.2906 18.7298 19.0253C18.7473 18.7599 18.7124 18.4938 18.6269 18.2419C18.3696 17.7616 17.9542 17.385 17.4511 17.1758L10.9558 14.7221C10.487 14.5444 10.5135 14.344 11.0088 14.3138L14.8235 13.9357C15.4217 13.8977 16.0222 13.9512 16.6042 14.0945L19.9237 15.0208C20.1594 15.0918 20.3613 15.2459 20.492 15.4545C20.6227 15.663 20.6733 15.9119 20.6345 16.155L19.3301 23.2779C19.2429 23.6724 19.2212 24.0786 19.2658 24.4801C19.3188 24.6503 19.7649 24.8582 20.2526 24.9792L22.2753 25.4102C22.8627 25.5181 23.4648 25.5181 24.0522 25.4102L25.8708 24.9981C26.3585 24.8885 26.8008 24.6578 26.8575 24.4877C26.901 24.0859 26.878 23.6797 26.7895 23.2854L25.4776 16.1626C25.4387 15.9195 25.4894 15.6706 25.6201 15.462C25.7508 15.2535 25.9527 15.0994 26.1883 15.0283L29.5078 14.0983C30.0898 13.9549 30.6903 13.9014 31.2885 13.9395L35.1033 14.2949C35.6023 14.3402 35.625 14.5255 35.16 14.7032L28.6685 17.1644C28.1654 17.3736 27.75 17.7503 27.4927 18.2306C27.3205 18.7392 27.3572 19.2954 27.5948 19.7769L29.6704 23.6711C29.7822 23.8924 29.8109 24.1466 29.7512 24.3873C29.6916 24.6281 29.5475 24.8394 29.3452 24.983L24.0069 28.5898C23.919 28.6815 23.8504 28.7899 23.8052 28.9085C23.7599 29.0272 23.739 29.1538 23.7436 29.2807C23.7482 29.4076 23.7782 29.5323 23.8318 29.6474C23.8855 29.7626 23.9618 29.8657 24.056 29.9508L26.4265 32.0869C26.8885 32.4794 27.3963 32.8145 27.9388 33.085L30.8953 34.4915C31.1425 34.5913 31.4109 34.6266 31.6754 34.5942C31.9399 34.5618 32.1919 34.4627 32.4076 34.3062L33.2394 33.6257C33.879 33.1041 34.3662 32.4197 34.6496 31.6446L34.8235 31.1682C34.9934 30.6153 34.9788 30.0221 34.7819 29.4782L33.9124 27.4253C33.818 27.1722 33.7931 26.8985 33.8403 26.6326C33.8875 26.3666 34.0051 26.1182 34.1808 25.913L39.4738 20.2798C39.8178 19.9017 40.3509 19.2968 40.6647 18.9074C40.7287 18.7624 40.783 18.6134 40.8273 18.4612Z" fill="white"/>
<defs>
<linearGradient id="paint0_linear_185_132" x1="0.0151229" y1="26.9754" x2="45.9849" y2="26.9754" gradientUnits="userSpaceOnUse">
<stop stop-color="#F1562B"/>
<stop offset="0.3" stop-color="#F1542B"/>
<stop offset="0.41" stop-color="#F04D2A"/>
<stop offset="0.49" stop-color="#EF4229"/>
<stop offset="0.5" stop-color="#EF4029"/>
<stop offset="0.56" stop-color="#E83E28"/>
<stop offset="0.67" stop-color="#E13C26"/>
<stop offset="1" stop-color="#DF3C26"/>
</linearGradient>
</defs>
</svg>
