<svg width="53" height="53" viewBox="0 0 53 53" fill="none" xmlns="http://www.w3.org/2000/svg">
<g clip-path="url(#clip0_2_33)">
<path d="M26.5 39.7441C33.8178 39.7441 39.75 33.8119 39.75 26.4941C39.75 19.1764 33.8178 13.2441 26.5 13.2441C19.1822 13.2441 13.25 19.1764 13.25 26.4941C13.25 33.8119 19.1822 39.7441 26.5 39.7441Z" fill="white"/>
<path d="M26.5001 13.25H49.446C47.1208 9.22131 43.7759 5.87581 39.7477 3.54989C35.7194 1.22397 31.1498 -0.000385517 26.4983 -6.09707e-05C21.8468 0.000263576 17.2773 1.22525 13.2494 3.55174C9.22149 5.87822 5.87709 9.22418 3.55249 13.2532L15.0254 33.125L15.0357 33.1223C13.8686 31.1097 13.2527 28.825 13.2501 26.4985C13.2475 24.172 13.8582 21.8859 15.0208 19.8707C16.1834 17.8555 17.8567 16.1824 19.872 15.02C21.8874 13.8576 24.1735 13.2471 26.5001 13.25Z" fill="url(#paint0_linear_2_33)"/>
<path d="M26.5 36.9896C32.2932 36.9896 36.9895 32.2933 36.9895 26.5C36.9895 20.7068 32.2932 16.0104 26.5 16.0104C20.7067 16.0104 16.0104 20.7068 16.0104 26.5C16.0104 32.2933 20.7067 36.9896 26.5 36.9896Z" fill="#1A73E8"/>
<path d="M37.9737 33.1282L26.5007 53C31.1522 53.0006 35.7219 51.7766 39.7503 49.451C43.7787 47.1254 47.1238 43.7801 49.4493 39.7516C51.7747 35.7231 52.9986 31.1534 52.9977 26.5019C52.9969 21.8504 51.7714 17.2811 49.4445 13.2534H26.4987L26.496 13.2637C28.8225 13.2592 31.1091 13.8681 33.1252 15.0291C35.1414 16.1901 36.8158 17.8621 37.9798 19.8765C39.1437 21.891 39.756 24.1766 39.7549 26.5032C39.7539 28.8297 39.1395 31.1148 37.9737 33.1282Z" fill="url(#paint1_linear_2_33)"/>
<path d="M15.0261 33.1285L3.55318 13.2567C1.22684 17.2847 0.00200442 21.8541 0.00183107 26.5057C0.00165773 31.1572 1.22615 35.7268 3.5522 39.7549C5.87824 43.7831 9.22383 47.1279 13.2526 49.4529C17.2813 51.778 21.8512 53.0014 26.5027 53L37.9757 33.1282L37.9683 33.1207C36.8089 35.1378 35.1382 36.8135 33.1247 37.979C31.1112 39.1446 28.826 39.7587 26.4995 39.7595C24.1729 39.7602 21.8873 39.1477 19.873 37.9835C17.8587 36.8193 16.1869 35.1447 15.0261 33.1285Z" fill="url(#paint2_linear_2_33)"/>
</g>
<defs>
<linearGradient id="paint0_linear_2_33" x1="3.55249" y1="16.5625" x2="49.446" y2="16.5625" gradientUnits="userSpaceOnUse">
<stop stop-color="#D93025"/>
<stop offset="1" stop-color="#EA4335"/>
</linearGradient>
<linearGradient id="paint1_linear_2_33" x1="22.8804" y1="52.6457" x2="45.8272" y2="12.9007" gradientUnits="userSpaceOnUse">
<stop stop-color="#FCC934"/>
<stop offset="1" stop-color="#FBBC04"/>
</linearGradient>
<linearGradient id="paint2_linear_2_33" x1="29.3687" y1="51.3454" x2="6.42191" y2="11.6004" gradientUnits="userSpaceOnUse">
<stop stop-color="#1E8E3E"/>
<stop offset="1" stop-color="#34A853"/>
</linearGradient>
<clipPath id="clip0_2_33">
<rect width="53" height="53" fill="white"/>
</clipPath>
</defs>
</svg>
