<svg width="53" height="53" viewBox="0 0 53 53" fill="none" xmlns="http://www.w3.org/2000/svg">
<path d="M47.8357 39.4508C47.1292 39.8204 46.4005 40.1461 45.6538 40.426C43.2772 41.3155 40.7594 41.7685 38.2218 41.7636C28.4257 41.7636 19.8924 35.0242 19.8924 26.3758C19.9179 24.0169 21.2219 21.8489 23.2937 20.7213C14.4333 21.094 12.1561 30.3283 12.1561 35.7385C12.1561 51.0351 26.252 52.5859 29.289 52.5859C30.9265 52.5859 33.3962 52.1097 34.8785 51.6418L35.1497 51.5507C40.8524 49.579 45.7167 45.7219 48.9371 40.6186C49.0213 40.4859 49.066 40.332 49.066 40.1747C49.066 39.7204 48.6922 39.3465 48.238 39.3465C48.0972 39.3465 47.9587 39.3825 47.8357 39.4508Z" fill="url(#paint0_linear_2_7)"/>
<path d="M47.8357 39.4508C47.1292 39.8204 46.4005 40.1461 45.6538 40.426C43.2772 41.3155 40.7594 41.7685 38.2218 41.7636C28.4257 41.7636 19.8924 35.0242 19.8924 26.3758C19.9179 24.0169 21.2219 21.8489 23.2937 20.7213C14.4333 21.094 12.1561 30.3283 12.1561 35.7385C12.1561 51.0351 26.252 52.5859 29.289 52.5859C30.9265 52.5859 33.3962 52.1097 34.8785 51.6418L35.1497 51.5507C40.8524 49.579 45.7167 45.7219 48.9371 40.6186C49.0213 40.4859 49.066 40.332 49.066 40.1747C49.066 39.7204 48.6922 39.3465 48.238 39.3465C48.0972 39.3465 47.9587 39.3825 47.8357 39.4508Z" fill="url(#paint1_radial_2_7)"/>
<path d="M21.8881 49.9854C20.0417 48.8392 18.4414 47.3373 17.1805 45.567C15.0929 42.7067 13.9676 39.2552 13.9676 35.7138C13.9676 29.3579 17.5929 23.5299 23.2937 20.7213C23.9396 20.417 25.043 19.8662 26.5108 19.8931C28.6056 19.9085 30.5762 20.9058 31.8291 22.5848C32.665 23.701 33.1261 25.0538 33.1457 26.4483C33.1457 26.4048 38.2094 9.96729 16.5843 9.96729C7.49617 9.96729 0.0228072 18.5929 0.0228072 26.1605C-0.013007 30.1635 0.843428 34.1246 2.5298 37.7551C8.20707 49.8701 22.2121 55.8813 34.9033 51.6501C30.54 53.0259 25.7856 52.4201 21.9067 49.9937L21.8881 49.9854Z" fill="url(#paint2_linear_2_7)"/>
<path d="M21.8881 49.9854C20.0417 48.8392 18.4414 47.3373 17.1805 45.567C15.0929 42.7067 13.9676 39.2552 13.9676 35.7138C13.9676 29.3579 17.5929 23.5299 23.2937 20.7213C23.9396 20.417 25.043 19.8662 26.5108 19.8931C28.6056 19.9085 30.5762 20.9058 31.8291 22.5848C32.665 23.701 33.1261 25.0538 33.1457 26.4483C33.1457 26.4048 38.2094 9.96729 16.5843 9.96729C7.49617 9.96729 0.0228072 18.5929 0.0228072 26.1605C-0.013007 30.1635 0.843428 34.1246 2.5298 37.7551C8.20707 49.8701 22.2121 55.8813 34.9033 51.6501C30.54 53.0259 25.7856 52.4201 21.9067 49.9937L21.8881 49.9854Z" fill="url(#paint3_radial_2_7)"/>
<path d="M31.5351 30.8211C31.3674 31.0385 30.8519 31.3387 30.8519 31.993C30.8519 32.5334 31.2039 33.0531 31.8291 33.4899C34.806 35.5604 40.4183 35.2871 40.4327 35.2871C42.6383 35.2817 44.8027 34.6846 46.6992 33.5583C50.5876 31.2876 52.9894 27.1129 52.9988 22.6096C53.0526 17.9697 51.3426 14.8846 50.6512 13.5181C46.2645 4.93601 36.7954 1.34254e-07 26.4983 1.34254e-07C12.1015 -0.0014492 0.202464 11.7319 0 26.1294C0.0993688 18.5639 7.61827 12.4539 16.5615 12.4539C17.286 12.4539 21.4181 12.5243 25.2562 14.5389C28.6389 16.3153 30.411 18.4604 31.6427 20.5867C32.9221 22.7959 33.1498 25.5869 33.1498 26.6988C33.1498 27.8106 32.5826 29.4587 31.5351 30.8211Z" fill="url(#paint4_radial_2_7)"/>
<path d="M31.5351 30.8211C31.3674 31.0385 30.8519 31.3387 30.8519 31.993C30.8519 32.5334 31.2039 33.0531 31.8291 33.4899C34.806 35.5604 40.4183 35.2871 40.4327 35.2871C42.6383 35.2817 44.8027 34.6846 46.6992 33.5583C50.5876 31.2876 52.9894 27.1129 52.9988 22.6096C53.0526 17.9697 51.3426 14.8846 50.6512 13.5181C46.2645 4.93601 36.7954 1.34254e-07 26.4983 1.34254e-07C12.1015 -0.0014492 0.202464 11.7319 0 26.1294C0.0993688 18.5639 7.61827 12.4539 16.5615 12.4539C17.286 12.4539 21.4181 12.5243 25.2562 14.5389C28.6389 16.3153 30.411 18.4604 31.6427 20.5867C32.9221 22.7959 33.1498 25.5869 33.1498 26.6988C33.1498 27.8106 32.5826 29.4587 31.5351 30.8211Z" fill="url(#paint5_radial_2_7)"/>
<defs>
<linearGradient id="paint0_linear_2_7" x1="12.1561" y1="1407.19" x2="11014.2" y2="1407.19" gradientUnits="userSpaceOnUse">
<stop stop-color="#0C59A4"/>
<stop offset="1" stop-color="#114A8B"/>
</linearGradient>
<radialGradient id="paint1_radial_2_7" cx="0" cy="0" r="1" gradientUnits="userSpaceOnUse" gradientTransform="translate(5257.48 1432.52) scale(5884.13 5884.96)">
<stop stop-opacity="0"/>
<stop offset="0.72" stop-opacity="0"/>
<stop offset="0.95" stop-opacity="0.19"/>
<stop offset="1" stop-opacity="0.35"/>
</radialGradient>
<linearGradient id="paint2_linear_2_7" x1="7970.19" y1="938.544" x2="3237.39" y2="2443.35" gradientUnits="userSpaceOnUse">
<stop stop-color="#1B9DE2"/>
<stop offset="0.16" stop-color="#1595DF"/>
<stop offset="0.67" stop-color="#0680D7"/>
<stop offset="1" stop-color="#0078D4"/>
</linearGradient>
<radialGradient id="paint3_radial_2_7" cx="0" cy="0" r="1" gradientUnits="userSpaceOnUse" gradientTransform="translate(3337.66 -3145.13) rotate(-79.4153) scale(7216.04 10851)">
<stop stop-opacity="0"/>
<stop offset="0.76" stop-opacity="0"/>
<stop offset="0.95" stop-opacity="0.2"/>
<stop offset="1" stop-opacity="0.41"/>
</radialGradient>
<radialGradient id="paint4_radial_2_7" cx="0" cy="0" r="1" gradientUnits="userSpaceOnUse" gradientTransform="translate(-609.946 1560.52) rotate(91.5256) scale(18762.4 8326.56)">
<stop stop-color="#35C1F1"/>
<stop offset="0.11" stop-color="#34C1ED"/>
<stop offset="0.23" stop-color="#2FC2DF"/>
<stop offset="0.31" stop-color="#2BC3D2"/>
<stop offset="0.67" stop-color="#36C752"/>
<stop offset="1" stop-color="#36C752"/>
</radialGradient>
<radialGradient id="paint5_radial_2_7" cx="0" cy="0" r="1" gradientUnits="userSpaceOnUse" gradientTransform="translate(1871.33 14609.8) rotate(79.0099) scale(8819.87 4089.14)">
<stop stop-color="#66EB6E"/>
<stop offset="1" stop-color="#66EB6E" stop-opacity="0"/>
</radialGradient>
</defs>
</svg>
