<svg width="53" height="53" viewBox="0 0 53 53" fill="none" xmlns="http://www.w3.org/2000/svg">
<g clip-path="url(#clip0_2_21)">
<path d="M47.6627 10.4013C45.3036 7.2724 42.2715 4.71374 38.7905 2.91442C35.3095 1.1151 31.4687 0.12112 27.5518 0.00596953C21.3985 -0.117255 17.1479 1.73178 14.743 3.21843C17.9608 1.35217 22.6175 0.293495 26.6945 0.345832C37.1819 0.478332 48.4457 7.62075 50.1186 20.4944C52.0398 35.2722 41.7465 47.6059 27.2669 47.6437C11.3371 47.6841 1.64807 33.5795 4.1808 20.9105C4.2279 20.2893 4.31934 19.6723 4.45442 19.0641C4.76693 15.8171 5.71055 12.6625 7.23228 9.77718C5.39782 10.7265 3.06184 13.729 1.90909 16.5102C0.231049 20.7535 -0.360579 25.3488 0.187916 29.8788C0.227666 30.2219 0.263441 30.5644 0.308491 30.905C0.99544 34.8605 2.5708 38.6087 4.91597 41.8673C7.26114 45.1259 10.315 47.81 13.8476 49.7175C17.3803 51.625 21.2996 52.7063 25.3106 52.8799C29.3216 53.0535 33.3197 52.3148 37.004 50.7196C40.6882 49.1244 43.9625 46.7142 46.5804 43.6704C49.1983 40.6265 51.0916 37.0285 52.1177 33.1471C53.1438 29.2657 53.276 25.202 52.5043 21.2622C51.7327 17.3223 50.0772 13.6088 47.6627 10.4013Z" fill="url(#paint0_radial_2_21)"/>
<path opacity="0.67" d="M47.6627 10.4013C45.3036 7.2724 42.2715 4.71374 38.7905 2.91442C35.3095 1.1151 31.4687 0.12112 27.5518 0.00596953C21.3985 -0.117255 17.1479 1.73178 14.743 3.21843C17.9608 1.35217 22.6175 0.293495 26.6945 0.345832C37.1819 0.478332 48.4457 7.62075 50.1186 20.4944C52.0398 35.2722 41.7465 47.6059 27.2669 47.6437C11.3371 47.6841 1.64807 33.5795 4.1808 20.9105C4.2279 20.2893 4.31934 19.6723 4.45442 19.0641C4.76693 15.8171 5.71055 12.6625 7.23228 9.77718C5.39782 10.7265 3.06184 13.729 1.90909 16.5102C0.231049 20.7535 -0.360579 25.3488 0.187916 29.8788C0.227666 30.2219 0.263441 30.5644 0.308491 30.905C0.99544 34.8605 2.5708 38.6087 4.91597 41.8673C7.26114 45.1259 10.315 47.81 13.8476 49.7175C17.3803 51.625 21.2996 52.7063 25.3106 52.8799C29.3216 53.0535 33.3197 52.3148 37.004 50.7196C40.6882 49.1244 43.9625 46.7142 46.5804 43.6704C49.1983 40.6265 51.0916 37.0285 52.1177 33.1471C53.1438 29.2657 53.276 25.202 52.5043 21.2622C51.7327 17.3223 50.0772 13.6088 47.6627 10.4013Z" fill="url(#paint1_radial_2_21)"/>
<path d="M47.6627 10.4013C45.3036 7.2724 42.2715 4.71374 38.7905 2.91442C35.3095 1.1151 31.4687 0.12112 27.5518 0.00596953C21.3985 -0.117255 17.1479 1.73178 14.743 3.21843C17.9608 1.35217 22.6175 0.293495 26.6945 0.345832C37.1819 0.478332 48.4457 7.62075 50.1186 20.4944C52.0398 35.2722 41.7465 47.6059 27.2669 47.6437C11.3371 47.6841 1.64807 33.5795 4.1808 20.9105C4.2279 20.2893 4.31934 19.6723 4.45442 19.0641C4.76693 15.8171 5.71055 12.6625 7.23228 9.77718C5.39782 10.7265 3.06184 13.729 1.90909 16.5102C0.231049 20.7535 -0.360579 25.3488 0.187916 29.8788C0.227666 30.2219 0.263441 30.5644 0.308491 30.905C0.99544 34.8605 2.5708 38.6087 4.91597 41.8673C7.26114 45.1259 10.315 47.81 13.8476 49.7175C17.3803 51.625 21.2996 52.7063 25.3106 52.8799C29.3216 53.0535 33.3197 52.3148 37.004 50.7196C40.6882 49.1244 43.9625 46.7142 46.5804 43.6704C49.1983 40.6265 51.0916 37.0285 52.1177 33.1471C53.1438 29.2657 53.276 25.202 52.5043 21.2622C51.7327 17.3223 50.0772 13.6088 47.6627 10.4013Z" fill="url(#paint2_radial_2_21)"/>
<path d="M47.6627 10.4013C45.3036 7.2724 42.2715 4.71374 38.7905 2.91442C35.3095 1.1151 31.4687 0.12112 27.5518 0.00596953C21.3985 -0.117255 17.1479 1.73178 14.743 3.21843C17.9608 1.35217 22.6175 0.293495 26.6945 0.345832C37.1819 0.478332 48.4457 7.62075 50.1186 20.4944C52.0398 35.2722 41.7465 47.6059 27.2669 47.6437C11.3371 47.6841 1.64807 33.5795 4.1808 20.9105C4.2279 20.2893 4.31934 19.6723 4.45442 19.0641C4.76693 15.8171 5.71055 12.6625 7.23228 9.77718C5.39782 10.7265 3.06184 13.729 1.90909 16.5102C0.231049 20.7535 -0.360579 25.3488 0.187916 29.8788C0.227666 30.2219 0.263441 30.5644 0.308491 30.905C0.99544 34.8605 2.5708 38.6087 4.91597 41.8673C7.26114 45.1259 10.315 47.81 13.8476 49.7175C17.3803 51.625 21.2996 52.7063 25.3106 52.8799C29.3216 53.0535 33.3197 52.3148 37.004 50.7196C40.6882 49.1244 43.9625 46.7142 46.5804 43.6704C49.1983 40.6265 51.0916 37.0285 52.1177 33.1471C53.1438 29.2657 53.276 25.202 52.5043 21.2622C51.7327 17.3223 50.0772 13.6088 47.6627 10.4013Z" fill="url(#paint3_radial_2_21)"/>
<path d="M47.6627 10.4013C45.3036 7.2724 42.2715 4.71374 38.7905 2.91442C35.3095 1.1151 31.4687 0.12112 27.5518 0.00596953C21.3985 -0.117255 17.1479 1.73178 14.743 3.21843C17.9608 1.35217 22.6175 0.293495 26.6945 0.345832C37.1819 0.478332 48.4457 7.62075 50.1186 20.4944C52.0398 35.2722 41.7465 47.6059 27.2669 47.6437C11.3371 47.6841 1.64807 33.5795 4.1808 20.9105C4.2279 20.2893 4.31934 19.6723 4.45442 19.0641C4.76693 15.8171 5.71055 12.6625 7.23228 9.77718C5.39782 10.7265 3.06184 13.729 1.90909 16.5102C0.231049 20.7535 -0.360579 25.3488 0.187916 29.8788C0.227666 30.2219 0.263441 30.5644 0.308491 30.905C0.99544 34.8605 2.5708 38.6087 4.91597 41.8673C7.26114 45.1259 10.315 47.81 13.8476 49.7175C17.3803 51.625 21.2996 52.7063 25.3106 52.8799C29.3216 53.0535 33.3197 52.3148 37.004 50.7196C40.6882 49.1244 43.9625 46.7142 46.5804 43.6704C49.1983 40.6265 51.0916 37.0285 52.1177 33.1471C53.1438 29.2657 53.276 25.202 52.5043 21.2622C51.7327 17.3223 50.0772 13.6088 47.6627 10.4013Z" fill="url(#paint4_radial_2_21)"/>
<path d="M50.1188 20.4944C50.3267 22.0858 50.3932 23.6925 50.3175 25.2956C51.1965 25.1631 52.0769 25.046 52.9589 24.9445C52.6797 19.6778 50.8358 14.6142 47.6629 10.4013C45.3039 7.2724 42.2718 4.71374 38.7908 2.91442C35.3098 1.1151 31.4689 0.12112 27.5521 0.00596953C21.3988 -0.117255 17.1482 1.73178 14.7433 3.21843C17.961 1.35217 22.6178 0.293495 26.6948 0.345832C37.1822 0.479657 48.446 7.61876 50.1188 20.4944Z" fill="url(#paint5_linear_2_21)"/>
<path d="M50.764 19.7597C49.2727 6.30568 37.2742 0.258379 26.6947 0.345829C22.617 0.378954 17.961 1.35217 14.7432 3.21843C13.8918 3.72331 13.1005 4.32342 12.3847 5.00718C12.4702 4.93629 12.7253 4.72628 13.1479 4.4361L13.1897 4.40762L13.2268 4.38244C14.7882 3.32672 16.5087 2.52779 18.3227 2.01599C21.1645 1.23049 24.1101 0.88573 27.0565 0.993754C32.5248 1.32031 37.6754 3.67247 41.5032 7.59132C45.3311 11.5102 47.5616 16.7146 47.7596 22.1891C48.0027 30.9388 40.8418 37.9149 32.587 38.319C26.5834 38.6132 20.927 35.7081 18.1644 29.8966C17.5181 28.5731 17.0793 27.158 16.8632 25.701C15.5541 16.8567 21.4934 9.31409 26.9399 7.4465C24.0017 4.87998 16.6393 5.05422 11.1598 9.08553C7.21392 11.9886 4.65402 16.4055 3.80602 21.673C3.19593 25.7148 3.73307 29.8466 5.35627 33.598C7.04229 37.5763 9.7975 41.0097 13.3162 43.5173C16.8349 46.0249 20.9795 47.5087 25.2902 47.804C25.9479 47.8544 26.6068 47.8793 27.2671 47.8789C44.7982 47.8789 52.4037 34.5712 50.764 19.7597Z" fill="url(#paint6_radial_2_21)"/>
<path d="M50.764 19.7597C49.2727 6.30568 37.2742 0.258379 26.6947 0.345829C22.617 0.378954 17.961 1.35217 14.7432 3.21843C13.8918 3.72331 13.1005 4.32342 12.3847 5.00718C12.4702 4.93629 12.7253 4.72628 13.1479 4.4361L13.1897 4.40762L13.2268 4.38244C14.7882 3.32672 16.5087 2.52779 18.3227 2.01599C21.1645 1.23049 24.1101 0.88573 27.0565 0.993754C32.5248 1.32031 37.6754 3.67247 41.5032 7.59132C45.3311 11.5102 47.5616 16.7146 47.7596 22.1891C48.0027 30.9388 40.8418 37.9149 32.587 38.319C26.5834 38.6132 20.927 35.7081 18.1644 29.8966C17.5181 28.5731 17.0793 27.158 16.8632 25.701C15.5541 16.8567 21.4934 9.31409 26.9399 7.4465C24.0017 4.87998 16.6393 5.05422 11.1598 9.08553C7.21392 11.9886 4.65402 16.4055 3.80602 21.673C3.19593 25.7148 3.73307 29.8466 5.35627 33.598C7.04229 37.5763 9.7975 41.0097 13.3162 43.5173C16.8349 46.0249 20.9795 47.5087 25.2902 47.804C25.9479 47.8544 26.6068 47.8793 27.2671 47.8789C44.7982 47.8789 52.4037 34.5712 50.764 19.7597Z" fill="url(#paint7_radial_2_21)"/>
<path style="mix-blend-mode:multiply" opacity="0.53" d="M50.764 19.7597C49.2727 6.30568 37.2742 0.258379 26.6947 0.345829C22.617 0.378954 17.961 1.35217 14.7432 3.21843C13.8918 3.72331 13.1005 4.32342 12.3847 5.00718C12.4702 4.93629 12.7253 4.72628 13.1479 4.4361L13.1897 4.40762L13.2268 4.38244C14.7882 3.32672 16.5087 2.52779 18.3227 2.01599C21.1645 1.23049 24.1101 0.88573 27.0565 0.993754C32.5248 1.32031 37.6754 3.67247 41.5032 7.59132C45.3311 11.5102 47.5616 16.7146 47.7596 22.1891C48.0027 30.9388 40.8418 37.9149 32.587 38.319C26.5834 38.6132 20.927 35.7081 18.1644 29.8966C17.5181 28.5731 17.0793 27.158 16.8632 25.701C15.5541 16.8567 21.4934 9.31409 26.9399 7.4465C24.0017 4.87998 16.6393 5.05422 11.1598 9.08553C7.21392 11.9886 4.65402 16.4055 3.80602 21.673C3.19593 25.7148 3.73307 29.8466 5.35627 33.598C7.04229 37.5763 9.7975 41.0097 13.3162 43.5173C16.8349 46.0249 20.9795 47.5087 25.2902 47.804C25.9479 47.8544 26.6068 47.8793 27.2671 47.8789C44.7982 47.8789 52.4037 34.5712 50.764 19.7597Z" fill="url(#paint8_radial_2_21)"/>
<path style="mix-blend-mode:multiply" opacity="0.53" d="M50.764 19.7597C49.2727 6.30568 37.2742 0.258379 26.6947 0.345829C22.617 0.378954 17.961 1.35217 14.7432 3.21843C13.8918 3.72331 13.1005 4.32342 12.3847 5.00718C12.4702 4.93629 12.7253 4.72628 13.1479 4.4361L13.1897 4.40762L13.2268 4.38244C14.7882 3.32672 16.5087 2.52779 18.3227 2.01599C21.1645 1.23049 24.1101 0.88573 27.0565 0.993754C32.5248 1.32031 37.6754 3.67247 41.5032 7.59132C45.3311 11.5102 47.5616 16.7146 47.7596 22.1891C48.0027 30.9388 40.8418 37.9149 32.587 38.319C26.5834 38.6132 20.927 35.7081 18.1644 29.8966C17.5181 28.5731 17.0793 27.158 16.8632 25.701C15.5541 16.8567 21.4934 9.31409 26.9399 7.4465C24.0017 4.87998 16.6393 5.05422 11.1598 9.08553C7.21392 11.9886 4.65402 16.4055 3.80602 21.673C3.19593 25.7148 3.73307 29.8466 5.35627 33.598C7.04229 37.5763 9.7975 41.0097 13.3162 43.5173C16.8349 46.0249 20.9795 47.5087 25.2902 47.804C25.9479 47.8544 26.6068 47.8793 27.2671 47.8789C44.7982 47.8789 52.4037 34.5712 50.764 19.7597Z" fill="url(#paint9_radial_2_21)"/>
<path d="M32.587 38.319C43.9157 37.63 48.7652 28.249 49.0693 21.5942C49.5437 11.1963 43.3751 -0.0132443 27.0564 0.993756C24.1099 0.886378 21.1644 1.23181 18.3227 2.01798C16.5168 2.5515 14.7996 3.34893 13.2268 4.38443L13.1897 4.40961L13.1479 4.43809C12.8944 4.61476 12.6464 4.8007 12.4039 4.99592C16.6279 2.63399 21.5084 1.71825 26.3012 2.38832C35.6703 3.61792 44.2364 10.9061 44.2364 20.5229C44.2364 27.9224 38.5184 33.5742 31.8225 33.1681C21.875 32.5718 19.3675 22.3693 24.5423 17.961C23.147 17.6609 20.5249 18.2492 18.699 20.9787C17.0606 23.43 17.1534 27.2129 18.1644 29.8966C19.4245 32.6023 21.4808 34.8587 24.0583 36.3638C26.6357 37.8689 29.6113 38.5511 32.587 38.319Z" fill="url(#paint10_radial_2_21)"/>
<path d="M47.6627 10.4012C46.9529 9.4719 46.1823 8.59062 45.3559 7.76317C44.6997 7.06939 43.9965 6.42169 43.2511 5.8247C43.68 6.19816 44.0889 6.594 44.4761 7.01057C45.9263 8.55807 47.029 10.3976 47.7104 12.406C49.0944 16.5989 49.0043 21.8466 46.3616 25.968C44.8942 28.2775 42.8451 30.1602 40.4199 31.4272C37.9947 32.6941 35.2789 33.3007 32.5451 33.1859C32.306 33.1859 32.0648 33.1859 31.8224 33.1681C21.8749 32.5718 19.3674 22.3693 24.5428 17.961C23.1469 17.6609 20.5247 18.2492 18.6989 20.9787C17.0605 23.43 17.1533 27.2128 18.1643 29.8966C17.5182 28.5731 17.0796 27.158 16.8638 25.701C15.554 16.8566 21.4933 9.31409 26.9397 7.4465C24.0015 4.87997 16.6392 5.05421 11.1596 9.08552C7.93683 11.4946 5.59006 14.8913 4.477 18.758C4.83173 15.6203 5.76602 12.5758 7.23234 9.77916C5.39788 10.7285 3.0619 13.731 1.90915 16.5121C0.23144 20.7549 -0.360183 25.3494 0.187976 29.8787C0.227726 30.2219 0.263501 30.5644 0.308551 30.905C0.995499 34.8605 2.57086 38.6087 4.91603 41.8673C7.2612 45.1259 10.3151 47.81 13.8477 49.7175C17.3803 51.625 21.2997 52.7063 25.3107 52.8799C29.3217 53.0535 33.3198 52.3148 37.004 50.7196C40.6883 49.1244 43.9626 46.7142 46.5805 43.6703C49.1984 40.6265 51.0917 37.0285 52.1178 33.1471C53.1439 29.2657 53.2761 25.202 52.5044 21.2621C51.7327 17.3223 50.0773 13.6088 47.6627 10.4012Z" fill="url(#paint11_linear_2_21)"/>
<path d="M47.7106 12.406C47.0293 10.3975 45.9266 8.55795 44.4763 7.01055C42.7528 5.21468 40.7097 3.75589 38.4515 2.70894C36.5662 1.77966 34.5784 1.07501 32.5287 0.609479C28.9157 -0.181391 25.1768 -0.203963 21.5544 0.543229C17.7894 1.33823 14.4789 2.96732 12.3848 5.00384C14.0546 4.0605 15.8443 3.34736 17.7053 2.88384C21.3215 1.97511 25.1082 1.9903 28.7171 2.92802C32.3259 3.86574 35.641 5.69588 38.3574 8.25009C39.4584 9.29418 40.4221 10.4741 41.2254 11.7613C44.4683 17.0342 44.1616 23.6632 41.6328 27.5726C39.7546 30.477 35.7319 33.2038 31.9789 33.172C34.8036 33.3852 37.6332 32.828 40.1661 31.5596C42.699 30.2913 44.8403 28.3594 46.3617 25.97C49.0045 21.8466 49.0946 16.5989 47.7106 12.406Z" fill="url(#paint12_linear_2_21)"/>
<path d="M47.7106 12.406C47.0293 10.3975 45.9266 8.55795 44.4763 7.01055C42.7528 5.21468 40.7097 3.75589 38.4515 2.70894C36.5662 1.77966 34.5784 1.07501 32.5287 0.609479C28.9157 -0.181391 25.1768 -0.203963 21.5544 0.543229C17.7894 1.33823 14.4789 2.96732 12.3848 5.00384C14.0546 4.0605 15.8443 3.34736 17.7053 2.88384C21.3215 1.97511 25.1082 1.9903 28.7171 2.92802C32.3259 3.86574 35.641 5.69588 38.3574 8.25009C39.4584 9.29418 40.4221 10.4741 41.2254 11.7613C44.4683 17.0342 44.1616 23.6632 41.6328 27.5726C39.7546 30.477 35.7319 33.2038 31.9789 33.172C34.8036 33.3852 37.6332 32.828 40.1661 31.5596C42.699 30.2913 44.8403 28.3594 46.3617 25.97C49.0045 21.8466 49.0946 16.5989 47.7106 12.406Z" fill="url(#paint13_linear_2_21)"/>
</g>
<defs>
<radialGradient id="paint0_radial_2_21" cx="0" cy="0" r="1" gradientUnits="userSpaceOnUse" gradientTransform="translate(47.3891 10.8551) scale(60.1418 60.1418)">
<stop stop-color="#FFF36E"/>
<stop offset="0.5" stop-color="#FC4055"/>
<stop offset="1" stop-color="#E31587"/>
</radialGradient>
<radialGradient id="paint1_radial_2_21" cx="0" cy="0" r="1" gradientUnits="userSpaceOnUse" gradientTransform="translate(4.39148 13.3428) scale(35.5935)">
<stop offset="0.001" stop-color="#C60084"/>
<stop offset="1" stop-color="#FC4055" stop-opacity="0"/>
</radialGradient>
<radialGradient id="paint2_radial_2_21" cx="0" cy="0" r="1" gradientUnits="userSpaceOnUse" gradientTransform="translate(52.5301 7.4326) scale(70.6218 70.6218)">
<stop stop-color="#FFDE67" stop-opacity="0.6"/>
<stop offset="0.093" stop-color="#FFD966" stop-opacity="0.581"/>
<stop offset="0.203" stop-color="#FFCA65" stop-opacity="0.525"/>
<stop offset="0.321" stop-color="#FEB262" stop-opacity="0.432"/>
<stop offset="0.446" stop-color="#FE8F5E" stop-opacity="0.302"/>
<stop offset="0.573" stop-color="#FD6459" stop-opacity="0.137"/>
<stop offset="0.664" stop-color="#FC4055" stop-opacity="0"/>
</radialGradient>
<radialGradient id="paint3_radial_2_21" cx="0" cy="0" r="1" gradientUnits="userSpaceOnUse" gradientTransform="translate(28.0136 29.4177) scale(91.1077)">
<stop offset="0.153" stop-color="#810220"/>
<stop offset="0.167" stop-color="#920B27" stop-opacity="0.861"/>
<stop offset="0.216" stop-color="#CB2740" stop-opacity="0.398"/>
<stop offset="0.253" stop-color="#EF394F" stop-opacity="0.11"/>
<stop offset="0.272" stop-color="#FC4055" stop-opacity="0"/>
</radialGradient>
<radialGradient id="paint4_radial_2_21" cx="0" cy="0" r="1" gradientUnits="userSpaceOnUse" gradientTransform="translate(21.1189 28.2722) scale(91.1077)">
<stop offset="0.113" stop-color="#810220"/>
<stop offset="0.133" stop-color="#920B27" stop-opacity="0.861"/>
<stop offset="0.204" stop-color="#CB2740" stop-opacity="0.398"/>
<stop offset="0.257" stop-color="#EF394F" stop-opacity="0.11"/>
<stop offset="0.284" stop-color="#FC4055" stop-opacity="0"/>
</radialGradient>
<linearGradient id="paint5_linear_2_21" x1="30.3631" y1="5.15889" x2="45.9702" y2="32.1915" gradientUnits="userSpaceOnUse">
<stop stop-color="#FFBD4F"/>
<stop offset="0.508" stop-color="#FF9640" stop-opacity="0"/>
</linearGradient>
<radialGradient id="paint6_radial_2_21" cx="0" cy="0" r="1" gradientUnits="userSpaceOnUse" gradientTransform="translate(46.0147 8.01056) scale(56.458 56.5757)">
<stop stop-color="#FF9640"/>
<stop offset="0.8" stop-color="#FC4055"/>
</radialGradient>
<radialGradient id="paint7_radial_2_21" cx="0" cy="0" r="1" gradientUnits="userSpaceOnUse" gradientTransform="translate(46.0147 8.01056) scale(56.458 56.5757)">
<stop offset="0.084" stop-color="#FFDE67"/>
<stop offset="0.147" stop-color="#FFDC66" stop-opacity="0.968"/>
<stop offset="0.246" stop-color="#FFD562" stop-opacity="0.879"/>
<stop offset="0.369" stop-color="#FFCB5D" stop-opacity="0.734"/>
<stop offset="0.511" stop-color="#FFBC55" stop-opacity="0.533"/>
<stop offset="0.667" stop-color="#FFAA4B" stop-opacity="0.28"/>
<stop offset="0.822" stop-color="#FF9640" stop-opacity="0"/>
</radialGradient>
<radialGradient id="paint8_radial_2_21" cx="0" cy="0" r="1" gradientUnits="userSpaceOnUse" gradientTransform="translate(33.0834 25.6077) rotate(75.728) scale(27.7391 28.8943)">
<stop offset="0.363" stop-color="#FC4055"/>
<stop offset="0.443" stop-color="#FD604D" stop-opacity="0.633"/>
<stop offset="0.545" stop-color="#FE8644" stop-opacity="0.181"/>
<stop offset="0.59" stop-color="#FF9640" stop-opacity="0"/>
</radialGradient>
<radialGradient id="paint9_radial_2_21" cx="0" cy="0" r="1" gradientUnits="userSpaceOnUse" gradientTransform="translate(28.3132 27.8899) scale(27.6859)">
<stop offset="0.216" stop-color="#FC4055" stop-opacity="0.8"/>
<stop offset="0.267" stop-color="#FD5251" stop-opacity="0.633"/>
<stop offset="0.41" stop-color="#FE8345" stop-opacity="0.181"/>
<stop offset="0.474" stop-color="#FF9640" stop-opacity="0"/>
</radialGradient>
<radialGradient id="paint10_radial_2_21" cx="0" cy="0" r="1" gradientUnits="userSpaceOnUse" gradientTransform="translate(57.2824 1.61974) scale(95.4245 95.6235)">
<stop offset="0.054" stop-color="#FFF36E"/>
<stop offset="0.457" stop-color="#FF9640"/>
<stop offset="0.639" stop-color="#FF9640"/>
</radialGradient>
<linearGradient id="paint11_linear_2_21" x1="39.1218" y1="4.69249" x2="12.0275" y2="51.622" gradientUnits="userSpaceOnUse">
<stop stop-color="#FFF36E" stop-opacity="0.8"/>
<stop offset="0.094" stop-color="#FFF36E" stop-opacity="0.699"/>
<stop offset="0.752" stop-color="#FFF36E" stop-opacity="0"/>
</linearGradient>
<linearGradient id="paint12_linear_2_21" x1="26.8876" y1="-0.443896" x2="41.2737" y2="41.2095" gradientUnits="userSpaceOnUse">
<stop stop-color="#B833E1"/>
<stop offset="0.371" stop-color="#9059FF"/>
<stop offset="0.614" stop-color="#5B6DF8"/>
<stop offset="1" stop-color="#0090ED"/>
</linearGradient>
<linearGradient id="paint13_linear_2_21" x1="18.3579" y1="0.214628" x2="45.097" y2="26.9538" gradientUnits="userSpaceOnUse">
<stop offset="0.805" stop-color="#722291" stop-opacity="0"/>
<stop offset="1" stop-color="#592ACB" stop-opacity="0.5"/>
</linearGradient>
<clipPath id="clip0_2_21">
<rect width="53" height="53" fill="white"/>
</clipPath>
</defs>
</svg>
