<svg width="50" height="50" viewBox="0 0 50 50" fill="none" xmlns="http://www.w3.org/2000/svg">
<g clip-path="url(#clip0_185_137)">
<path d="M24.9988 0.00351715C11.1924 0.00351715 0 11.1959 0 25.0023C0 38.4092 10.5548 49.3512 23.8082 49.9721C24.2038 49.9907 24.5999 50.0013 24.9992 50.0013C31.3996 50.0013 37.2366 47.5946 41.6595 43.6394C38.7291 45.5828 35.3031 46.701 31.6418 46.701C25.6885 46.701 20.3568 43.7476 16.7709 39.0903C14.0066 35.8273 12.2162 31.0039 12.0943 25.5908V24.4135C12.2161 19.0006 14.0065 14.1762 16.7702 10.914C20.3566 6.2567 25.6881 3.30334 31.6411 3.30334C35.3033 3.30334 38.7299 4.42152 41.6605 6.36615C37.2594 2.429 31.4576 0.0272789 25.0928 0.00364685C25.0611 0.00364685 25.03 0.00240707 24.9983 0.00240707L24.9988 0.00351715Z" fill="url(#paint0_linear_185_137)"/>
<path d="M16.7705 10.9154C19.0646 8.20716 22.0273 6.57403 25.2643 6.57403C32.5422 6.57403 38.441 14.8252 38.441 25.0035C38.441 35.1817 32.5417 43.4329 25.2643 43.4329C22.0273 43.4329 19.0646 41.8004 16.7711 39.0921C20.3569 43.7494 25.6882 46.7028 31.642 46.7028C35.3036 46.7028 38.7296 45.5846 41.6597 43.6412C46.7766 39.0635 49.9986 32.41 49.9986 25.0036C49.9986 17.5982 46.7772 10.945 41.6616 6.36784C38.7306 4.42321 35.304 3.30502 31.6421 3.30502C25.6888 3.30502 20.3564 6.25813 16.7705 10.9154Z" fill="url(#paint1_linear_185_137)"/>
</g>
<defs>
<linearGradient id="paint0_linear_185_137" x1="20.8309" y1="0.818412" x2="20.8309" y2="49.2745" gradientUnits="userSpaceOnUse">
<stop stop-color="#FF1B2D"/>
<stop offset="0.3" stop-color="#FF1B2D"/>
<stop offset="0.614" stop-color="#FF1B2D"/>
<stop offset="1" stop-color="#A70014"/>
</linearGradient>
<linearGradient id="paint1_linear_185_137" x1="33.3841" y1="3.6749" x2="33.3841" y2="46.5317" gradientUnits="userSpaceOnUse">
<stop stop-color="#9C0000"/>
<stop offset="0.7" stop-color="#FF4B4B"/>
<stop offset="1" stop-color="#FF4B4B"/>
</linearGradient>
<clipPath id="clip0_185_137">
<rect width="50" height="50" fill="white"/>
</clipPath>
</defs>
</svg>
